<?xml version="1.0" encoding="UTF-8" standalone="no"?>
<!-- Created with Inkscape (http://www.inkscape.org/) -->

<svg
   xmlns:dc="http://purl.org/dc/elements/1.1/"
   xmlns:cc="http://creativecommons.org/ns#"
   xmlns:rdf="http://www.w3.org/1999/02/22-rdf-syntax-ns#"
   xmlns:svg="http://www.w3.org/2000/svg"
   xmlns="http://www.w3.org/2000/svg"
   xmlns:sodipodi="http://sodipodi.sourceforge.net/DTD/sodipodi-0.dtd"
   xmlns:inkscape="http://www.inkscape.org/namespaces/inkscape"
   width="14.02292mm"
   height="15.875mm"
   viewBox="0 0 14.022921 15.875"
   version="1.1"
   id="svg2206"
   inkscape:version="0.92.4 (5da689c313, 2019-01-14)"
   sodipodi:docname="challenge.svg">
  <defs
     id="defs2200">
    <inkscape:path-effect
       effect="bspline"
       id="path-effect898"
       is_visible="true"
       weight="33.333333"
       steps="2"
       helper_size="0"
       apply_no_weight="true"
       apply_with_weight="true"
       only_selected="false" />
    <inkscape:path-effect
       effect="spiro"
       id="path-effect894"
       is_visible="true" />
    <inkscape:path-effect
       effect="spiro"
       id="path-effect861"
       is_visible="true" />
    <inkscape:path-effect
       is_visible="true"
       id="path-effect865"
       effect="spiro" />
    <inkscape:path-effect
       effect="spiro"
       id="path-effect869"
       is_visible="true" />
  </defs>
  <sodipodi:namedview
     id="base"
     pagecolor="#ffffff"
     bordercolor="#666666"
     borderopacity="1.0"
     inkscape:pageopacity="0.0"
     inkscape:pageshadow="2"
     inkscape:zoom="5.6568542"
     inkscape:cx="27.423625"
     inkscape:cy="43.321164"
     inkscape:document-units="mm"
     inkscape:current-layer="layer1"
     showgrid="false"
     inkscape:snap-global="true"
     inkscape:window-width="1366"
     inkscape:window-height="705"
     inkscape:window-x="-8"
     inkscape:window-y="-8"
     inkscape:window-maximized="1" />
  <metadata
     id="metadata2203">
    <rdf:RDF>
      <cc:Work
         rdf:about="">
        <dc:format>image/svg+xml</dc:format>
        <dc:type
           rdf:resource="http://purl.org/dc/dcmitype/StillImage" />
        <dc:title />
      </cc:Work>
    </rdf:RDF>
  </metadata>
  <g
     inkscape:label="Layer 1"
     inkscape:groupmode="layer"
     id="layer1"
     transform="translate(288.0587,237.19229)">
    <path
       id="path927"
       style="fill:none;stroke:#ffffff;stroke-width:0.5;stroke-linecap:butt;stroke-linejoin:miter;stroke-miterlimit:4;stroke-dasharray:none;stroke-opacity:1"
       d="m -275.44349,-235.67639 c -0.0232,2.91524 -0.40012,5.10126 -1.13188,7.13263 m -10.07562,-7.13263 c -0.0937,2.89185 0.34165,5.13049 1.13188,7.13263 m -1.14678,-8.39853 c -0.002,0.42801 0.003,0.84953 0.0149,1.2659 -0.60009,0.25556 -1.11769,0.95594 -1.11764,1.80836 6.7e-4,0.40926 0.0942,0.80809 0.26787,1.13905 -0.20003,0.43681 -0.30701,0.94369 -0.30794,1.46124 -1.3e-4,1.34689 1.24668,2.48941 2.28959,2.72398 0.50204,1.42399 2.67225,2.40556 3.40108,2.75659 l 0.11757,2.51316 -1.85379,0.5611 v 1.14562 h 2.80701 2.80701 v -1.14562 l -1.73622,-0.5611 0.23515,-2.51316 c 0.72883,-0.35103 2.66388,-1.3326 3.16593,-2.75659 1.04291,-0.23457 2.28972,-1.37709 2.28959,-2.72398 -9.3e-4,-0.51755 -0.10791,-1.02443 -0.30795,-1.46124 0.17366,-0.33096 0.26721,-0.72979 0.26788,-1.13905 4e-5,-0.85242 -0.51755,-1.5528 -1.11764,-1.80836 0.0124,-0.41637 0.0174,-0.83789 0.0149,-1.2659 h -5.61868 z" />
  </g>
</svg>
