<?xml version="1.0" encoding="UTF-8" standalone="no"?>
<!-- Created with Inkscape (http://www.inkscape.org/) -->

<svg
   xmlns:dc="http://purl.org/dc/elements/1.1/"
   xmlns:cc="http://creativecommons.org/ns#"
   xmlns:rdf="http://www.w3.org/1999/02/22-rdf-syntax-ns#"
   xmlns:svg="http://www.w3.org/2000/svg"
   xmlns="http://www.w3.org/2000/svg"
   xmlns:sodipodi="http://sodipodi.sourceforge.net/DTD/sodipodi-0.dtd"
   xmlns:inkscape="http://www.inkscape.org/namespaces/inkscape"
   width="7.9375mm"
   height="7.9559202mm"
   viewBox="0 0 7.9375 7.9559202"
   version="1.1"
   id="svg1921"
   inkscape:version="0.92.4 (5da689c313, 2019-01-14)"
   sodipodi:docname="creative.svg">
  <defs
     id="defs1915" />
  <sodipodi:namedview
     id="base"
     pagecolor="#ffffff"
     bordercolor="#666666"
     borderopacity="1.0"
     inkscape:pageopacity="0.0"
     inkscape:pageshadow="2"
     inkscape:zoom="5.6568543"
     inkscape:cx="17.104631"
     inkscape:cy="15.136276"
     inkscape:document-units="mm"
     inkscape:current-layer="layer1"
     showgrid="false"
     inkscape:window-width="1366"
     inkscape:window-height="705"
     inkscape:window-x="-8"
     inkscape:window-y="-8"
     inkscape:window-maximized="1" />
  <metadata
     id="metadata1918">
    <rdf:RDF>
      <cc:Work
         rdf:about="">
        <dc:format>image/svg+xml</dc:format>
        <dc:type
           rdf:resource="http://purl.org/dc/dcmitype/StillImage" />
        <dc:title />
      </cc:Work>
    </rdf:RDF>
  </metadata>
  <g
     inkscape:label="Layer 1"
     inkscape:groupmode="layer"
     id="layer1"
     transform="translate(-130.59078,-329.31696)">
    <path
       style="opacity:1;fill:none;fill-opacity:1;stroke:#ffffff;stroke-width:0.27599999;stroke-linecap:round;stroke-linejoin:round;stroke-miterlimit:4;stroke-dasharray:none;stroke-opacity:1;paint-order:markers stroke fill"
       d="m 134.55952,329.45496 c -1.9813,0.0386 -3.90169,0.96152 -3.82877,2.77419 0.0855,2.12615 3.30138,1.84454 3.3241,2.62056 0.18052,0.0471 0.38667,0.0763 0.60991,0.088 0.22326,-0.0116 0.42942,-0.0409 0.60993,-0.088 0.0227,-0.84621 3.02811,-0.49441 3.11362,-2.62056 0.0729,-1.81267 -1.84748,-2.7356 -3.82879,-2.77419 z"
       id="path7749"
       inkscape:connector-curvature="0"
       sodipodi:nodetypes="ccccccc" />
    <ellipse
       style="opacity:1;fill:none;fill-opacity:1;stroke:#ffffff;stroke-width:0.27599999;stroke-linecap:round;stroke-linejoin:round;stroke-miterlimit:4;stroke-dasharray:none;stroke-opacity:1;paint-order:markers stroke fill"
       id="circle7771"
       cx="-136.53017"
       cy="330.58292"
       transform="scale(-1,1)"
       rx="0.36266151"
       ry="0.22794892" />
    <path
       style="fill:none;stroke:#ffffff;stroke-width:1.04314959;stroke-linecap:butt;stroke-linejoin:round;stroke-miterlimit:4;stroke-dasharray:none;stroke-opacity:1"
       d="m 9.6796875,11.160156 c -0.8502803,0.0189 -1.6481001,0.07019 -2.3964844,0.427735 -0.7169008,0.304252 -1.4013788,0.883074 -1.4960937,1.46875 -0.069921,0.41707 0.29424,0.830561 0.8203125,1.121093 0.9993071,0.553021 2.3434066,0.855526 3.6601561,1.087891 1.198866,0.203339 2.434131,0.336142 3.675781,0.417969 0.0076,-0.873071 0.0121,-1.746108 0.02344,-2.619141 C 13.422434,12.354355 12.5342,11.674256 11.263674,11.339844 10.772222,11.212852 10.223526,11.150329 9.6796895,11.160156 Z m 10.8867185,0 c -1.140472,0.0076 -2.180177,0.366383 -2.904297,0.839844 -0.491376,0.316346 -0.891548,0.679357 -1.177734,1.064453 l 0.02344,2.619141 c 2.008555,-0.139087 4.031883,-0.380417 5.84375,-0.904297 0.893178,-0.269858 1.801433,-0.634076 2.179688,-1.185547 0.298205,-0.429165 0.08686,-0.91954 -0.339844,-1.300781 -0.294047,-0.267213 -0.657122,-0.516081 -1.072265,-0.726563 -0.6799,-0.317858 -1.650146,-0.42031 -2.552735,-0.40625 z m -4.1875,4.603516 c -0.02646,0.0017 -0.05362,0.0027 -0.08008,0.0078 -0.757505,0.04261 -1.548056,0.06235 -2.203125,0.07813 l 0.09375,5.279297 h 2.267578 c -0.05761,-1.181482 -0.0599,-3.101794 -0.07813,-5.365234 z"
       transform="matrix(0.26458333,0,0,0.26458333,130.59078,329.31696)"
       id="path7775"
       inkscape:connector-curvature="0"
       sodipodi:nodetypes="ccccccccccccccccccccccccccc" />
    <path
       style="fill:none;stroke:#ffffff;stroke-width:0.27599999;stroke-linecap:round;stroke-linejoin:miter;stroke-miterlimit:4;stroke-dasharray:none;stroke-dashoffset:0;stroke-opacity:1"
       d="m 134.79221,330.05473 c -2.32978,-0.20775 -3.95882,1.41629 -3.04985,3.02173"
       id="path7988"
       inkscape:connector-curvature="0"
       sodipodi:nodetypes="cc" />
    <rect
       style="opacity:1;fill:none;fill-opacity:1;stroke:#ffffff;stroke-width:0.27599999;stroke-linecap:round;stroke-linejoin:round;stroke-miterlimit:4;stroke-dasharray:none;stroke-dashoffset:0;stroke-opacity:1;paint-order:markers fill stroke"
       id="rect1861"
       width="3.9813094"
       height="0.47765517"
       x="132.56888"
       y="334.97668"
       ry="0.72121513"
       rx="0.76335013" />
    <path
       style="opacity:1;fill:none;fill-opacity:1;stroke:#ffffff;stroke-width:0.27599999;stroke-linecap:round;stroke-linejoin:round;stroke-miterlimit:4;stroke-dasharray:none;stroke-dashoffset:0;stroke-opacity:1;paint-order:markers fill stroke"
       d="m 134.55953,336.40799 c 0.32167,0 0.58064,-0.007 0.58064,0.13755 v 0.32607 c 0,0.14586 -0.25897,0.26327 -0.58064,0.26327 -0.32167,0 -0.58064,-0.11737 -0.58064,-0.26327 v -0.32607 c 0,-0.14586 0.25897,-0.13755 0.58064,-0.13755 z"
       id="rect1871"
       inkscape:connector-curvature="0"
       sodipodi:nodetypes="sssssss" />
    <rect
       rx="0.75807643"
       ry="0.7251789"
       y="335.44882"
       x="132.86388"
       height="0.39243102"
       width="3.3912942"
       id="rect1863"
       style="opacity:1;fill:none;fill-opacity:1;stroke:#ffffff;stroke-width:0.27599999;stroke-linecap:round;stroke-linejoin:round;stroke-miterlimit:4;stroke-dasharray:none;stroke-dashoffset:0;stroke-opacity:1;paint-order:markers fill stroke" />
    <rect
       style="opacity:1;fill:none;fill-opacity:1;stroke:#ffffff;stroke-width:0.27599999;stroke-linecap:round;stroke-linejoin:round;stroke-miterlimit:4;stroke-dasharray:none;stroke-dashoffset:0;stroke-opacity:1;paint-order:markers fill stroke"
       id="rect1865"
       width="2.52"
       height="0.38003939"
       x="133.29953"
       y="335.93732"
       ry="0.76451415"
       rx="0.59946817" />
  </g>
</svg>
