<?xml version="1.0" encoding="UTF-8" standalone="no"?>
<!-- Created with Inkscape (http://www.inkscape.org/) -->

<svg
   xmlns:dc="http://purl.org/dc/elements/1.1/"
   xmlns:cc="http://creativecommons.org/ns#"
   xmlns:rdf="http://www.w3.org/1999/02/22-rdf-syntax-ns#"
   xmlns:svg="http://www.w3.org/2000/svg"
   xmlns="http://www.w3.org/2000/svg"
   xmlns:sodipodi="http://sodipodi.sourceforge.net/DTD/sodipodi-0.dtd"
   xmlns:inkscape="http://www.inkscape.org/namespaces/inkscape"
   width="7.937499mm"
   height="7.9375005mm"
   viewBox="0 0 7.937499 7.9375005"
   version="1.1"
   id="svg1921"
   inkscape:version="0.92.4 (5da689c313, 2019-01-14)"
   sodipodi:docname="creative.svg">
  <defs
     id="defs1915" />
  <sodipodi:namedview
     id="base"
     pagecolor="#ffffff"
     bordercolor="#666666"
     borderopacity="1.0"
     inkscape:pageopacity="0.0"
     inkscape:pageshadow="2"
     inkscape:zoom="5.6"
     inkscape:cx="-16.387969"
     inkscape:cy="7.9729094"
     inkscape:document-units="mm"
     inkscape:current-layer="layer1"
     showgrid="false"
     inkscape:window-width="1366"
     inkscape:window-height="705"
     inkscape:window-x="-8"
     inkscape:window-y="-8"
     inkscape:window-maximized="1" />
  <metadata
     id="metadata1918">
    <rdf:RDF>
      <cc:Work
         rdf:about="">
        <dc:format>image/svg+xml</dc:format>
        <dc:type
           rdf:resource="http://purl.org/dc/dcmitype/StillImage" />
        <dc:title />
      </cc:Work>
    </rdf:RDF>
  </metadata>
  <g
     inkscape:label="Layer 1"
     inkscape:groupmode="layer"
     id="layer1"
     transform="translate(-130.59078,-329.31696)">
    <g
       transform="translate(175.44424,121.30339)"
       id="g2474"
       style="stroke:#000000">
      <path
         inkscape:connector-curvature="0"
         id="path7749"
         d="m -40.884715,208.15157 c -1.981304,0.0386 -3.901693,0.96152 -3.828779,2.77419 0.08554,2.12615 2.962289,1.37679 3.218869,3.93018 0.180512,0.0471 0.38667,0.0763 0.60991,0.088 0.223252,-0.0116 0.429412,-0.0409 0.609922,-0.088 0.256581,-2.55339 3.133349,-1.80403 3.218859,-3.93018 0.07289,-1.81267 -1.847474,-2.7356 -3.828781,-2.77419 z"
         style="opacity:1;fill:none;fill-opacity:1;stroke:#000000;stroke-width:0.27599999;stroke-linecap:round;stroke-linejoin:round;stroke-miterlimit:4;stroke-dasharray:none;stroke-opacity:1;paint-order:markers stroke fill" />
      <ellipse
         ry="0.22794892"
         rx="0.36266151"
         transform="scale(-1,1)"
         cy="209.33859"
         cx="38.914074"
         id="circle7771"
         style="opacity:1;fill:#ffffff;fill-opacity:1;stroke:#000000;stroke-width:0.27599999;stroke-linecap:round;stroke-linejoin:round;stroke-miterlimit:4;stroke-dasharray:none;stroke-opacity:1;paint-order:markers stroke fill" />
      <path
         sodipodi:nodetypes="cccccccccccccccccccccccccc"
         inkscape:connector-curvature="0"
         id="path7775"
         d="m -42.292403,210.96657 c -0.224972,0.005 -0.436165,0.0186 -0.634175,0.1132 -0.189679,0.0805 -0.370898,0.23355 -0.395963,0.38851 -0.01853,0.11035 0.07827,0.21975 0.217492,0.29662 0.2644,0.14632 0.620072,0.2264 0.968455,0.28788 0.3172,0.0538 0.643956,0.0887 0.972475,0.11035 0.0022,-0.231 0.0034,-0.46199 0.0056,-0.69298 -0.144029,-0.18788 -0.379074,-0.36751 -0.715229,-0.45599 -0.130037,-0.0336 -0.275282,-0.0502 -0.419175,-0.0476 z m 2.880457,-1e-5 c -0.301758,0.002 -0.576612,0.0965 -0.7682,0.22177 -0.130011,0.0837 -0.235919,0.17993 -0.311641,0.28182 0.0022,0.23099 0.0044,0.46198 0.0056,0.69299 0.531424,-0.0368 1.0666,-0.10085 1.545988,-0.23946 0.236324,-0.0714 0.47694,-0.16761 0.577018,-0.31352 0.07893,-0.11355 0.02313,-0.24318 -0.08984,-0.34405 -0.07781,-0.0707 -0.174327,-0.13634 -0.284173,-0.19203 -0.179886,-0.0841 -0.436424,-0.11124 -0.675241,-0.10752 z m -1.128442,1.21932 c -0.193854,0.0116 -0.388606,0.0188 -0.583551,0.0211 v 2.04164 h 0.600026 c 0.01617,-0.31828 0.009,-0.63751 0.01,-0.95616 -8.32e-4,-0.36928 -0.0034,-0.73855 -0.0056,-1.10784 -0.0067,4.4e-4 -0.01392,6.6e-4 -0.02088,0.002 z"
         style="fill:none;stroke:#000000;stroke-width:0.27599999;stroke-linecap:butt;stroke-linejoin:miter;stroke-miterlimit:4;stroke-dasharray:none;stroke-opacity:1" />
      <path
         sodipodi:nodetypes="cc"
         inkscape:connector-curvature="0"
         id="path7988"
         d="m -40.86464,208.6096 c -2.32978,-0.20775 -3.958824,1.41629 -3.049849,3.02173"
         style="fill:none;stroke:#000000;stroke-width:0.27599999;stroke-linecap:round;stroke-linejoin:miter;stroke-miterlimit:4;stroke-dasharray:none;stroke-dashoffset:0;stroke-opacity:1" />
      <rect
         rx="0.8622582"
         ry="0.86225814"
         y="213.61334"
         x="-43.048893"
         height="0.57106686"
         width="4.4971719"
         id="rect1861"
         style="opacity:1;fill:#ffffff;fill-opacity:1;stroke:#000000;stroke-width:0.27599999;stroke-linecap:round;stroke-linejoin:round;stroke-miterlimit:4;stroke-dasharray:none;stroke-dashoffset:0;stroke-opacity:1;paint-order:markers fill stroke" />
      <rect
         ry="0.50790626"
         rx="0.86225861"
         y="214.43053"
         x="-41.699932"
         height="1.3825438"
         width="1.7992445"
         id="rect1871"
         style="opacity:1;fill:#ffffff;fill-opacity:1;stroke:#000000;stroke-width:0.27599999;stroke-linecap:round;stroke-linejoin:round;stroke-miterlimit:4;stroke-dasharray:none;stroke-dashoffset:0;stroke-opacity:1;paint-order:markers fill stroke" />
      <rect
         style="opacity:1;fill:#ffffff;fill-opacity:1;stroke:#000000;stroke-width:0.27599999;stroke-linecap:round;stroke-linejoin:round;stroke-miterlimit:4;stroke-dasharray:none;stroke-dashoffset:0;stroke-opacity:1;paint-order:markers fill stroke"
         id="rect1863"
         width="3.8573568"
         height="0.46661162"
         x="-42.728989"
         y="214.28886"
         ry="0.86225826"
         rx="0.8622582" />
      <rect
         rx="0.8622582"
         ry="0.86225826"
         y="214.89792"
         x="-42.612656"
         height="0.42862791"
         width="3.6246972"
         id="rect1865"
         style="opacity:1;fill:#ffffff;fill-opacity:1;stroke:#000000;stroke-width:0.27599999;stroke-linecap:round;stroke-linejoin:round;stroke-miterlimit:4;stroke-dasharray:none;stroke-dashoffset:0;stroke-opacity:1;paint-order:markers fill stroke" />
    </g>
  </g>
</svg>
