<?xml version="1.0" encoding="UTF-8" standalone="no"?>
<svg
   xmlns:dc="http://purl.org/dc/elements/1.1/"
   xmlns:cc="http://creativecommons.org/ns#"
   xmlns:rdf="http://www.w3.org/1999/02/22-rdf-syntax-ns#"
   xmlns:svg="http://www.w3.org/2000/svg"
   xmlns="http://www.w3.org/2000/svg"
   xmlns:sodipodi="http://sodipodi.sourceforge.net/DTD/sodipodi-0.dtd"
   xmlns:inkscape="http://www.inkscape.org/namespaces/inkscape"
   width="84.852982"
   height="84.852982"
   viewBox="0 0 8.6889453 8.6889453"
   preserveAspectRatio="xMinYMin meet"
   version="1.1"
   id="svg4"
   sodipodi:docname="git_svg.svg"
   inkscape:version="0.92.4 (5da689c313, 2019-01-14)">
  <metadata
     id="metadata10">
    <rdf:RDF>
      <cc:Work
         rdf:about="">
        <dc:format>image/svg+xml</dc:format>
        <dc:type
           rdf:resource="http://purl.org/dc/dcmitype/StillImage" />
        <dc:title></dc:title>
      </cc:Work>
    </rdf:RDF>
  </metadata>
  <defs
     id="defs8">
    <filter
       inkscape:collect="always"
       style="color-interpolation-filters:sRGB"
       id="filter1341"
       x="-0.035999998"
       width="1.072"
       y="-0.035999998"
       height="1.072">
      <feGaussianBlur
         inkscape:collect="always"
         stdDeviation="0.22360249"
         id="feGaussianBlur1343" />
    </filter>
  </defs>
  <sodipodi:namedview
     pagecolor="#ffffff"
     bordercolor="#666666"
     borderopacity="1"
     objecttolerance="10"
     gridtolerance="10"
     guidetolerance="10"
     inkscape:pageopacity="0"
     inkscape:pageshadow="2"
     inkscape:window-width="1366"
     inkscape:window-height="705"
     id="namedview6"
     showgrid="false"
     inkscape:zoom="1.5104"
     inkscape:cx="68.331302"
     inkscape:cy="20.016453"
     inkscape:window-x="-8"
     inkscape:window-y="-8"
     inkscape:window-maximized="1"
     inkscape:current-layer="svg4" />
  <rect
     rx="1.213828"
     style="opacity:1;fill:#666666;fill-opacity:1;stroke:none;stroke-width:0.50331002;stroke-linecap:round;stroke-linejoin:round;stroke-miterlimit:4;stroke-dasharray:none;stroke-dashoffset:0;stroke-opacity:0.50196078;paint-order:fill markers stroke;filter:url(#filter1341)"
     id="rect1494"
     width="14.906833"
     height="14.906833"
     x="91.071602"
     y="-119.73991"
     transform="matrix(0.27186724,0.27186724,-0.27186724,0.27186724,-52.96827,8.0857657)"
     ry="1.213828" />
  <rect
     style="opacity:1;fill:#de4c36;fill-opacity:1;stroke:#303030;stroke-width:0.19351181;stroke-linecap:round;stroke-linejoin:round;stroke-miterlimit:4;stroke-dasharray:none;stroke-dashoffset:0;stroke-opacity:1;paint-order:fill markers stroke"
     id="rect1533"
     width="5.3360882"
     height="5.3360882"
     x="-2.6680489"
     y="-8.8120584"
     transform="rotate(135)"
     ry="0.46669048"
     rx="0.46669048" />
  <path
     inkscape:connector-curvature="0"
     id="path1498"
     d="m 4.3443996,1.2778057 -10e-6,6.13319 c 0.10361,0 0.20723,-0.0397 0.28661,-0.11909 l 2.66109,-2.6609 c 0.15878,-0.15877 0.15878,-0.41444 0,-0.57321 l -2.66109,-2.66091 c -0.0794,-0.0794 -0.183,-0.11908 -0.2866,-0.11908 z"
     style="opacity:1;fill:#e2614d;fill-opacity:1;stroke:none;stroke-width:0.19351183;stroke-linecap:round;stroke-linejoin:round;stroke-miterlimit:4;stroke-dasharray:none;stroke-dashoffset:0;stroke-opacity:1;paint-order:fill markers stroke" />
  <path
     style="opacity:1;fill:#ffffff;fill-opacity:1;stroke:none;stroke-width:0.19351181;stroke-linecap:round;stroke-linejoin:round;stroke-miterlimit:4;stroke-dasharray:none;stroke-dashoffset:0;stroke-opacity:1;paint-order:fill markers stroke"
     d="m 4.3397096,2.7723957 c -0.15785,-0.15787 -0.38538,-0.20249 -0.58392,-0.13505 l -0.78376,-0.78376 -0.33135,0.33135 0.77174,0.77174 c -0.0867,0.2069 -0.0467,0.45387 0.12134,0.62168 a 0.56087264,0.5630315 44.876639 0 0 0.18596,0.12375 l -0.004,2.03816 a 0.56886113,0.57105077 44.876926 0 0 -0.18654,0.12459 c -0.22265,0.22256 -0.22321,0.58266 -10e-4,0.80469 0.22153,0.22177 0.5817,0.22093 0.80441,-0.002 0.22265,-0.22288 0.22335,-0.58283 0.002,-0.80454 a 0.5736658,0.5758739 44.87652 0 0 -0.15034,-0.10733 l 0.004,-2.01935 0.7658,0.76579 c -0.085,0.20609 -0.0441,0.45157 0.12275,0.61858 0.22197,0.22189 0.58185,0.22118 0.80455,-0.002 0.22266,-0.22271 0.2235,-0.5827 0.002,-0.80441 -0.15869,-0.15898 -0.38839,-0.20289 -0.5876,-0.13392 l -0.82138,-0.82138 c 0.0691,-0.19919 0.025,-0.42844 -0.13364,-0.58732 z"
     id="rect1496"
     inkscape:connector-curvature="0" />
  <path
     inkscape:connector-curvature="0"
     style="opacity:1;fill:#ececec;fill-opacity:1;stroke:none;stroke-width:0.19351183;stroke-linecap:round;stroke-linejoin:round;stroke-miterlimit:4;stroke-dasharray:none;stroke-dashoffset:0;stroke-opacity:1;paint-order:fill markers stroke"
     d="m 2.9719796,1.8535957 -0.3314,0.3314 0.7718,0.7716 c -0.0867,0.20691 -0.0466,0.45399 0.1214,0.6218 a 0.56087265,0.5630315 44.876639 0 0 0.186,0.1238 l -0.004,2.038 a 0.56886113,0.57105077 44.876926 0 0 -0.1866,0.1246 c -0.22265,0.22256 -0.22317,0.58277 -10e-4,0.8048 0.22153,0.22177 0.5817,0.22078 0.8044,-0.002 0.004,-0.004 0.008,-0.009 0.0122,-0.0134 v -0.7794 c -0.004,-0.004 -0.007,-0.008 -0.0104,-0.0116 a 0.5736658,0.57587391 44.87652 0 0 -0.1504,-0.1074 l 0.004,-2.0194 0.1568,0.1568 v -1.1156 c -0.002,-0.002 -0.003,-0.004 -0.005,-0.005 -0.15785,-0.15787 -0.38544,-0.20243 -0.58399,-0.135 z"
     id="path1541" />
</svg>
