<?xml version="1.0" encoding="UTF-8" standalone="no"?>
<!-- Created with Inkscape (http://www.inkscape.org/) -->

<svg
   xmlns:dc="http://purl.org/dc/elements/1.1/"
   xmlns:cc="http://creativecommons.org/ns#"
   xmlns:rdf="http://www.w3.org/1999/02/22-rdf-syntax-ns#"
   xmlns:svg="http://www.w3.org/2000/svg"
   xmlns="http://www.w3.org/2000/svg"
   xmlns:sodipodi="http://sodipodi.sourceforge.net/DTD/sodipodi-0.dtd"
   xmlns:inkscape="http://www.inkscape.org/namespaces/inkscape"
   width="11.906364mm"
   height="15.875021mm"
   viewBox="0 0 11.906365 15.875021"
   version="1.1"
   id="svg1106"
   inkscape:version="0.92.4 (5da689c313, 2019-01-14)"
   sodipodi:docname="hand.svg">
  <defs
     id="defs1100">
    <filter
       inkscape:collect="always"
       style="color-interpolation-filters:sRGB"
       id="filter950-9">
      <feBlend
         inkscape:collect="always"
         mode="multiply"
         in2="BackgroundImage"
         id="feBlend952-3" />
    </filter>
    <filter
       inkscape:collect="always"
       style="color-interpolation-filters:sRGB"
       id="filter950">
      <feBlend
         inkscape:collect="always"
         mode="multiply"
         in2="BackgroundImage"
         id="feBlend952" />
    </filter>
  </defs>
  <sodipodi:namedview
     id="base"
     pagecolor="#ffffff"
     bordercolor="#666666"
     borderopacity="1.0"
     inkscape:pageopacity="0.0"
     inkscape:pageshadow="2"
     inkscape:zoom="3.959798"
     inkscape:cx="28.079369"
     inkscape:cy="43.526975"
     inkscape:document-units="mm"
     inkscape:current-layer="layer1"
     showgrid="false"
     inkscape:window-width="1366"
     inkscape:window-height="705"
     inkscape:window-x="-8"
     inkscape:window-y="-8"
     inkscape:window-maximized="1" />
  <metadata
     id="metadata1103">
    <rdf:RDF>
      <cc:Work
         rdf:about="">
        <dc:format>image/svg+xml</dc:format>
        <dc:type
           rdf:resource="http://purl.org/dc/dcmitype/StillImage" />
        <dc:title></dc:title>
      </cc:Work>
    </rdf:RDF>
  </metadata>
  <g
     inkscape:label="Layer 1"
     inkscape:groupmode="layer"
     id="layer1"
     transform="translate(-40.339345,-524.42675)">
    <path
       style="display:inline;opacity:1;fill:none;fill-opacity:1;stroke:#ffffff;stroke-width:2.28833652;stroke-linecap:round;stroke-linejoin:round;stroke-miterlimit:4;stroke-dasharray:none;stroke-dashoffset:0;stroke-opacity:1;paint-order:stroke fill markers;filter:url(#filter950-9);enable-background:new"
       d="M 10.470703,-0.94133481 C 7.0805964,-0.85803671 3.9458017,0.45026189 2.1621094,2.7696028 -6.3656428,13.858266 13.712774,33.878144 24.476562,40.681641 35.240351,33.878144 55.318768,13.858266 46.791016,2.7696028 45.007323,0.45026189 41.872529,-0.85803671 38.482422,-0.94133481 32.832244,-1.0801647 26.473497,2.1837104 24.476562,9.836009 22.479628,2.1837104 16.120881,-1.0801647 10.470703,-0.94133481 Z"
       transform="matrix(0.20356842,0,0,0.23452522,41.309872,525.62477)"
       id="rect3650-6"
       inkscape:connector-curvature="0"
       sodipodi:nodetypes="sscsscs" />
    <path
       style="display:inline;opacity:1;fill:none;stroke:#ffffff;stroke-width:2.04057479;stroke-linecap:butt;stroke-linejoin:miter;stroke-miterlimit:4;stroke-dasharray:none;stroke-opacity:1;filter:url(#filter950);enable-background:new"
       d="M 46.820915,17.655517 44.925897,4.9952328 h -3.625133 c 0,0 -2.149493,-3.230324 -5.174665,-3.230324 -3.02521,0 -14.521399,5.492031 -14.521399,5.492031 0,0 -14.9512819,-5.195376 -16.8649323,-2.592907 -1.5126047,2.64703 1.008378,4.411729 1.008378,4.411729 0,0 12.8570463,10.2100162 16.3864443,10.3360632 3.529399,0.126237 15.378066,-5.29406 17.899049,-5.29406 2.520983,0 6.787276,3.537752 6.787276,3.537752 z"
       id="path1677"
       inkscape:connector-curvature="0"
       sodipodi:nodetypes="cccsccccsc"
       transform="matrix(0.22996113,0,0,0.26108414,40.419623,534.77229)" />
    <path
       style="fill:none;stroke:#ffffff;stroke-width:0.49999997;stroke-linecap:round;stroke-linejoin:miter;stroke-miterlimit:4;stroke-dasharray:none;stroke-opacity:1"
       d="m 45.387862,536.667 c -0.0019,-2.6e-4 -0.920451,0.56447 -0.763073,0.9555 0.366371,0.91036 1.778043,0.32638 2.644,-0.0687"
       id="path1743"
       inkscape:connector-curvature="0"
       sodipodi:nodetypes="cac" />
  </g>
</svg>
