<?xml version="1.0" encoding="UTF-8" standalone="no"?>
<!-- Created with Inkscape (http://www.inkscape.org/) -->

<svg
   xmlns:dc="http://purl.org/dc/elements/1.1/"
   xmlns:cc="http://creativecommons.org/ns#"
   xmlns:rdf="http://www.w3.org/1999/02/22-rdf-syntax-ns#"
   xmlns:svg="http://www.w3.org/2000/svg"
   xmlns="http://www.w3.org/2000/svg"
   xmlns:sodipodi="http://sodipodi.sourceforge.net/DTD/sodipodi-0.dtd"
   xmlns:inkscape="http://www.inkscape.org/namespaces/inkscape"
   width="234.43864mm"
   height="78.822716mm"
   viewBox="0 0 234.43865 78.822715"
   version="1.1"
   id="svg3313"
   inkscape:version="0.92.4 (5da689c313, 2019-01-14)"
   sodipodi:docname="html1.svg">
  <defs
     id="defs3307" />
  <sodipodi:namedview
     id="base"
     pagecolor="#ffffff"
     bordercolor="#666666"
     borderopacity="1.0"
     inkscape:pageopacity="0.0"
     inkscape:pageshadow="2"
     inkscape:zoom="0.48151725"
     inkscape:cx="328.85831"
     inkscape:cy="-3267.8276"
     inkscape:document-units="mm"
     inkscape:current-layer="layer1"
     showgrid="true"
     inkscape:window-width="1366"
     inkscape:window-height="705"
     inkscape:window-x="-8"
     inkscape:window-y="-8"
     inkscape:window-maximized="1"
     showguides="true"
     inkscape:guide-bbox="true">
    <inkscape:grid
       type="xygrid"
       id="grid3860"
       originx="2092.2488"
       originy="2290.4325" />
  </sodipodi:namedview>
  <metadata
     id="metadata3310">
    <rdf:RDF>
      <cc:Work
         rdf:about="">
        <dc:format>image/svg+xml</dc:format>
        <dc:type
           rdf:resource="http://purl.org/dc/dcmitype/StillImage" />
        <dc:title />
      </cc:Work>
    </rdf:RDF>
  </metadata>
  <g
     inkscape:label="Layer 1"
     inkscape:groupmode="layer"
     id="layer1"
     transform="translate(2251.6813,-2505.5124)">
    <flowRoot
       xml:space="preserve"
       id="flowRoot4598"
       style="font-style:normal;font-variant:normal;font-weight:normal;font-stretch:normal;font-size:40px;line-height:1.25;font-family:'Times New Roman';-inkscape-font-specification:'Times New Roman, ';letter-spacing:0px;word-spacing:0px;fill:#000000;fill-opacity:1;stroke:none"><flowRegion
         id="flowRegion4600"
         style="font-style:normal;font-variant:normal;font-weight:normal;font-stretch:normal;font-family:'Times New Roman';-inkscape-font-specification:'Times New Roman, '"><rect
           id="rect4602"
           width="1045.7142"
           height="411.42856"
           x="-7337.1431"
           y="7245.4365"
           style="font-style:normal;font-variant:normal;font-weight:normal;font-stretch:normal;font-family:'Times New Roman';-inkscape-font-specification:'Times New Roman, '" /></flowRegion><flowPara
         id="flowPara4604" /></flowRoot>    <flowRoot
       xml:space="preserve"
       id="flowRoot4748"
       style="font-style:italic;font-variant:normal;font-weight:normal;font-stretch:normal;font-size:40px;line-height:1.25;font-family:'Times New Roman';-inkscape-font-specification:'Times New Roman, Italic';letter-spacing:0px;word-spacing:0px;fill:#000000;fill-opacity:1;stroke:none"><flowRegion
         id="flowRegion4750"><rect
           id="rect4752"
           width="409.375"
           height="53.125"
           x="-4071.875"
           y="6803.6509" /></flowRegion><flowPara
         id="flowPara4754" /></flowRoot>    <flowRoot
       xml:space="preserve"
       id="flowRoot4756"
       style="font-style:normal;font-variant:normal;font-weight:bold;font-stretch:normal;font-size:40px;line-height:1.25;font-family:'Times New Roman';-inkscape-font-specification:'Times New Roman,  Bold';letter-spacing:0px;word-spacing:0px;fill:#000000;fill-opacity:1;stroke:none"><flowRegion
         id="flowRegion4758"
         style="font-style:normal;font-variant:normal;font-weight:bold;font-stretch:normal;font-family:'Times New Roman';-inkscape-font-specification:'Times New Roman,  Bold'"><rect
           id="rect4760"
           width="6399.3164"
           height="3093.5923"
           x="-9475.2305"
           y="9500.1758"
           style="font-style:normal;font-variant:normal;font-weight:bold;font-stretch:normal;font-family:'Times New Roman';-inkscape-font-specification:'Times New Roman,  Bold'" /></flowRegion><flowPara
         id="flowPara4762" /></flowRoot>    <flowRoot
       xml:space="preserve"
       id="flowRoot4764"
       style="font-style:italic;font-variant:normal;font-weight:normal;font-stretch:normal;font-size:40px;line-height:1.25;font-family:'Times New Roman';-inkscape-font-specification:'Times New Roman, Italic';letter-spacing:0px;word-spacing:0px;fill:#000000;fill-opacity:1;stroke:none"><flowRegion
         id="flowRegion4766"><rect
           id="rect4768"
           width="43.75"
           height="43.75"
           x="-8206.25"
           y="10122.401" /></flowRegion><flowPara
         id="flowPara4770" /></flowRoot>    <g
       id="g2083"
       transform="matrix(0.22725187,0,0,0.26458342,-1671.7353,2244.5626)">
      <g
         transform="translate(2.5483398)"
         id="g1903">
        <rect
           style="opacity:1;fill:none;fill-opacity:1;stroke:#333333;stroke-width:1.91999996;stroke-linecap:butt;stroke-linejoin:round;stroke-miterlimit:4;stroke-dasharray:none;stroke-dashoffset:0;stroke-opacity:1;paint-order:fill markers stroke"
           id="rect1631"
           width="47.325111"
           height="48.079998"
           x="-2165.1311"
           y="3002.6785"
           ry="12.821366" />
        <text
           transform="scale(1.14837,0.87079949)"
           id="text1653"
           y="3489.0449"
           x="-1877.8562"
           style="font-style:normal;font-variant:normal;font-weight:bold;font-stretch:normal;font-size:40.0302124px;line-height:1.25;font-family:'Times New Roman';-inkscape-font-specification:'Times New Roman, Bold';letter-spacing:0px;word-spacing:0px;fill:#333333;fill-opacity:1;stroke:#333333;stroke-width:1.91999948;stroke-miterlimit:4;stroke-dasharray:none;stroke-opacity:1"
           xml:space="preserve"><tspan
             style="fill:#333333;fill-opacity:1;stroke:#333333;stroke-width:1.91999948;stroke-miterlimit:4;stroke-dasharray:none;stroke-opacity:1"
             y="3489.0449"
             x="-1877.8562"
             id="tspan1651"
             sodipodi:role="line">B</tspan></text>
      </g>
      <g
         id="g1665"
         transform="matrix(0.99370116,0,0,1.0325225,-0.83099733,399.60896)"
         style="fill:#1dce98;fill-opacity:1;stroke-width:0.98723906">
        <circle
           r="2.5135417"
           cy="2524.7153"
           cx="-2120.4834"
           id="circle1655"
           style="opacity:1;fill:#1dce98;fill-opacity:1;stroke:none;stroke-width:0.19744782;stroke-linecap:round;stroke-linejoin:round;stroke-miterlimit:4;stroke-dasharray:none;stroke-dashoffset:0;stroke-opacity:1;paint-order:fill markers stroke" />
        <circle
           style="opacity:1;fill:#1dce98;fill-opacity:1;stroke:none;stroke-width:0.19744782;stroke-linecap:round;stroke-linejoin:round;stroke-miterlimit:4;stroke-dasharray:none;stroke-dashoffset:0;stroke-opacity:1;paint-order:fill markers stroke"
           id="circle1657"
           cx="-2120.6157"
           cy="2564.0059"
           r="2.5135417" />
        <circle
           style="opacity:1;fill:#1dce98;fill-opacity:1;stroke:none;stroke-width:0.19744782;stroke-linecap:round;stroke-linejoin:round;stroke-miterlimit:4;stroke-dasharray:none;stroke-dashoffset:0;stroke-opacity:1;paint-order:fill markers stroke"
           id="circle1659"
           cx="-2120.3511"
           cy="2534.5378"
           r="2.5135417" />
        <circle
           r="2.5135417"
           cy="2544.3606"
           cx="-2120.4834"
           id="circle1661"
           style="opacity:1;fill:#1dce98;fill-opacity:1;stroke:none;stroke-width:0.19744782;stroke-linecap:round;stroke-linejoin:round;stroke-miterlimit:4;stroke-dasharray:none;stroke-dashoffset:0;stroke-opacity:1;paint-order:fill markers stroke" />
        <circle
           style="opacity:1;fill:#1dce98;fill-opacity:1;stroke:none;stroke-width:0.19744782;stroke-linecap:round;stroke-linejoin:round;stroke-miterlimit:4;stroke-dasharray:none;stroke-dashoffset:0;stroke-opacity:1;paint-order:fill markers stroke"
           id="circle1663"
           cx="-2120.3511"
           cy="2554.1833"
           r="2.5135417" />
      </g>
    </g>
    <g
       id="g2099"
       transform="matrix(0.22725187,0,0,0.26458342,-1671.7351,2293.6572)">
      <g
         id="g1898">
        <rect
           ry="12.821366"
           y="3069.4355"
           x="-2162.5828"
           height="48.079998"
           width="47.325111"
           id="rect1732"
           style="opacity:1;fill:none;fill-opacity:1;stroke:#333333;stroke-width:1.91999996;stroke-linecap:butt;stroke-linejoin:round;stroke-miterlimit:4;stroke-dasharray:none;stroke-dashoffset:0;stroke-opacity:1;paint-order:fill markers stroke" />
        <g
           id="g1877"
           transform="matrix(0.99851434,0,0,1.0018538,-74.76315,57.93701)"
           style="stroke-width:0.99981737">
          <path
             inkscape:connector-curvature="0"
             class="st0"
             d="m -2056.2242,3034.9228 h -19.9211 c -1.0332,0 -1.8805,-0.6938 -1.8805,-1.54 v -13.4378 c 0,-0.8462 0.8473,-1.5402 1.8805,-1.5402 h 19.9211 c 1.0333,0 1.8805,0.694 1.8805,1.5402 v 13.4378 c 0,0.863 -0.8472,1.54 -1.8805,1.54 z"
             id="path4"
             style="fill:#ffffff;fill-opacity:0.94117647;stroke:#333333;stroke-width:1.91964948;stroke-miterlimit:4;stroke-dasharray:none;stroke-opacity:1" />
          <path
             inkscape:connector-curvature="0"
             class="st1"
             d="m -2064.5176,3038.0707 h -1.2175 c -0.2965,0 -0.5464,-0.2707 -0.5464,-0.5923 v -2.3186 h 2.3103 v 2.3186 c 0,0.3384 -0.2497,0.5923 -0.5464,0.5923 z"
             id="path6"
             style="fill:#333333;fill-opacity:1;stroke:#333333;stroke-width:1.91964948;stroke-miterlimit:4;stroke-dasharray:none;stroke-opacity:1" />
          <path
             inkscape:connector-curvature="0"
             class="st1"
             d="m -2062.713,3039.6279 h -5.0009 c -0.4132,0 -0.7439,-0.2709 -0.7439,-0.6093 v 0 c 0,-0.3386 0.3307,-0.6093 0.7439,-0.6093 h 5.0009 c 0.4134,0 0.744,0.2707 0.744,0.6093 v 0 c 0,0.3384 -0.3306,0.6093 -0.744,0.6093 z"
             id="path10"
             style="fill:#4a4843;fill-opacity:1;stroke:#333333;stroke-width:1.91964948;stroke-miterlimit:4;stroke-dasharray:none;stroke-opacity:1" />
          <path
             inkscape:connector-curvature="0"
             class="st7"
             d="m -2071.2683,3041.4387 h -7.8734 c -1.1986,0 -2.1491,-0.7954 -2.1491,-1.7601 v -12.1177 c 0,-0.9817 0.9713,-1.7602 2.1491,-1.7602 h 7.8734 c 1.1985,0 2.1493,0.7954 2.1493,1.7602 v 12.1177 c 0,0.9815 -0.9508,1.7601 -2.1493,1.7601 z"
             id="path42"
             style="fill:#fcfcfc;fill-opacity:1;stroke:#333333;stroke-width:1.91964948;stroke-miterlimit:4;stroke-dasharray:none;stroke-opacity:1" />
          <path
             inkscape:connector-curvature="0"
             class="st6"
             d="m -2054.8396,3041.0664 h -3.6784 c -0.9299,0 -1.6739,-0.6093 -1.6739,-1.3709 v -9.0375 c 0,-0.7617 0.744,-1.3708 1.6739,-1.3708 h 3.6784 c 0.9298,0 1.6739,0.6091 1.6739,1.3708 v 9.0375 c 0,0.7616 -0.7646,1.3709 -1.6739,1.3709 z"
             id="path28"
             style="fill:#ffffff;fill-opacity:1;stroke:#333333;stroke-width:1.91964948;stroke-miterlimit:4;stroke-dasharray:none;stroke-opacity:1" />
        </g>
      </g>
      <g
         style="fill:#1dce98;fill-opacity:1;stroke-width:0.98723906"
         transform="matrix(0.99370116,0,0,1.0325225,-0.83099733,466.36598)"
         id="g1915">
        <circle
           style="opacity:1;fill:#1dce98;fill-opacity:1;stroke:none;stroke-width:0.19744782;stroke-linecap:round;stroke-linejoin:round;stroke-miterlimit:4;stroke-dasharray:none;stroke-dashoffset:0;stroke-opacity:1;paint-order:fill markers stroke"
           id="circle1905"
           cx="-2120.4834"
           cy="2524.7153"
           r="2.5135417" />
        <circle
           r="2.5135417"
           cy="2564.0059"
           cx="-2120.6157"
           id="circle1907"
           style="opacity:1;fill:#1dce98;fill-opacity:1;stroke:none;stroke-width:0.19744782;stroke-linecap:round;stroke-linejoin:round;stroke-miterlimit:4;stroke-dasharray:none;stroke-dashoffset:0;stroke-opacity:1;paint-order:fill markers stroke" />
        <circle
           r="2.5135417"
           cy="2534.5378"
           cx="-2120.3511"
           id="circle1909"
           style="opacity:1;fill:#1dce98;fill-opacity:1;stroke:none;stroke-width:0.19744782;stroke-linecap:round;stroke-linejoin:round;stroke-miterlimit:4;stroke-dasharray:none;stroke-dashoffset:0;stroke-opacity:1;paint-order:fill markers stroke" />
        <circle
           style="opacity:1;fill:#1dce98;fill-opacity:1;stroke:none;stroke-width:0.19744782;stroke-linecap:round;stroke-linejoin:round;stroke-miterlimit:4;stroke-dasharray:none;stroke-dashoffset:0;stroke-opacity:1;paint-order:fill markers stroke"
           id="circle1911"
           cx="-2120.4834"
           cy="2544.3606"
           r="2.5135417" />
        <circle
           r="2.5135417"
           cy="2554.1833"
           cx="-2120.3511"
           id="circle1913"
           style="opacity:1;fill:#1dce98;fill-opacity:1;stroke:none;stroke-width:0.19744782;stroke-linecap:round;stroke-linejoin:round;stroke-miterlimit:4;stroke-dasharray:none;stroke-dashoffset:0;stroke-opacity:1;paint-order:fill markers stroke" />
      </g>
    </g>
    <g
       id="g2115"
       transform="matrix(0.22725207,0,0,0.2645834,-1671.7347,2341.3245)">
      <g
         transform="translate(-137.45366,131.36516)"
         id="g1924">
        <path
           id="path1390"
           style="opacity:1;fill:none;fill-opacity:1;stroke:#333333;stroke-width:1.91990232;stroke-linecap:round;stroke-linejoin:miter;stroke-miterlimit:4;stroke-dasharray:none;stroke-dashoffset:0;stroke-opacity:1;paint-order:fill markers stroke"
           d="m -1990.3492,3003.0226 v 10.7967 h 12.3132 v -5.8812 c 0,-2.7233 -2.6571,-4.9155 -5.9574,-4.9155 z m -27.496,-0.1355 h 32.7573 c 4.0352,0 7.2839,2.6805 7.2839,6.01 v 36.0601 c 0,3.3295 -3.2487,6.01 -7.2839,6.01 h -32.7573 c -4.0351,0 -7.2839,-2.6805 -7.2839,-6.01 v -36.0601 c 0,-3.3295 3.2488,-6.01 7.2839,-6.01 z"
           inkscape:connector-curvature="0" />
        <g
           id="g1452"
           transform="matrix(1.6799156,0,0,2.1243575,1595.8924,-3045.8241)"
           style="stroke-width:0.52934945">
          <ellipse
             ry="1.5469049"
             rx="2.6701386"
             cy="2855.0996"
             cx="-2144.907"
             id="path1434"
             style="opacity:1;fill:#333333;fill-opacity:1;stroke:#333333;stroke-width:1.01635087;stroke-linecap:butt;stroke-linejoin:round;stroke-miterlimit:4;stroke-dasharray:none;stroke-dashoffset:0;stroke-opacity:1;paint-order:fill markers stroke" />
          <path
             sodipodi:nodetypes="ccccc"
             inkscape:connector-curvature="0"
             id="rect1436"
             d="m -2149.3952,2852.9095 13.5252,4.8056 v 1.3229 l -14.2875,-5.0271 z"
             style="opacity:1;fill:#333333;fill-opacity:1;stroke:#333333;stroke-width:0.32819661;stroke-linecap:butt;stroke-linejoin:round;stroke-miterlimit:4;stroke-dasharray:none;stroke-dashoffset:0;stroke-opacity:1;paint-order:fill markers stroke" />
          <ellipse
             ry="1.5469049"
             rx="2.6701386"
             style="opacity:1;fill:#333333;fill-opacity:1;stroke:#333333;stroke-width:1.01635087;stroke-linecap:butt;stroke-linejoin:round;stroke-miterlimit:4;stroke-dasharray:none;stroke-dashoffset:0;stroke-opacity:1;paint-order:fill markers stroke"
             id="circle1438"
             cx="-2135.6421"
             cy="2858.3931" />
          <rect
             style="opacity:1;fill:#333333;fill-opacity:1;stroke:#333333;stroke-width:0.32819661;stroke-linecap:butt;stroke-linejoin:round;stroke-miterlimit:4;stroke-dasharray:none;stroke-dashoffset:0;stroke-opacity:1;paint-order:fill markers stroke"
             id="rect1440"
             width="7.3132391"
             height="1.8033592"
             x="2854.999"
             y="2143.9854"
             transform="rotate(90)" />
          <ellipse
             ry="1.5469049"
             rx="2.6701386"
             cy="2862.4587"
             cx="-2144.887"
             id="circle1442"
             style="opacity:1;fill:#333333;fill-opacity:1;stroke:#333333;stroke-width:1.01635087;stroke-linecap:butt;stroke-linejoin:round;stroke-miterlimit:4;stroke-dasharray:none;stroke-dashoffset:0;stroke-opacity:1;paint-order:fill markers stroke" />
        </g>
      </g>
      <g
         id="g1936"
         transform="matrix(0.99370116,0,0,1.0325225,-0.83099733,531.18275)"
         style="fill:#1dce98;fill-opacity:1;stroke-width:0.98723906">
        <circle
           r="2.5135417"
           cy="2524.7153"
           cx="-2120.4834"
           id="circle1926"
           style="opacity:1;fill:#1dce98;fill-opacity:1;stroke:none;stroke-width:0.19744782;stroke-linecap:round;stroke-linejoin:round;stroke-miterlimit:4;stroke-dasharray:none;stroke-dashoffset:0;stroke-opacity:1;paint-order:fill markers stroke" />
        <circle
           style="opacity:1;fill:#1dce98;fill-opacity:1;stroke:none;stroke-width:0.19744782;stroke-linecap:round;stroke-linejoin:round;stroke-miterlimit:4;stroke-dasharray:none;stroke-dashoffset:0;stroke-opacity:1;paint-order:fill markers stroke"
           id="circle1928"
           cx="-2120.6157"
           cy="2564.0059"
           r="2.5135417" />
        <circle
           style="opacity:1;fill:#1dce98;fill-opacity:1;stroke:none;stroke-width:0.19744782;stroke-linecap:round;stroke-linejoin:round;stroke-miterlimit:4;stroke-dasharray:none;stroke-dashoffset:0;stroke-opacity:1;paint-order:fill markers stroke"
           id="circle1930"
           cx="-2120.3511"
           cy="2534.5378"
           r="2.5135417" />
        <circle
           r="2.5135417"
           cy="2544.3606"
           cx="-2120.4834"
           id="circle1932"
           style="opacity:1;fill:#1dce98;fill-opacity:1;stroke:none;stroke-width:0.19744782;stroke-linecap:round;stroke-linejoin:round;stroke-miterlimit:4;stroke-dasharray:none;stroke-dashoffset:0;stroke-opacity:1;paint-order:fill markers stroke" />
        <circle
           style="opacity:1;fill:#1dce98;fill-opacity:1;stroke:none;stroke-width:0.19744782;stroke-linecap:round;stroke-linejoin:round;stroke-miterlimit:4;stroke-dasharray:none;stroke-dashoffset:0;stroke-opacity:1;paint-order:fill markers stroke"
           id="circle1934"
           cx="-2120.3511"
           cy="2554.1833"
           r="2.5135417" />
      </g>
    </g>
    <g
       id="g2129"
       transform="matrix(0.22725186,0,0,0.26458342,-1671.7351,2395.2424)">
      <g
         transform="translate(-3.1999532,-12.170835)"
         id="g1943">
        <g
           id="g1718"
           transform="matrix(1.0699231,0.23825347,-0.28668503,0.88917405,1044.4247,992.14877)"
           style="stroke-width:0.99031681">
          <circle
             transform="rotate(-60)"
             r="7.6140776"
             cy="-307.62625"
             cx="-3759.6746"
             id="path1678"
             style="opacity:1;fill:none;fill-opacity:1;stroke:#333333;stroke-width:1.90140808;stroke-linecap:butt;stroke-linejoin:round;stroke-miterlimit:4;stroke-dasharray:none;stroke-dashoffset:0;stroke-opacity:1;paint-order:fill markers stroke" />
          <rect
             transform="rotate(-60)"
             y="-300.01199"
             x="-3760.7354"
             height="2.5380023"
             width="2.1212842"
             id="rect1680"
             style="opacity:1;fill:none;fill-opacity:1;stroke:#333333;stroke-width:1.90140808;stroke-linecap:butt;stroke-linejoin:round;stroke-miterlimit:4;stroke-dasharray:none;stroke-dashoffset:0;stroke-opacity:1;paint-order:fill markers stroke" />
          <rect
             transform="rotate(-60)"
             y="-297.4744"
             x="-3761.791"
             height="12.690197"
             width="4.1289291"
             id="rect1682"
             style="opacity:1;fill:none;fill-opacity:1;stroke:#333333;stroke-width:1.90140808;stroke-linecap:butt;stroke-linejoin:round;stroke-miterlimit:4;stroke-dasharray:none;stroke-dashoffset:0;stroke-opacity:1;paint-order:fill markers stroke" />
        </g>
        <rect
           style="opacity:1;fill:none;fill-opacity:1;stroke:#333333;stroke-width:1.91999996;stroke-linecap:butt;stroke-linejoin:round;stroke-miterlimit:4;stroke-dasharray:none;stroke-dashoffset:0;stroke-opacity:1;paint-order:fill markers stroke"
           id="rect1836"
           width="47.325111"
           height="48.079998"
           x="-2159.3828"
           y="3219.7393"
           ry="12.821366" />
      </g>
      <g
         style="fill:#1dce98;fill-opacity:1;stroke-width:0.98723906"
         transform="matrix(0.99370116,0,0,1.0325225,-0.83099733,604.49886)"
         id="g1955">
        <circle
           style="opacity:1;fill:#1dce98;fill-opacity:1;stroke:none;stroke-width:0.19744782;stroke-linecap:round;stroke-linejoin:round;stroke-miterlimit:4;stroke-dasharray:none;stroke-dashoffset:0;stroke-opacity:1;paint-order:fill markers stroke"
           id="circle1945"
           cx="-2120.4834"
           cy="2524.7153"
           r="2.5135417" />
        <circle
           r="2.5135417"
           cy="2564.0059"
           cx="-2120.6157"
           id="circle1947"
           style="opacity:1;fill:#1dce98;fill-opacity:1;stroke:none;stroke-width:0.19744782;stroke-linecap:round;stroke-linejoin:round;stroke-miterlimit:4;stroke-dasharray:none;stroke-dashoffset:0;stroke-opacity:1;paint-order:fill markers stroke" />
        <circle
           r="2.5135417"
           cy="2534.5378"
           cx="-2120.3511"
           id="circle1949"
           style="opacity:1;fill:#1dce98;fill-opacity:1;stroke:none;stroke-width:0.19744782;stroke-linecap:round;stroke-linejoin:round;stroke-miterlimit:4;stroke-dasharray:none;stroke-dashoffset:0;stroke-opacity:1;paint-order:fill markers stroke" />
        <circle
           style="opacity:1;fill:#1dce98;fill-opacity:1;stroke:none;stroke-width:0.19744782;stroke-linecap:round;stroke-linejoin:round;stroke-miterlimit:4;stroke-dasharray:none;stroke-dashoffset:0;stroke-opacity:1;paint-order:fill markers stroke"
           id="circle1951"
           cx="-2120.4834"
           cy="2544.3606"
           r="2.5135417" />
        <circle
           r="2.5135417"
           cy="2554.1833"
           cx="-2120.3511"
           id="circle1953"
           style="opacity:1;fill:#1dce98;fill-opacity:1;stroke:none;stroke-width:0.19744782;stroke-linecap:round;stroke-linejoin:round;stroke-miterlimit:4;stroke-dasharray:none;stroke-dashoffset:0;stroke-opacity:1;paint-order:fill markers stroke" />
      </g>
    </g>
    <g
       id="g2071"
       transform="matrix(0.22723247,0,0,0.26457553,-1671.8231,2192.2919)">
      <g
         style="stroke-width:0.71276778"
         transform="matrix(1.3924644,0,0,1.4135782,851.60718,-1223.3922)"
         id="g1561">
        <path
           style="fill:#4391a7;stroke-width:0.18858646"
           inkscape:connector-curvature="0"
           id="path14"
           d="m -2136.5819,2947.2166 c 1.4816,1.4288 2.6458,3.175 3.4395,5.1065 0,-0.053 0.026,-0.079 0.026,-0.1059"
           class="st2" />
        <path
           style="fill:#333333;fill-opacity:1;stroke-width:0.18858646"
           inkscape:connector-curvature="0"
           id="path16"
           d="m -2131.4755,2949.3333 c -0.9277,-2.2243 -2.8344,-4.4638 -4.5353,-6.1092 -1.5773,0.3047 -2.2233,1.8746 -1.8213,3.5809 0.2474,1.036 0.6804,1.2492 2.0721,3.504 0.9585,1.5235 1.206,3.1384 1.1442,4.0829 -0.063,0.7313 -0.092,0.8837 -0.2474,1.4321 l -3.7111,11.6394 -8.6591,-18.9217 h 1.0205 c 0.6493,0 1.1751,-0.4265 1.1751,-0.9445 0,-0.518 -0.5258,-0.9446 -1.1751,-0.9446 h -7.2985 c -0.6494,0 -1.1752,0.4266 -1.1752,0.9446 0,0.518 0.5258,0.9445 1.1752,0.9445 h 1.8556 l 3.4018,7.465 -3.8656,11.3043 -8.5356,-18.7693 h 0.835 c 0.6495,0 1.1753,-0.4265 1.1753,-0.9445 0,-0.518 -0.5308,-1.0248 -1.1753,-0.9446 l -2.4905,0.3099 c -0.6804,1.0665 -1.4684,2.5564 -1.8705,3.7446 l 9.8348,21.2963 c 0.6185,0.2437 1.268,0.457 1.9174,0.6398 l 5.0718,-14.6558 6.4016,14.016 c 0.8969,-0.3657 1.7627,-0.7922 2.5668,-1.2798 l 5.1646,-15.1127 c 0.804,-3.0166 1.0992,-3.9009 1.7487,-6.2775 z"
           class="st3"
           sodipodi:nodetypes="ccccccccssssssccccssscccccccccc" />
        <circle
           style="fill:none;stroke:#333333;stroke-width:0.94293231;stroke-miterlimit:10;stroke-opacity:1"
           id="circle4"
           cy="2956.4136"
           cx="-2147.6509"
           class="st0"
           r="17.214586" />
      </g>
      <g
         style="fill:#1dce98;fill-opacity:1;stroke-width:0.98723906"
         transform="matrix(0.99370116,0,0,1.0325225,-0.83099733,328.62002)"
         id="g1967">
        <circle
           style="opacity:1;fill:#1dce98;fill-opacity:1;stroke:none;stroke-width:0.19744782;stroke-linecap:round;stroke-linejoin:round;stroke-miterlimit:4;stroke-dasharray:none;stroke-dashoffset:0;stroke-opacity:1;paint-order:fill markers stroke"
           id="circle1957"
           cx="-2120.4834"
           cy="2524.7153"
           r="2.5135417" />
        <circle
           r="2.5135417"
           cy="2564.0059"
           cx="-2120.6157"
           id="circle1959"
           style="opacity:1;fill:#1dce98;fill-opacity:1;stroke:none;stroke-width:0.19744782;stroke-linecap:round;stroke-linejoin:round;stroke-miterlimit:4;stroke-dasharray:none;stroke-dashoffset:0;stroke-opacity:1;paint-order:fill markers stroke" />
        <circle
           r="2.5135417"
           cy="2534.5378"
           cx="-2120.3511"
           id="circle1961"
           style="opacity:1;fill:#1dce98;fill-opacity:1;stroke:none;stroke-width:0.19744782;stroke-linecap:round;stroke-linejoin:round;stroke-miterlimit:4;stroke-dasharray:none;stroke-dashoffset:0;stroke-opacity:1;paint-order:fill markers stroke" />
        <circle
           style="opacity:1;fill:#1dce98;fill-opacity:1;stroke:none;stroke-width:0.19744782;stroke-linecap:round;stroke-linejoin:round;stroke-miterlimit:4;stroke-dasharray:none;stroke-dashoffset:0;stroke-opacity:1;paint-order:fill markers stroke"
           id="circle1963"
           cx="-2120.4834"
           cy="2544.3606"
           r="2.5135417" />
        <circle
           r="2.5135417"
           cy="2554.1833"
           cx="-2120.3511"
           id="circle1965"
           style="opacity:1;fill:#1dce98;fill-opacity:1;stroke:none;stroke-width:0.19744782;stroke-linecap:round;stroke-linejoin:round;stroke-miterlimit:4;stroke-dasharray:none;stroke-dashoffset:0;stroke-opacity:1;paint-order:fill markers stroke" />
      </g>
    </g>
    <g
       id="g2142"
       transform="matrix(0.22725067,0,0,-0.26478011,-1671.7376,4191.1853)">
      <g
         transform="translate(-212.45296,266.85218)"
         id="g1973">
        <g
           aria-label="JS"
           transform="matrix(0.70201063,0,0,0.82685974,-2478.6247,2901.2336)"
           style="font-style:normal;font-variant:normal;font-weight:bold;font-stretch:normal;font-size:40px;line-height:1.25;font-family:'Times New Roman';-inkscape-font-specification:'Times New Roman, Bold';letter-spacing:0px;word-spacing:0px;fill:#333333;fill-opacity:1;stroke:#333333;stroke-width:2.52007461;stroke-miterlimit:4;stroke-dasharray:none;stroke-opacity:1"
           id="flowRoot1242">
          <path
             d="m 771.68359,139.48391 v -0.72266 h 14.08203 v 0.72266 h -0.85937 q -1.17188,0 -1.875,0.41015 -0.48828,0.27344 -0.78125,0.9375 -0.21484,0.46875 -0.21484,2.46094 v 12.96875 q 0,3.80859 -0.76172,5.54687 -0.76172,1.71875 -2.71485,2.89063 -1.93359,1.15234 -4.66797,1.15234 -3.33984,0 -5.41015,-1.75781 -2.05078,-1.75781 -2.05078,-3.88672 0,-1.36719 0.83984,-2.20703 0.83984,-0.85937 2.05078,-0.85937 1.19141,0 1.99219,0.76171 0.82031,0.76172 0.82031,1.875 0,0.54688 -0.13672,0.95704 -0.0781,0.19531 -0.625,0.99609 -0.52734,0.78125 -0.52734,1.11328 0,0.50781 0.50781,0.87891 0.74219,0.54687 1.9336,0.54687 0.83984,0 1.38671,-0.42969 0.54688,-0.42968 0.76172,-1.32812 0.23438,-0.91797 0.23438,-5.05859 V 143.2925 q 0,-2.03125 -0.23438,-2.53906 -0.21484,-0.50782 -0.8789,-0.87891 -0.64453,-0.39062 -1.75782,-0.39062 z"
             style="fill:#333333;fill-opacity:1;stroke:#333333;stroke-width:2.52007461;stroke-miterlimit:4;stroke-dasharray:none;stroke-opacity:1"
             id="path1255"
             inkscape:connector-curvature="0" />
          <path
             d="m 804.78906,138.15578 0.21485,8.82813 h -0.80079 q -0.5664,-3.32032 -2.79296,-5.33204 -2.20704,-2.03125 -4.78516,-2.03125 -1.99219,0 -3.16406,1.07422 -1.15235,1.05469 -1.15235,2.44141 0,0.87891 0.41016,1.5625 0.56641,0.91797 1.81641,1.81641 0.91796,0.64453 4.23828,2.28515 4.64843,2.28516 6.26953,4.31641 1.60156,2.03125 1.60156,4.64844 0,3.32031 -2.59766,5.72265 -2.57812,2.38281 -6.5625,2.38281 -1.25,0 -2.36328,-0.2539 -1.11328,-0.25391 -2.79297,-0.95703 -0.9375,-0.39063 -1.54296,-0.39063 -0.50782,0 -1.07422,0.39063 -0.56641,0.39062 -0.91797,1.1914 h -0.72266 v -10 h 0.72266 q 0.85937,4.21875 3.30078,6.44532 2.46094,2.20703 5.29297,2.20703 2.1875,0 3.47656,-1.19141 1.30859,-1.19141 1.30859,-2.77344 0,-0.9375 -0.50781,-1.8164 -0.48828,-0.87891 -1.5039,-1.66016 -1.01563,-0.80078 -3.59375,-2.07031 -3.61329,-1.77735 -5.19532,-3.02735 -1.58203,-1.25 -2.4414,-2.79296 -0.83985,-1.54297 -0.83985,-3.39844 0,-3.16406 2.32422,-5.39063 2.32422,-2.22656 5.85938,-2.22656 1.28906,0 2.5,0.3125 0.91797,0.23438 2.22656,0.87891 1.32812,0.625 1.85547,0.625 0.50781,0 0.80078,-0.3125 0.29297,-0.3125 0.54687,-1.50391 z"
             style="fill:#333333;fill-opacity:1;stroke:#333333;stroke-width:2.52007461;stroke-miterlimit:4;stroke-dasharray:none;stroke-opacity:1"
             id="path1257"
             inkscape:connector-curvature="0" />
        </g>
        <path
           inkscape:connector-curvature="0"
           d="m -1915.3499,3003.0226 v 10.7967 h 12.3132 v -5.8812 c 0,-2.7233 -2.6571,-4.9155 -5.9574,-4.9155 z m -27.496,-0.1355 h 32.7573 c 4.0352,0 7.2839,2.6805 7.2839,6.01 v 36.0601 c 0,3.3295 -3.2487,6.01 -7.2839,6.01 h -32.7573 c -4.0351,0 -7.2839,-2.6805 -7.2839,-6.01 v -36.0601 c 0,-3.3295 3.2488,-6.01 7.2839,-6.01 z"
           style="opacity:1;fill:none;fill-opacity:1;stroke:#333333;stroke-width:1.91990232;stroke-linecap:round;stroke-linejoin:miter;stroke-miterlimit:4;stroke-dasharray:none;stroke-dashoffset:0;stroke-opacity:1;paint-order:fill markers stroke"
           id="path1879" />
      </g>
      <g
         id="g1985"
         transform="matrix(0.99370116,0,0,1.0325225,-0.83099733,666.66977)"
         style="fill:#1dce98;fill-opacity:1;stroke-width:0.98723906">
        <circle
           r="2.5135417"
           cy="2524.7153"
           cx="-2120.4834"
           id="circle1975"
           style="opacity:1;fill:#1dce98;fill-opacity:1;stroke:none;stroke-width:0.19744782;stroke-linecap:round;stroke-linejoin:round;stroke-miterlimit:4;stroke-dasharray:none;stroke-dashoffset:0;stroke-opacity:1;paint-order:fill markers stroke" />
        <circle
           style="opacity:1;fill:#1dce98;fill-opacity:1;stroke:none;stroke-width:0.19744782;stroke-linecap:round;stroke-linejoin:round;stroke-miterlimit:4;stroke-dasharray:none;stroke-dashoffset:0;stroke-opacity:1;paint-order:fill markers stroke"
           id="circle1977"
           cx="-2120.6157"
           cy="2564.0059"
           r="2.5135417" />
        <circle
           style="opacity:1;fill:#1dce98;fill-opacity:1;stroke:none;stroke-width:0.19744782;stroke-linecap:round;stroke-linejoin:round;stroke-miterlimit:4;stroke-dasharray:none;stroke-dashoffset:0;stroke-opacity:1;paint-order:fill markers stroke"
           id="circle1979"
           cx="-2120.3511"
           cy="2534.5378"
           r="2.5135417" />
        <circle
           r="2.5135417"
           cy="2544.3606"
           cx="-2120.4834"
           id="circle1981"
           style="opacity:1;fill:#1dce98;fill-opacity:1;stroke:none;stroke-width:0.19744782;stroke-linecap:round;stroke-linejoin:round;stroke-miterlimit:4;stroke-dasharray:none;stroke-dashoffset:0;stroke-opacity:1;paint-order:fill markers stroke" />
        <circle
           style="opacity:1;fill:#1dce98;fill-opacity:1;stroke:none;stroke-width:0.19744782;stroke-linecap:round;stroke-linejoin:round;stroke-miterlimit:4;stroke-dasharray:none;stroke-dashoffset:0;stroke-opacity:1;paint-order:fill markers stroke"
           id="circle1983"
           cx="-2120.3511"
           cy="2554.1833"
           r="2.5135417" />
      </g>
    </g>
    <g
       id="g2154"
       transform="matrix(0.22770403,0,0,0.26514966,-1684.0982,2482.4687)">
      <g
         transform="translate(-289.18216,326.90641)"
         id="g1990">
        <path
           id="path1881"
           style="opacity:1;fill:none;fill-opacity:1;stroke:#333333;stroke-width:1.91990232;stroke-linecap:round;stroke-linejoin:miter;stroke-miterlimit:4;stroke-dasharray:none;stroke-dashoffset:0;stroke-opacity:1;paint-order:fill markers stroke"
           d="m -1838.6207,3003.0226 v 10.7967 h 12.3132 v -5.8812 c 0,-2.7233 -2.6571,-4.9155 -5.9574,-4.9155 z m -27.496,-0.1355 h 32.7573 c 4.0352,0 7.2839,2.6805 7.2839,6.01 v 36.0601 c 0,3.3295 -3.2487,6.01 -7.2839,6.01 h -32.7573 c -4.0351,0 -7.2839,-2.6805 -7.2839,-6.01 v -36.0601 c 0,-3.3295 3.2488,-6.01 7.2839,-6.01 z"
           inkscape:connector-curvature="0" />
        <text
           xml:space="preserve"
           style="font-style:normal;font-variant:normal;font-weight:bold;font-stretch:normal;font-size:25.63263512px;line-height:1.25;font-family:'Times New Roman';-inkscape-font-specification:'Times New Roman, Bold';letter-spacing:0px;word-spacing:0px;fill:#333333;fill-opacity:1;stroke:#333333;stroke-width:1.9199996;stroke-miterlimit:4;stroke-dasharray:none;stroke-opacity:1"
           x="-1878.4"
           y="3008.1384"
           id="text1885"
           transform="scale(0.99183905,1.0082281)"><tspan
             sodipodi:role="line"
             id="tspan1883"
             x="-1878.4"
             y="3008.1384"
             style="fill:#333333;fill-opacity:1;stroke:#333333;stroke-width:1.9199996;stroke-miterlimit:4;stroke-dasharray:none;stroke-opacity:1">jQ</tspan></text>
      </g>
      <g
         style="fill:#1dce98;fill-opacity:1;stroke-width:0.98723906"
         transform="matrix(0.99370116,0,0,1.0325225,-0.83099733,726.724)"
         id="g2022">
        <circle
           style="opacity:1;fill:#1dce98;fill-opacity:1;stroke:none;stroke-width:0.19744782;stroke-linecap:round;stroke-linejoin:round;stroke-miterlimit:4;stroke-dasharray:none;stroke-dashoffset:0;stroke-opacity:1;paint-order:fill markers stroke"
           id="circle2012"
           cx="-2120.4834"
           cy="2524.7153"
           r="2.5135417" />
        <circle
           r="2.5135417"
           cy="2564.0059"
           cx="-2120.6157"
           id="circle2014"
           style="opacity:1;fill:#1dce98;fill-opacity:1;stroke:none;stroke-width:0.19744782;stroke-linecap:round;stroke-linejoin:round;stroke-miterlimit:4;stroke-dasharray:none;stroke-dashoffset:0;stroke-opacity:1;paint-order:fill markers stroke" />
        <circle
           r="2.5135417"
           cy="2534.5378"
           cx="-2120.3511"
           id="circle2016"
           style="opacity:1;fill:#1dce98;fill-opacity:1;stroke:none;stroke-width:0.19744782;stroke-linecap:round;stroke-linejoin:round;stroke-miterlimit:4;stroke-dasharray:none;stroke-dashoffset:0;stroke-opacity:1;paint-order:fill markers stroke" />
        <circle
           style="opacity:1;fill:#1dce98;fill-opacity:1;stroke:none;stroke-width:0.19744782;stroke-linecap:round;stroke-linejoin:round;stroke-miterlimit:4;stroke-dasharray:none;stroke-dashoffset:0;stroke-opacity:1;paint-order:fill markers stroke"
           id="circle2018"
           cx="-2120.4834"
           cy="2544.3606"
           r="2.5135417" />
        <circle
           r="2.5135417"
           cy="2554.1833"
           cx="-2120.3511"
           id="circle2020"
           style="opacity:1;fill:#1dce98;fill-opacity:1;stroke:none;stroke-width:0.19744782;stroke-linecap:round;stroke-linejoin:round;stroke-miterlimit:4;stroke-dasharray:none;stroke-dashoffset:0;stroke-opacity:1;paint-order:fill markers stroke" />
      </g>
    </g>
    <g
       id="g2168"
       transform="matrix(0.2272849,0,0,1.0054088,-1671.5637,-18.506315)">
      <g
         transform="translate(-273.30716,194.87323)"
         id="g2029">
        <g
           aria-label="&lt; / &gt;"
           transform="matrix(0.38371087,0,0,0.78573662,1141.2293,-2486.6849)"
           style="font-style:normal;font-variant:normal;font-weight:normal;font-stretch:normal;font-size:40px;line-height:1.25;font-family:'Times New Roman';-inkscape-font-specification:'Times New Roman, ';letter-spacing:0px;word-spacing:0px;fill:none;fill-opacity:1;stroke:#333333;stroke-width:3.49671841;stroke-miterlimit:4;stroke-dasharray:none;stroke-opacity:1"
           id="flowRoot4732">
          <path
             inkscape:connector-curvature="0"
             d="m -7873.5625,7272.8662 21.0156,-9.1016 v 1.6992 l -18.0859,7.8516 18.0859,7.9297 v 1.7578 l -21.0156,-9.1797 z"
             style="fill:none;stroke:#333333;stroke-width:3.49671841;stroke-miterlimit:4;stroke-dasharray:none;stroke-opacity:1"
             id="path994" />
          <path
             inkscape:connector-curvature="0"
             d="m -7830.4961,7258.8818 -9.5898,28.3203 h -1.5625 l 9.5898,-28.3203 z"
             style="fill:none;stroke:#333333;stroke-width:3.49671841;stroke-miterlimit:4;stroke-dasharray:none;stroke-opacity:1"
             id="path996" />
          <path
             inkscape:connector-curvature="0"
             d="m -7798.875,7273.9013 -21.0156,9.1016 v -1.6797 l 18.1054,-7.8516 -18.1054,-7.9297 v -1.7773 l 21.0156,9.1797 z"
             style="fill:none;stroke:#333333;stroke-width:3.49671841;stroke-miterlimit:4;stroke-dasharray:none;stroke-opacity:1"
             id="path998" />
        </g>
        <path
           id="path1889"
           style="opacity:1;fill:none;fill-opacity:1;stroke:#333333;stroke-width:1.91990232;stroke-linecap:round;stroke-linejoin:miter;stroke-miterlimit:4;stroke-dasharray:none;stroke-dashoffset:0;stroke-opacity:1;paint-order:fill markers stroke"
           d="m -1854.4957,3204.1059 v 10.7967 h 12.3132 v -5.8812 c 0,-2.7233 -2.6571,-4.9155 -5.9574,-4.9155 z m -27.496,-0.1355 h 32.7573 c 4.0352,0 7.2839,2.6805 7.2839,6.01 v 36.0601 c 0,3.3295 -3.2487,6.01 -7.2839,6.01 h -32.7573 c -4.0351,0 -7.2839,-2.6805 -7.2839,-6.01 v -36.0601 c 0,-3.3295 3.2488,-6.01 7.2839,-6.01 z"
           inkscape:connector-curvature="0" />
      </g>
      <g
         id="g2041"
         transform="matrix(0.99370116,0,0,1.0325225,-0.83099733,795.77412)"
         style="fill:#1dce98;fill-opacity:1;stroke-width:0.98723906">
        <circle
           r="2.5135417"
           cy="2524.7153"
           cx="-2120.4834"
           id="circle2031"
           style="opacity:1;fill:#1dce98;fill-opacity:1;stroke:none;stroke-width:0.19744782;stroke-linecap:round;stroke-linejoin:round;stroke-miterlimit:4;stroke-dasharray:none;stroke-dashoffset:0;stroke-opacity:1;paint-order:fill markers stroke" />
        <circle
           style="opacity:1;fill:#1dce98;fill-opacity:1;stroke:none;stroke-width:0.19744782;stroke-linecap:round;stroke-linejoin:round;stroke-miterlimit:4;stroke-dasharray:none;stroke-dashoffset:0;stroke-opacity:1;paint-order:fill markers stroke"
           id="circle2033"
           cx="-2120.6157"
           cy="2564.0059"
           r="2.5135417" />
        <circle
           style="opacity:1;fill:#1dce98;fill-opacity:1;stroke:none;stroke-width:0.19744782;stroke-linecap:round;stroke-linejoin:round;stroke-miterlimit:4;stroke-dasharray:none;stroke-dashoffset:0;stroke-opacity:1;paint-order:fill markers stroke"
           id="circle2035"
           cx="-2120.3511"
           cy="2534.5378"
           r="2.5135417" />
        <circle
           r="2.5135417"
           cy="2544.3606"
           cx="-2120.4834"
           id="circle2037"
           style="opacity:1;fill:#1dce98;fill-opacity:1;stroke:none;stroke-width:0.19744782;stroke-linecap:round;stroke-linejoin:round;stroke-miterlimit:4;stroke-dasharray:none;stroke-dashoffset:0;stroke-opacity:1;paint-order:fill markers stroke" />
        <circle
           style="opacity:1;fill:#1dce98;fill-opacity:1;stroke:none;stroke-width:0.19744782;stroke-linecap:round;stroke-linejoin:round;stroke-miterlimit:4;stroke-dasharray:none;stroke-dashoffset:0;stroke-opacity:1;paint-order:fill markers stroke"
           id="circle2039"
           cx="-2120.3511"
           cy="2554.1833"
           r="2.5135417" />
      </g>
    </g>
    <g
       id="g2181"
       transform="matrix(0.2272849,0,0,1.0054088,-1671.5637,-18.506315)">
      <g
         transform="translate(-285.62036,377.6942)"
         id="g2047">
        <g
           aria-label="{ }"
           transform="matrix(0.73434084,0,0,0.63755858,3911.0807,-1527.9742)"
           style="font-style:normal;font-variant:normal;font-weight:normal;font-stretch:normal;font-size:40px;line-height:1.25;font-family:'Times New Roman';-inkscape-font-specification:'Times New Roman, ';letter-spacing:0px;word-spacing:0px;fill:#333333;fill-opacity:1;stroke:#333333;stroke-width:2.80603004;stroke-linecap:butt;stroke-linejoin:round;stroke-miterlimit:4;stroke-dasharray:none;stroke-opacity:1"
           id="flowRoot845">
          <path
             d="m -7857.8594,7294.6044 v 0.6836 q -3.2617,-0.4492 -5.3125,-2.6562 -2.0312,-2.1875 -2.0312,-4.8633 0,-1.4062 0.4492,-3.2617 0.4492,-1.875 0.4492,-2.9102 0,-1.4062 -1.1914,-2.6172 -1.1719,-1.2304 -3.2617,-1.5039 v -0.8007 q 2.0898,-0.2735 3.2617,-1.4844 1.1914,-1.211 1.1914,-2.6367 0,-1.0352 -0.4492,-2.8907 -0.4492,-1.8554 -0.4492,-3.2812 0,-2.6563 2.0312,-4.8633 2.0508,-2.207 5.3125,-2.6367 v 0.6836 q -2.2851,0.5469 -3.3593,1.7969 -1.0547,1.2304 -1.0547,2.7148 0,1.1523 0.4297,3.0469 0.4492,1.875 0.4492,3.2031 0,1.9727 -1.4453,3.8281 -1.4454,1.8555 -4.3164,2.8711 2.8125,1.0352 4.2773,2.9297 1.4844,1.8945 1.4844,3.8672 0,1.3281 -0.4492,3.2031 -0.4297,1.8945 -0.4297,3.0469 0,1.4844 1.0547,2.7148 1.0742,1.25 3.3593,1.8164 z"
             style="fill:#333333;fill-opacity:1;stroke:#333333;stroke-width:2.80603004;stroke-linecap:butt;stroke-linejoin:round;stroke-miterlimit:4;stroke-dasharray:none;stroke-opacity:1"
             id="path1001"
             inkscape:connector-curvature="0" />
          <path
             d="m -7841.6094,7259.5654 v -0.6836 q 3.2617,0.4297 5.293,2.6367 2.0508,2.1875 2.0508,4.8828 0,1.4063 -0.4492,3.2617 -0.4493,1.8555 -0.4493,2.8907 0,1.4062 1.1719,2.6367 1.1914,1.2109 3.2813,1.4844 v 0.8007 q -2.0899,0.2735 -3.2813,1.5039 -1.1719,1.211 -1.1719,2.6172 0,1.0352 0.4493,2.9102 0.4492,1.8555 0.4492,3.2617 0,2.6563 -2.0508,4.8633 -2.0313,2.207 -5.293,2.6562 v -0.6836 q 2.2852,-0.5664 3.3399,-1.7968 1.0742,-1.2305 1.0742,-2.7344 0,-1.1524 -0.4492,-3.0469 -0.4492,-1.875 -0.4492,-3.1836 0,-1.9922 1.4453,-3.8476 1.4648,-1.8555 4.3359,-2.8711 -2.8125,-1.0352 -4.2969,-2.9297 -1.4843,-1.8945 -1.4843,-3.8672 0,-1.3281 0.4492,-3.2031 0.4492,-1.8946 0.4492,-3.0469 0,-1.4844 -1.0742,-2.7148 -1.0547,-1.25 -3.3399,-1.7969 z"
             style="fill:#333333;fill-opacity:1;stroke:#333333;stroke-width:2.80603004;stroke-linecap:butt;stroke-linejoin:round;stroke-miterlimit:4;stroke-dasharray:none;stroke-opacity:1"
             id="path1003"
             inkscape:connector-curvature="0" />
        </g>
        <path
           inkscape:connector-curvature="0"
           d="m -1842.1825,3087.6892 v 10.7967 h 12.3132 v -5.8812 c 0,-2.7233 -2.6571,-4.9155 -5.9574,-4.9155 z m -27.496,-0.1355 h 32.7573 c 4.0352,0 7.2839,2.6805 7.2839,6.01 v 36.0601 c 0,3.3295 -3.2487,6.01 -7.2839,6.01 h -32.7573 c -4.0351,0 -7.2839,-2.6805 -7.2839,-6.01 v -36.0601 c 0,-3.3295 3.2488,-6.01 7.2839,-6.01 z"
           style="opacity:1;fill:none;fill-opacity:1;stroke:#333333;stroke-width:1.91990232;stroke-linecap:round;stroke-linejoin:miter;stroke-miterlimit:4;stroke-dasharray:none;stroke-dashoffset:0;stroke-opacity:1;paint-order:fill markers stroke"
           id="path1887" />
      </g>
      <g
         style="fill:#1dce98;fill-opacity:1;stroke-width:0.98723906"
         transform="matrix(0.99370116,0,0,1.0325225,-0.83099733,862.17839)"
         id="g2059">
        <circle
           style="opacity:1;fill:#1dce98;fill-opacity:1;stroke:none;stroke-width:0.19744782;stroke-linecap:round;stroke-linejoin:round;stroke-miterlimit:4;stroke-dasharray:none;stroke-dashoffset:0;stroke-opacity:1;paint-order:fill markers stroke"
           id="circle2049"
           cx="-2120.4834"
           cy="2524.7153"
           r="2.5135417" />
        <circle
           r="2.5135417"
           cy="2564.0059"
           cx="-2120.6157"
           id="circle2051"
           style="opacity:1;fill:#1dce98;fill-opacity:1;stroke:none;stroke-width:0.19744782;stroke-linecap:round;stroke-linejoin:round;stroke-miterlimit:4;stroke-dasharray:none;stroke-dashoffset:0;stroke-opacity:1;paint-order:fill markers stroke" />
        <circle
           r="2.5135417"
           cy="2534.5378"
           cx="-2120.3511"
           id="circle2053"
           style="opacity:1;fill:#1dce98;fill-opacity:1;stroke:none;stroke-width:0.19744782;stroke-linecap:round;stroke-linejoin:round;stroke-miterlimit:4;stroke-dasharray:none;stroke-dashoffset:0;stroke-opacity:1;paint-order:fill markers stroke" />
        <circle
           style="opacity:1;fill:#1dce98;fill-opacity:1;stroke:none;stroke-width:0.19744782;stroke-linecap:round;stroke-linejoin:round;stroke-miterlimit:4;stroke-dasharray:none;stroke-dashoffset:0;stroke-opacity:1;paint-order:fill markers stroke"
           id="circle2055"
           cx="-2120.4834"
           cy="2544.3606"
           r="2.5135417" />
        <circle
           r="2.5135417"
           cy="2554.1833"
           cx="-2120.3511"
           id="circle2057"
           style="opacity:1;fill:#1dce98;fill-opacity:1;stroke:none;stroke-width:0.19744782;stroke-linecap:round;stroke-linejoin:round;stroke-miterlimit:4;stroke-dasharray:none;stroke-dashoffset:0;stroke-opacity:1;paint-order:fill markers stroke" />
      </g>
    </g>
  </g>
</svg>
