<?xml version="1.0" encoding="UTF-8" standalone="no"?>
<!-- Created with Inkscape (http://www.inkscape.org/) -->

<svg
   xmlns:dc="http://purl.org/dc/elements/1.1/"
   xmlns:cc="http://creativecommons.org/ns#"
   xmlns:rdf="http://www.w3.org/1999/02/22-rdf-syntax-ns#"
   xmlns:svg="http://www.w3.org/2000/svg"
   xmlns="http://www.w3.org/2000/svg"
   xmlns:sodipodi="http://sodipodi.sourceforge.net/DTD/sodipodi-0.dtd"
   xmlns:inkscape="http://www.inkscape.org/namespaces/inkscape"
   width="103.72948mm"
   height="80.54113mm"
   viewBox="0 0 103.72948 80.541132"
   version="1.1"
   id="svg866"
   inkscape:version="0.92.4 (5da689c313, 2019-01-14)"
   sodipodi:docname="img-desktop.svg">
  <defs
     id="defs860" />
  <sodipodi:namedview
     id="base"
     pagecolor="#ffffff"
     bordercolor="#666666"
     borderopacity="1.0"
     inkscape:pageopacity="0.0"
     inkscape:pageshadow="2"
     inkscape:zoom="1.4"
     inkscape:cx="341.43271"
     inkscape:cy="110.20719"
     inkscape:document-units="mm"
     inkscape:current-layer="layer1"
     showgrid="false"
     inkscape:window-width="1366"
     inkscape:window-height="705"
     inkscape:window-x="-8"
     inkscape:window-y="-8"
     inkscape:window-maximized="1" />
  <metadata
     id="metadata863">
    <rdf:RDF>
      <cc:Work
         rdf:about="">
        <dc:format>image/svg+xml</dc:format>
        <dc:type
           rdf:resource="http://purl.org/dc/dcmitype/StillImage" />
        <dc:title></dc:title>
      </cc:Work>
    </rdf:RDF>
  </metadata>
  <g
     inkscape:label="Layer 1"
     inkscape:groupmode="layer"
     id="layer1"
     transform="translate(-103.71645,-157.35031)">
    <rect
       rx="0.80460691"
       style="opacity:1;fill:#917c6f;fill-opacity:1;stroke:none;stroke-width:1.34129691;stroke-linecap:round;stroke-linejoin:round;stroke-miterlimit:4;stroke-dasharray:none;stroke-dashoffset:0;stroke-opacity:1;paint-order:stroke fill markers"
       id="rect1751"
       width="46.398506"
       height="31.689425"
       x="132.37912"
       y="157.35031"
       ry="0.80460691" />
    <path
       class="st1"
       d="m 181.53469,194.3115 h -3.08566 c -0.2537,0 -0.46496,-0.21119 -0.46496,-0.46493 v 0 c 0,-0.25371 0.21145,-0.46497 0.46496,-0.46497 h 3.08566 c 0.2537,0 0.46496,0.21144 0.46496,0.46497 v 0 c 0.0422,0.25369 -0.16915,0.46493 -0.46496,0.46493 z"
       id="path12"
       style="fill:#ffffff;stroke:none;stroke-width:0.16511592;stroke-opacity:1"
       inkscape:connector-curvature="0" />
    <ellipse
       class="st2"
       cx="155.58119"
       cy="233.03044"
       rx="51.864738"
       ry="4.8609986"
       id="ellipse14"
       style="fill:#222222;fill-opacity:1;stroke:none;stroke-width:0.16511592;stroke-opacity:1" />
    <path
       class="st3"
       d="m 202.07772,194.05789 h -92.95076 c -1.43718,0 -2.57845,1.18356 -2.49389,2.62072 v 34.74556 h 5.24138 v -23.7132 c 0.25371,0.76087 0.92996,1.35263 1.81761,1.35263 h 25.23493 c 1.05675,0 1.90213,-0.84539 1.90213,-1.90212 v -7.86213 h 56.04942 v 0 h -26.24938 v 7.86213 c 0,1.05673 0.84537,1.90212 1.90212,1.90212 h 25.19264 c 0.67633,0 1.26811,-0.38042 1.60624,-0.92991 v 23.45957 h 5.24144 V 196.5518 c 0,-1.39488 -1.09902,-2.49391 -2.49388,-2.49391 z"
       id="path16"
       style="fill:#f7f7f7;stroke:none;stroke-width:0.16511592;stroke-opacity:1"
       inkscape:connector-curvature="0" />
    <path
       class="st4"
       d="m 116.1437,200.94782 h 20.58528 c 0.4227,0 0.76085,0.33818 0.76085,0.76085 v 0 c 0,0.42272 -0.33815,0.76086 -0.76085,0.76086 H 116.1437 c -0.4227,0 -0.76084,-0.33814 -0.76084,-0.76086 v 0 c 0,-0.42267 0.33814,-0.76085 0.76084,-0.76085 z"
       id="path18"
       style="fill:#4a4843;fill-opacity:1;stroke:none;stroke-width:0.16511592;stroke-opacity:1"
       inkscape:connector-curvature="0" />
    <polygon
       class="st4"
       points="201.4,328.6 271.9,328.8 271.9,330.4 201.4,330.2 "
       id="polygon20"
       style="fill:#d7dcdd;stroke:none;stroke-width:0.39062619;stroke-opacity:1"
       transform="matrix(0.42269549,0,0,0.42269549,55.69828,61.965558)" />
    <path
       class="st4"
       d="m 174.81384,200.8633 h 20.5853 c 0.42266,0 0.76081,0.33814 0.76081,0.76087 v 0 c 0,0.4227 -0.33815,0.76084 -0.76081,0.76084 h -20.5853 c -0.42271,0 -0.76085,-0.33814 -0.76085,-0.76084 v 0 c 0,-0.42273 0.33814,-0.76087 0.76085,-0.76087 z"
       id="path22"
       style="fill:#4a4843;fill-opacity:1;stroke:none;stroke-width:0.16511592;stroke-opacity:1"
       inkscape:connector-curvature="0" />
    <polygon
       class="st5"
       points="128,385.4 120.4,385.4 "
       id="polygon24"
       style="fill:none;stroke:none;stroke-width:0.39062619"
       transform="matrix(0.42269549,0,0,0.42269549,55.69828,61.965558)" />
    <path
       style="opacity:0.97000002;fill:#ffffff;stroke:none;stroke-width:0.16759273"
       d="m 135.87791,159.10114 c -0.37968,0 -0.67467,0.30511 -0.67467,0.69784 l -0.0843,23.03936 v 3.57793 c 0,0.39268 0.295,0.69783 0.67463,0.69783 l 39.48552,0.17475 c 0.37966,0 0.67467,-0.30646 0.67467,-0.69916 v -3.75137 l 0.0843,-22.86457 c 0,-0.39274 -0.29498,-0.69782 -0.67467,-0.69782 z"
       id="path28"
       inkscape:connector-curvature="0" />
    <polygon
       class="st4"
       points="122.8,400.8 122.8,404.7 131.6,404.7 131.6,400.8 "
       id="polygon32"
       style="fill:#d7dcdd;stroke:none;stroke-width:0.39062619;stroke-opacity:1"
       transform="matrix(0.42269549,0,0,0.42269549,55.69828,61.965558)" />
    <polygon
       class="st4"
       points="342.4,401.3 342.4,405.2 351.3,405.2 351.3,401.3 "
       id="polygon34"
       style="fill:#d7dcdd;stroke:none;stroke-width:0.39062619;stroke-opacity:1"
       transform="matrix(0.42269549,0,0,0.42269549,55.69828,61.965558)" />
    <path
       style="fill:#4a4843;fill-opacity:1;stroke:none;stroke-width:0.16511233;stroke-opacity:1"
       d="m 192.69368,176.14701 -0.40121,0.69514 8.91128,5.14581 -3.12236,11.65137 0.77607,0.20812 3.23954,-12.09221 0.0776,-0.13426 z"
       id="rect38"
       inkscape:connector-curvature="0" />
    <path
       class="st1"
       d="m 192.52475,180.19349 c -0.29587,0.7186 -1.14124,1.05673 -1.85983,0.76085 -0.71858,-0.29588 -1.05673,-1.14126 -0.76086,-1.85987"
       id="path40"
       style="fill:#ffffff;stroke:none;stroke-width:0.16511592;stroke-opacity:1"
       inkscape:connector-curvature="0" />
    <path
       class="st7"
       d="m 187.19882,177.91096 c 0.92993,-2.24031 3.55064,-3.33932 5.79091,-2.36711 2.24028,0.92993 3.33931,3.55062 2.3671,5.7909"
       id="path42"
       style="fill:#d5d717;fill-opacity:1;stroke:none;stroke-width:0.16511592;stroke-opacity:1"
       inkscape:connector-curvature="0" />
    <ellipse
       class="st6"
       cx="198.35794"
       cy="193.71979"
       rx="3.5929115"
       ry="0.59177363"
       id="ellipse46"
       style="fill:#4a4843;fill-opacity:1;stroke:none;stroke-width:0.16511592;stroke-opacity:1" />
    <path
       class="st8"
       d="m 125.56984,193.84657 h -18.68315 c -0.80313,0 -1.43716,-0.63404 -1.43716,-1.43719 v -2.15576 c 0,-0.80308 0.63403,-1.43713 1.43716,-1.43713 h 18.68315 c 0.80309,0 1.43714,0.63405 1.43714,1.43713 v 2.15576 c 0,0.80315 -0.67632,1.43719 -1.43714,1.43719 z"
       id="path48"
       style="opacity:1;fill:#4a4843;fill-opacity:1;stroke:none;stroke-width:0.16511592;stroke-opacity:1"
       inkscape:connector-curvature="0" />
    <rect
       x="107.73211"
       y="190.25362"
       class="st9"
       width="8.4961796"
       height="2.3248253"
       id="rect50"
       style="fill:#fbfcfd;stroke:none;stroke-width:0.16511592;stroke-opacity:1" />
    <rect
       x="123.54088"
       y="189.74644"
       class="st10"
       width="1.3103561"
       height="3.3392942"
       id="rect52"
       style="fill:#fdfdfd;stroke:none;stroke-width:0.16511592;stroke-opacity:1" />
    <path
       class="st12"
       d="m 125.4853,186.36486 c 0,-0.76086 0.16895,-1.47944 0.54948,-1.98667 0.12693,-0.16895 0.0423,-0.42273 -0.21146,-0.42273 h -17.96457 c -0.84536,0 -1.52166,0.63407 -1.52166,1.43718 v 2.15576 c 0,0.80311 0.6763,1.43715 1.52166,1.43715 h 18.21818 c 0.21147,0 0.33815,-0.25368 0.16895,-0.42267 -0.50724,-0.54953 -0.76083,-1.35263 -0.76083,-2.19802 z"
       id="path56"
       style="fill:#ff6f61;fill-opacity:1;stroke:none;stroke-width:0.16511592;stroke-opacity:1"
       inkscape:connector-curvature="0" />
    <path
       class="st13"
       d="m 125.4853,186.36486 c 0,-0.46498 0,-0.88767 0.16895,-1.31036 -5.87548,0 -11.62411,0 -17.49959,0 -0.12676,0.33814 -0.2537,0.84538 -0.2537,1.43716 0,0.59176 0.12676,1.05674 0.2537,1.35262 h 17.66866 c -0.25369,-0.42268 -0.33815,-0.92992 -0.33815,-1.47942 z"
       id="path58"
       style="fill:#f9faf8;stroke:none;stroke-width:0.16511592;stroke-opacity:1"
       inkscape:connector-curvature="0" />
    <g
       id="g99"
       style="fill:#afc6e9;fill-opacity:1;stroke:none;stroke-width:0.39062619"
       transform="matrix(0.42269549,0,0,0.42269549,55.69828,61.965558)">
      <path
         style="fill:#252525;fill-opacity:1;stroke:none;stroke-width:0.39062619"
         inkscape:connector-curvature="0"
         id="path95"
         d="m 233,389.4 -0.1,-25.3 c 0,0 -7.6,0 -11.9,0 1.6,9.3 3.1,18.6 4.7,27.9 0,0 0,0 0,0 0.5,2.8 0.9,5.4 1.4,8.2 1.9,0 5.9,0 5.9,0 v -10.8 c 0,0 0,0 0,0 z"
         class="st8" />
      <path
         style="fill:#252525;fill-opacity:1;stroke:none;stroke-width:0.39062619"
         inkscape:connector-curvature="0"
         id="path97"
         d="m 254.2,364.1 c -4.3,0 -11.9,0 -11.9,0 l -0.1,25.1 c 0,0 0,0 0,0 V 400 c 0,0 3.9,0 5.9,0 0.5,-2.7 0.9,-5.3 1.4,-8 0,0 0,0 0,0 1.6,-9.3 3.1,-18.6 4.7,-27.9 z"
         class="st8" />
    </g>
    <path
       style="fill:#ff6f61;fill-opacity:1;stroke:none;stroke-width:0.16511592;stroke-opacity:1"
       inkscape:connector-curvature="0"
       id="path101"
       d="m 152.87595,185.89988 v 0 c -0.59179,-1.98668 -2.66299,-3.12794 -4.69194,-2.53617 l -17.7532,5.19917 c -1.98667,0.59176 -3.12795,2.66298 -2.53614,4.69191 v 0 c 0.0843,0.25368 0.16894,0.50722 0.29586,0.76084 h 10.48288 l 11.58183,-3.42381 c 2.0712,-0.63406 3.21246,-2.70526 2.62071,-4.69194 z"
       class="st12" />
    <path
       style="fill:#ff6f61;fill-opacity:1;stroke:none;stroke-width:0.16511592;stroke-opacity:1"
       inkscape:connector-curvature="0"
       id="path103"
       d="m 179.25213,192.95892 c -0.97217,1.22579 -2.36707,4.26922 -4.05785,4.26922 -4.39604,0 -4.77649,-7.14358 -7.65077,-8.24259 l -0.42273,7.14357 c 2.15576,2.53616 2.11349,6.29817 6.97447,6.25589 4.64966,-0.0422 6.00229,-6.21362 6.88993,-9.17248 0.0845,-0.33817 0.12693,-0.33817 0,-0.33817 z"
       class="st12" />
    <g
       id="Warstwa_6"
       style="opacity:1;fill:#4a4843;fill-opacity:1;stroke:none;stroke-width:0.39062619;stroke-opacity:1"
       transform="matrix(0.42269549,0,0,0.42269549,55.69828,61.965558)">
      <path
         style="fill:#4a4843;fill-opacity:1;stroke:none;stroke-width:0.39062619;stroke-opacity:1"
         inkscape:connector-curvature="0"
         id="path105"
         d="M 250.7,360.9 H 221 c -4.3,0 -8,-2.4 -8.8,-5.6 -4.3,-18.4 -8.5,-36.8 -12.8,-55.2 -1,-4.2 3.2,-8 8.8,-8 h 53.5 c 5.5,0 9.6,3.7 8.8,7.8 -3.7,18.4 -7.4,36.8 -11,55.2 -0.6,3.3 -4.4,5.8 -8.8,5.8 z"
         class="st18" />
      <path
         style="fill:#4a4843;fill-opacity:1;stroke:none;stroke-width:0.39062619;stroke-opacity:1"
         inkscape:connector-curvature="0"
         id="path107"
         d="m 258.8,370.6 h -45 c -2,0 -3.7,-1.6 -3.7,-3.7 v -4.8 c 0,-2 1.6,-3.7 3.7,-3.7 h 45 c 2,0 3.7,1.6 3.7,3.7 v 4.8 c 0,2 -1.7,3.7 -3.7,3.7 z"
         class="st18" />
    </g>
    <path
       style="fill:#ffda29;fill-opacity:1;stroke:none;stroke-width:0.16511592;stroke-opacity:1"
       inkscape:connector-curvature="0"
       id="path110"
       d="m 165.17635,186.49166 c -5.32594,0 -10.60962,0 -15.89332,0 -0.88767,0 -1.77532,0 -2.66298,0 -0.21122,0 -1.35261,-0.0423 -2.28256,-0.92993 -0.59176,-0.59179 -0.92989,-1.39492 -0.92989,-2.28256 V 171.3169 c 0,-6.9322 5.62181,-12.5118 12.51176,-12.5118 v 0 c 6.93223,0 12.51177,5.62186 12.51177,12.5118 v 11.96227 c -0.0422,1.77533 -1.47944,3.21249 -3.25478,3.21249 z"
       class="st19" />
    <rect
       style="opacity:1;fill:#4a4843;fill-opacity:1;stroke:none;stroke-width:0.16511592;stroke-opacity:1"
       id="rect112"
       height="12.258168"
       width="2.2402861"
       class="st18"
       y="218.61653"
       x="155.03166" />
    <path
       style="opacity:1;fill:#4a4843;fill-opacity:1;stroke:none;stroke-width:0.16511592;stroke-opacity:1"
       inkscape:connector-curvature="0"
       id="path114"
       d="m 150.00161,231.93141 v 0 c 0,-0.63403 0.50722,-1.099 1.09901,-1.099 h 10.01789 c 0.59178,0 1.09901,0.50724 1.09901,1.099 v 0 c 0,0.63403 -0.50723,1.09903 -1.09901,1.09903 h -10.01789 c -0.59179,0.0422 -1.09901,-0.465 -1.09901,-1.09903 z"
       class="st18" />
    <path
       style="fill:#ffe49f;stroke:none;stroke-width:0.16511592;stroke-opacity:1"
       inkscape:connector-curvature="0"
       id="path116"
       d="m 181.06973,193.3816 h -2.15576 c -0.25368,0 -0.46494,-0.21147 -0.46494,-0.465 v 0 c 0,-0.25369 0.21145,-0.46491 0.46494,-0.46491 h 2.15576 c 0.25369,0 0.46496,0.2112 0.46496,0.46491 v 0 c 0.0422,0.25373 -0.16896,0.465 -0.46496,0.465 z"
       class="st20" />
  </g>
</svg>
