<?xml version="1.0" encoding="UTF-8" standalone="no"?>
<svg
   xmlns:dc="http://purl.org/dc/elements/1.1/"
   xmlns:cc="http://creativecommons.org/ns#"
   xmlns:rdf="http://www.w3.org/1999/02/22-rdf-syntax-ns#"
   xmlns:svg="http://www.w3.org/2000/svg"
   xmlns="http://www.w3.org/2000/svg"
   xmlns:sodipodi="http://sodipodi.sourceforge.net/DTD/sodipodi-0.dtd"
   xmlns:inkscape="http://www.inkscape.org/namespaces/inkscape"
   width="84.852974"
   height="84.852974"
   viewBox="0 0 17.377889 17.390362"
   version="1.1"
   id="svg16"
   sodipodi:docname="jquery_svg.svg"
   inkscape:version="0.92.4 (5da689c313, 2019-01-14)">
  <metadata
     id="metadata22">
    <rdf:RDF>
      <cc:Work
         rdf:about="">
        <dc:format>image/svg+xml</dc:format>
        <dc:type
           rdf:resource="http://purl.org/dc/dcmitype/StillImage" />
        <dc:title></dc:title>
      </cc:Work>
    </rdf:RDF>
  </metadata>
  <defs
     id="defs20">
    <filter
       inkscape:collect="always"
       style="color-interpolation-filters:sRGB"
       id="filter1341"
       x="-0.035999998"
       width="1.072"
       y="-0.035999998"
       height="1.072">
      <feGaussianBlur
         inkscape:collect="always"
         stdDeviation="0.22360249"
         id="feGaussianBlur1343" />
    </filter>
  </defs>
  <sodipodi:namedview
     pagecolor="#ffffff"
     bordercolor="#666666"
     borderopacity="1"
     objecttolerance="10"
     gridtolerance="10"
     guidetolerance="10"
     inkscape:pageopacity="0"
     inkscape:pageshadow="2"
     inkscape:window-width="1366"
     inkscape:window-height="705"
     id="namedview18"
     showgrid="false"
     inkscape:zoom="1.1392"
     inkscape:cx="74.611353"
     inkscape:cy="34.366687"
     inkscape:window-x="-8"
     inkscape:window-y="-8"
     inkscape:window-maximized="1"
     inkscape:current-layer="svg16" />
  <g
     id="g1372"
     transform="matrix(0.82491166,0,0,0.82491166,-102.47157,-78.394782)">
    <rect
       rx="1.213828"
       style="opacity:1;fill:#666666;fill-opacity:1;stroke:none;stroke-width:0.50331002;stroke-linecap:round;stroke-linejoin:round;stroke-miterlimit:4;stroke-dasharray:none;stroke-dashoffset:0;stroke-opacity:0.50196078;paint-order:fill markers stroke;filter:url(#filter1341)"
       id="rect1326"
       width="14.906833"
       height="14.906833"
       x="91.071602"
       y="-119.73991"
       transform="matrix(0.65961577,0.65961577,-0.65961577,0.65961577,-4.5153284,114.65218)"
       ry="1.213828" />
    <rect
       rx="1.1323042"
       ry="1.1323042"
       transform="rotate(45)"
       y="-26.954227"
       x="163.31303"
       height="12.946643"
       width="12.946643"
       id="rect1319"
       style="opacity:1;fill:#21609b;fill-opacity:1;stroke:#303030;stroke-width:0.46950656;stroke-linecap:round;stroke-linejoin:round;stroke-miterlimit:4;stroke-dasharray:none;stroke-dashoffset:0;stroke-opacity:1;paint-order:fill markers stroke" />
    <path
       inkscape:connector-curvature="0"
       id="rect1321"
       d="m 134.53907,98.134428 -1e-5,14.880592 c 0.25137,0 0.50278,-0.0963 0.69539,-0.28893 l 6.45645,-6.45599 c 0.38523,-0.38522 0.38522,-1.00553 0,-1.39075 l -6.45646,-6.455998 c -0.19261,-0.192609 -0.44401,-0.288924 -0.69537,-0.288924 z"
       style="opacity:1;fill:#256cae;fill-opacity:1;stroke:none;stroke-width:0.46950656;stroke-linecap:round;stroke-linejoin:round;stroke-miterlimit:4;stroke-dasharray:none;stroke-dashoffset:0;stroke-opacity:1;paint-order:fill markers stroke" />
    <g
       id="g12"
       style="fill:#ffffff;fill-rule:evenodd;stroke-width:13.21803474"
       transform="matrix(0.09128773,0,0,0.09213803,130.35036,100.60785)">
      <path
         style="fill:#ffffff;stroke-width:13.21803474"
         d="m 88.708,75.464 -0.402,1.042 C 81.456,89.846 69.317,98.03 52.003,98.391 43.909,98.558 36.197,96.481 31.159,94.223 20.287,89.338 11.142,80.279 6.148,70.6 -1.016,56.725 -2.308,37.424 12.588,23.008 c 0.23,0 -1.807,3.126 -1.577,3.126 l -0.41,1.334 C -0.133,61.074 32.938,89.874 65.086,86.58 72.812,85.788 82.664,81.557 88.708,75.464"
         id="path6-0"
         inkscape:connector-curvature="0" />
      <path
         style="fill:#ffffff;stroke-width:13.21803474"
         d="M 69.254,61.568 C 77.342,61.623 85.79,57.843 90.793,52.536 86.416,63.646 73.743,70.787 56.749,68.516 42.519,66.612 28.964,52.293 27.568,37.945 26.547,27.503 30.186,21.271 36.183,13.711 c -2.084,3.954 -2.863,7.003 -3.057,8.948 -2.278,22.588 18.044,38.79 36.128,38.909"
         id="path8-6"
         inkscape:connector-curvature="0" />
      <path
         style="fill:#ffffff;stroke-width:13.21803474"
         d="m 89.98,33.512 c -1.257,2.884 -8.496,8.33 -11.693,9.011 -12.659,2.697 -20.766,-3.306 -25.013,-10.137 -0.631,-1.02 -1.798,-3.806 -2.007,-4.515 -1.647,-5.6 -0.89,-14.07 4.023,-18.454 -1.48,4.169 -1.696,9.011 -0.917,12.159 0.472,1.903 1.91,5.226 3.349,7.316 2.618,3.807 4.279,4.732 7.642,6.754 1.515,0.91 3.14,1.64 3.842,1.84 3.189,0.939 9.922,3.412 20.775,-3.974"
         id="path10"
         inkscape:connector-curvature="0" />
    </g>
    <path
       transform="matrix(0.2484472,0,0,0.2484472,221.807,89.46943)"
       id="path1345"
       d="m -363.48828,53.365234 c -5.47328,5.346247 -4.99755,12.502838 -2.36524,17.648438 1.83496,3.589535 5.19473,6.950106 9.18946,8.761719 1.37587,0.622407 3.29451,1.20537 5.41015,1.439453 v -4.91211 c -9.00319,-2.53061 -16.11091,-11.33555 -12.96289,-21.283203 l 0.15039,-0.496093 c -0.0845,0 0.66265,-1.158204 0.57813,-1.158204 z"
       style="opacity:1;fill:#ececec;fill-opacity:1;stroke:none;stroke-width:1.88976395;stroke-linecap:round;stroke-linejoin:round;stroke-miterlimit:4;stroke-dasharray:none;stroke-dashoffset:0;stroke-opacity:1;paint-order:fill markers stroke"
       inkscape:connector-curvature="0" />
    <path
       id="path1349"
       transform="matrix(0.2484472,0,0,0.2484472,221.807,89.46943)"
       d="m -354.81836,49.916016 c -2.20349,2.803694 -3.54115,5.115788 -3.16602,8.988281 0.3781,3.922178 3.1875,7.831481 6.73047,9.902344 v -4.466797 c -3.07006,-2.575813 -5.15014,-6.473452 -4.6875,-11.103516 0.0713,-0.72132 0.35733,-1.853924 1.12305,-3.320312 z"
       style="fill:#ececec;fill-opacity:1;fill-rule:evenodd;stroke-width:4.87931061"
       inkscape:connector-curvature="0" />
    <path
       style="fill:#ffffff;fill-rule:evenodd;stroke-width:1.21225107"
       d="m 138.56443,103.69558 c -0.11475,0.26573 -0.77558,0.76751 -1.06743,0.83026 -1.15561,0.24849 -1.89568,-0.30461 -2.28338,-0.93401 -0.0576,-0.094 -0.16413,-0.35068 -0.18321,-0.416 -0.15035,-0.51597 -0.0812,-1.29638 0.36725,-1.70032 -0.13511,0.38413 -0.15483,0.83026 -0.0837,1.12031 0.0431,0.17534 0.17436,0.48151 0.30572,0.67408 0.23899,0.35077 0.39062,0.436 0.69762,0.6223 0.1383,0.0838 0.28664,0.15111 0.35073,0.16954 0.29112,0.0865 0.90576,0.31437 1.8965,-0.36616"
       id="path1351"
       inkscape:connector-curvature="0" />
  </g>
</svg>
