<?xml version="1.0" encoding="UTF-8" standalone="no"?>
<svg
   xmlns:dc="http://purl.org/dc/elements/1.1/"
   xmlns:cc="http://creativecommons.org/ns#"
   xmlns:rdf="http://www.w3.org/1999/02/22-rdf-syntax-ns#"
   xmlns:svg="http://www.w3.org/2000/svg"
   xmlns="http://www.w3.org/2000/svg"
   xmlns:sodipodi="http://sodipodi.sourceforge.net/DTD/sodipodi-0.dtd"
   xmlns:inkscape="http://www.inkscape.org/namespaces/inkscape"
   enable-background="new 0 0 1776 2500"
   viewBox="0 0 60.000053 59.999535"
   version="1.1"
   id="svg12"
   sodipodi:docname="js_svg.svg"
   width="60.000053"
   height="59.999535"
   inkscape:version="0.92.4 (5da689c313, 2019-01-14)">
  <metadata
     id="metadata18">
    <rdf:RDF>
      <cc:Work
         rdf:about="">
        <dc:format>image/svg+xml</dc:format>
        <dc:type
           rdf:resource="http://purl.org/dc/dcmitype/StillImage" />
        <dc:title></dc:title>
      </cc:Work>
    </rdf:RDF>
  </metadata>
  <defs
     id="defs16">
    <filter
       inkscape:collect="always"
       style="color-interpolation-filters:sRGB"
       id="filter1009"
       x="-0.036000013"
       width="1.072"
       y="-0.035999987"
       height="1.072">
      <feGaussianBlur
         inkscape:collect="always"
         stdDeviation="0.19157408"
         id="feGaussianBlur1011" />
    </filter>
  </defs>
  <sodipodi:namedview
     pagecolor="#ffffff"
     bordercolor="#666666"
     borderopacity="1"
     objecttolerance="10"
     gridtolerance="10"
     guidetolerance="10"
     inkscape:pageopacity="0"
     inkscape:pageshadow="2"
     inkscape:window-width="1366"
     inkscape:window-height="705"
     id="namedview14"
     showgrid="false"
     inkscape:zoom="4.2720563"
     inkscape:cx="33.026427"
     inkscape:cy="37.413411"
     inkscape:window-x="-8"
     inkscape:window-y="-8"
     inkscape:window-maximized="1"
     inkscape:current-layer="svg12" />
  <path
     inkscape:connector-curvature="0"
     style="fill:#666666;fill-opacity:1;stroke:none;stroke-width:0.22818676;stroke-opacity:1;filter:url(#filter1009)"
     d="m 222.79488,100.79014 -1.1625,-11.495337 h 12.7716 l -1.16394,11.493437 -5.22979,1.27817 z"
     id="path1177"
     transform="matrix(4.382395,0,0,4.3823548,-969.26571,-389.3066)" />
  <path
     inkscape:connector-curvature="0"
     style="fill:#e6a329;stroke:#303030;stroke-width:1.88976378;stroke-opacity:1;stroke-miterlimit:4;stroke-dasharray:none"
     d="M 56.44515,3.4997867 H 3.554839 l 4.958478,47.5913983 21.483719,5.393058 21.48376,-5.393058 z"
     id="path2" />
  <path
     inkscape:connector-curvature="0"
     style="fill:#f1bf22;stroke:none;stroke-width:0.99999988;stroke-opacity:1"
     d="M 29.997036,7.3771498 V 52.451273 L 47.403833,48.086201 51.638576,7.3771498 Z"
     id="path4-9" />
  <path
     style="fill:#ffffff;stroke:none;stroke-width:1.00157475;stroke-miterlimit:4;stroke-dasharray:none;stroke-opacity:1;paint-order:stroke markers fill"
     d="m 17.080851,13.215251 -1.864621,17.818474 0.04025,-0.110687 h 14.748002 7.988659 l -0.740318,7.538865 -7.255223,1.848964 -7.361967,-1.878266 -0.425241,-4.561975 h -0.0161 -6.681902 l 0.952113,9.111875 v 0.0035 l 13.532493,3.401246 13.537645,-3.401246 1.864581,-17.894345 H 22.211519 l 0.308315,-5.945247 H 30.004 v -0.0161 h 8.317501 l 0.24955,3.415011 h 6.742117 L 43.844566,13.214446 H 30.003879 Z"
     id="path6-4"
     inkscape:connector-curvature="0" />
  <path
     style="fill:#ececec;fill-opacity:1;stroke:none;stroke-width:0.99999988;stroke-opacity:1"
     d="M 17.080851,13.215251 15.21623,31.033725 15.25648,30.923038 H 29.9976 v -5.82969 h -7.785477 l 0.308315,-5.945247 h 7.477283 v -5.933172 z m -1.568502,20.655737 0.952114,9.111875 v 0.0035 l 13.532493,3.401206 v -6.078032 l -7.361967,-1.878266 -0.425241,-4.561975 h -0.0161 z"
     id="path1155"
     inkscape:connector-curvature="0" />
</svg>
