<?xml version="1.0" encoding="UTF-8" standalone="no"?>
<!-- Created with Inkscape (http://www.inkscape.org/) -->

<svg
   xmlns:dc="http://purl.org/dc/elements/1.1/"
   xmlns:cc="http://creativecommons.org/ns#"
   xmlns:rdf="http://www.w3.org/1999/02/22-rdf-syntax-ns#"
   xmlns:svg="http://www.w3.org/2000/svg"
   xmlns="http://www.w3.org/2000/svg"
   xmlns:sodipodi="http://sodipodi.sourceforge.net/DTD/sodipodi-0.dtd"
   xmlns:inkscape="http://www.inkscape.org/namespaces/inkscape"
   width="10.583323mm"
   height="10.583345mm"
   viewBox="0 0 10.583323 10.583345"
   version="1.1"
   id="svg1106"
   inkscape:version="0.92.4 (5da689c313, 2019-01-14)"
   sodipodi:docname="kindness.svg">
  <defs
     id="defs1100" />
  <sodipodi:namedview
     id="base"
     pagecolor="#ffffff"
     bordercolor="#666666"
     borderopacity="1.0"
     inkscape:pageopacity="0.0"
     inkscape:pageshadow="2"
     inkscape:zoom="1.979899"
     inkscape:cx="-27.139151"
     inkscape:cy="85.713934"
     inkscape:document-units="mm"
     inkscape:current-layer="layer1"
     showgrid="false"
     inkscape:window-width="1366"
     inkscape:window-height="705"
     inkscape:window-x="-8"
     inkscape:window-y="-8"
     inkscape:window-maximized="1" />
  <metadata
     id="metadata1103">
    <rdf:RDF>
      <cc:Work
         rdf:about="">
        <dc:format>image/svg+xml</dc:format>
        <dc:type
           rdf:resource="http://purl.org/dc/dcmitype/StillImage" />
        <dc:title></dc:title>
      </cc:Work>
    </rdf:RDF>
  </metadata>
  <g
     inkscape:label="Layer 1"
     inkscape:groupmode="layer"
     id="layer1"
     transform="translate(-39.323998,-538.35099)">
    <ellipse
       ry="5.0414767"
       rx="5.0414648"
       transform="rotate(-4.2363618)"
       cy="545.45312"
       cx="4.3342724"
       id="ellipse1124"
       style="opacity:1;fill:#939dac;fill-opacity:1;stroke:#6a6a6a;stroke-width:0.49999997;stroke-linecap:round;stroke-linejoin:round;stroke-miterlimit:4;stroke-dasharray:none;stroke-dashoffset:0;stroke-opacity:1;paint-order:markers fill stroke" />
    <g
       id="g918"
       transform="matrix(0.39750968,0,0,0.45530175,67.17208,455.17126)"
       style="stroke-width:2.35058808">
      <path
         inkscape:connector-curvature="0"
         id="path897"
         d="m -61.297299,186.91893 a 4.8433868,4.8318256 0 0 0 -4.843409,4.83185 4.8433868,4.8318256 0 0 0 1.679396,3.65484 l -0.0018,9e-4 7.751193,7.77006 7.729719,-7.8108 -0.0031,-0.002 a 4.8433868,4.8318256 0 0 0 1.637318,-3.6136 4.8433868,4.8318256 0 0 0 -4.843402,-4.83185 4.8433868,4.8318256 0 0 0 -4.552106,3.19893 4.8433868,4.8318256 0 0 0 -4.553471,-3.19893 z"
         style="opacity:1;fill:#d6d6f3;fill-opacity:1;stroke:#6a6a6a;stroke-width:1.17529404;stroke-linecap:round;stroke-linejoin:round;stroke-miterlimit:4;stroke-dasharray:none;stroke-dashoffset:0;stroke-opacity:1;paint-order:fill markers stroke" />
      <path
         inkscape:connector-curvature="0"
         style="opacity:1;fill:#ffffff;fill-opacity:1;stroke:none;stroke-width:1.17529404;stroke-linecap:round;stroke-linejoin:round;stroke-miterlimit:4;stroke-dasharray:none;stroke-dashoffset:0;stroke-opacity:1;paint-order:fill markers stroke"
         d="m -60.097802,189.72159 a 3.5676888,3.5591728 0 0 0 -3.567706,3.55917 3.5676888,3.5591728 0 0 0 1.237061,2.69219 l -0.0018,6.1e-4 5.709611,5.72351 5.693788,-5.75351 -0.0024,-9e-4 a 3.5676888,3.5591728 0 0 0 1.206065,-2.66182 3.5676888,3.5591728 0 0 0 -3.5677,-3.55918 3.5676888,3.5591728 0 0 0 -3.353129,2.35637 3.5676888,3.5591728 0 0 0 -3.354137,-2.35637 z"
         id="path905" />
    </g>
  </g>
</svg>
