<?xml version="1.0" encoding="UTF-8" standalone="no"?>
<!-- Created with Inkscape (http://www.inkscape.org/) -->

<svg
   xmlns:dc="http://purl.org/dc/elements/1.1/"
   xmlns:cc="http://creativecommons.org/ns#"
   xmlns:rdf="http://www.w3.org/1999/02/22-rdf-syntax-ns#"
   xmlns:svg="http://www.w3.org/2000/svg"
   xmlns="http://www.w3.org/2000/svg"
   xmlns:xlink="http://www.w3.org/1999/xlink"
   xmlns:sodipodi="http://sodipodi.sourceforge.net/DTD/sodipodi-0.dtd"
   xmlns:inkscape="http://www.inkscape.org/namespaces/inkscape"
   width="10.583323mm"
   height="10.583345mm"
   viewBox="0 0 10.583324 10.583346"
   version="1.1"
   id="svg3571"
   inkscape:version="0.92.4 (5da689c313, 2019-01-14)"
   sodipodi:docname="light.svg">
  <defs
     id="defs3565">
    <inkscape:path-effect
       effect="spiro"
       id="path-effect861"
       is_visible="true" />
    <inkscape:path-effect
       is_visible="true"
       id="path-effect865"
       effect="spiro" />
    <inkscape:path-effect
       effect="spiro"
       id="path-effect869"
       is_visible="true" />
    <inkscape:path-effect
       effect="spiro"
       id="path-effect861-0"
       is_visible="true" />
    <inkscape:path-effect
       is_visible="true"
       id="path-effect865-3"
       effect="spiro" />
    <inkscape:path-effect
       effect="spiro"
       id="path-effect869-2"
       is_visible="true" />
    <linearGradient
       inkscape:collect="always"
       xlink:href="#linearGradient5043"
       id="linearGradient5045"
       x1="-70.522224"
       y1="143.8206"
       x2="-70.522598"
       y2="150.5533"
       gradientUnits="userSpaceOnUse"
       gradientTransform="matrix(1.0670169,0,0,1.3153342,182.17076,58.015958)" />
    <linearGradient
       inkscape:collect="always"
       id="linearGradient5043">
      <stop
         style="stop-color:#d6d6f3;stop-opacity:1;"
         offset="0"
         id="stop5039" />
      <stop
         style="stop-color:#d6d6f3;stop-opacity:0;"
         offset="1"
         id="stop5041" />
    </linearGradient>
  </defs>
  <sodipodi:namedview
     id="base"
     pagecolor="#ffffff"
     bordercolor="#666666"
     borderopacity="1.0"
     inkscape:pageopacity="0.0"
     inkscape:pageshadow="2"
     inkscape:zoom="2.8"
     inkscape:cx="-50.99004"
     inkscape:cy="-28.615201"
     inkscape:document-units="mm"
     inkscape:current-layer="layer1"
     showgrid="false"
     inkscape:window-width="1366"
     inkscape:window-height="705"
     inkscape:window-x="-8"
     inkscape:window-y="-8"
     inkscape:window-maximized="1"
     showguides="true"
     inkscape:guide-bbox="true"
     inkscape:snap-bbox="true" />
  <metadata
     id="metadata3568">
    <rdf:RDF>
      <cc:Work
         rdf:about="">
        <dc:format>image/svg+xml</dc:format>
        <dc:type
           rdf:resource="http://purl.org/dc/dcmitype/StillImage" />
        <dc:title />
      </cc:Work>
    </rdf:RDF>
  </metadata>
  <g
     inkscape:label="Layer 1"
     inkscape:groupmode="layer"
     id="layer1"
     transform="translate(-101.40625,-251.58418)"
     style="display:inline">
    <ellipse
       style="opacity:1;fill:#939dac;fill-opacity:1;stroke:#6a6a6a;stroke-width:0.49999997;stroke-linecap:round;stroke-linejoin:round;stroke-miterlimit:4;stroke-dasharray:none;stroke-dashoffset:0;stroke-opacity:1;paint-order:markers fill stroke"
       id="ellipse4954"
       cx="87.430687"
       cy="264.05591"
       transform="rotate(-4.2363618)"
       rx="5.0414648"
       ry="5.0414767" />
    <path
       style="opacity:1;fill:url(#linearGradient5045);fill-opacity:1;stroke:none;stroke-width:0.49999997;stroke-linecap:round;stroke-linejoin:round;stroke-miterlimit:4;stroke-dasharray:none;stroke-opacity:1;paint-order:markers fill stroke"
       d="m 106.66976,252.62777 c -1.79299,0.0534 -3.53355,1.19114 -3.8561,3.41422 h 7.71284 c -0.32256,-2.2231 -2.06374,-3.36096 -3.85674,-3.41422 z"
       id="path5010"
       inkscape:connector-curvature="0" />
    <path
       style="opacity:1;fill:#d6d6df;fill-opacity:1;stroke:#6a6a6a;stroke-width:0.49999994;stroke-linecap:round;stroke-linejoin:round;stroke-miterlimit:4;stroke-dasharray:none;stroke-opacity:1;paint-order:markers fill stroke"
       d="m 106.6743,253.3225 c -1.58128,0.0375 -3.11395,0.9334 -3.05576,2.69307 0.0683,2.06399 2.36421,1.33654 2.56899,3.81527 0.14407,0.0457 0.3086,0.0741 0.48677,0.0854 0.17818,-0.0112 0.34272,-0.0397 0.48678,-0.0854 0.20478,-2.47873 2.50074,-1.75128 2.56898,-3.81527 0.0582,-1.75967 -1.47447,-2.65562 -3.05576,-2.69307 z"
       id="path7749"
       inkscape:connector-curvature="0" />
    <path
       style="fill:none;stroke:#6a6a6a;stroke-width:0.49999994;stroke-linecap:butt;stroke-linejoin:miter;stroke-miterlimit:4;stroke-dasharray:none;stroke-opacity:1;paint-order:markers fill stroke"
       d="m 105.55082,256.05519 c -0.17955,0.005 -0.3481,0.018 -0.50613,0.10989 -0.15139,0.0781 -0.29602,0.22672 -0.31602,0.37715 -0.0148,0.10712 0.0625,0.21332 0.17358,0.28794 0.21102,0.14204 0.49488,0.21978 0.77292,0.27947 0.25316,0.0522 0.51395,0.0861 0.77614,0.10712 0.002,-0.22425 0.003,-0.44848 0.004,-0.67271 -0.11495,-0.18239 -0.30254,-0.35677 -0.57083,-0.44267 -0.10378,-0.0327 -0.2197,-0.0487 -0.33454,-0.0462 z m 2.2989,-10e-6 c -0.24083,0.002 -0.46019,0.0937 -0.6131,0.21528 -0.10376,0.0813 -0.18829,0.17468 -0.24872,0.27359 0.002,0.22423 0.004,0.44846 0.004,0.67272 0.42413,-0.0357 0.85126,-0.0979 1.23386,-0.23246 0.18861,-0.0693 0.38065,-0.1627 0.46052,-0.30435 0.063,-0.11023 0.0185,-0.23607 -0.0717,-0.33399 -0.0621,-0.0686 -0.13913,-0.13235 -0.2268,-0.18642 -0.14357,-0.0816 -0.34831,-0.10798 -0.53891,-0.10437 z m -0.90061,1.18367 c -0.15471,0.0112 -0.31015,0.0183 -0.46573,0.0205 v 1.98194 h 0.47888 c 0.0129,-0.30897 0.007,-0.61887 0.008,-0.9282 -6.6e-4,-0.35849 -0.003,-0.71696 -0.004,-1.07545 -0.005,4.3e-4 -0.0111,5e-4 -0.0167,0.002 z"
       id="path7775"
       inkscape:connector-curvature="0"
       sodipodi:nodetypes="cccccccccccccccccccccccccc" />
    <path
       style="opacity:1;fill:#6a6a6a;fill-opacity:1;stroke:#6a6a6a;stroke-width:0.49999994;stroke-linecap:round;stroke-linejoin:round;stroke-miterlimit:4;stroke-dasharray:none;stroke-dashoffset:0;stroke-opacity:1;paint-order:markers fill stroke"
       d="m 105.81692,258.62465 c -0.31008,0 -0.55952,0.12342 -0.55952,0.27698 0,0.15356 0.24944,0.2775 0.55952,0.2775 h 1.71443 c 0.31008,0 0.55985,-0.12394 0.55985,-0.2775 0,-0.15356 -0.24977,-0.27698 -0.55985,-0.27698 z m 0.2016,0.65577 c -0.31008,0 -0.55985,0.10087 -0.55985,0.22634 0,0.12547 0.24977,0.22634 0.55985,0.22634 h 0.13082 c -0.0164,0.0365 -0.0268,0.0751 -0.0335,0.11524 -0.30577,0.002 -0.55113,0.0931 -0.55113,0.20723 0,0.11313 0.24163,0.20389 0.54375,0.20722 0.007,0.27623 0.2525,0.49713 0.55851,0.49713 h 0.0144 c 0.30597,0 0.55202,-0.22094 0.5585,-0.49713 0.30227,-0.003 0.54375,-0.0941 0.54375,-0.20722 0,-0.11415 -0.2452,-0.20547 -0.55113,-0.20723 -0.007,-0.0402 -0.0171,-0.0788 -0.0335,-0.11524 h 0.13082 c 0.31008,0 0.55985,-0.10087 0.55985,-0.22634 0,-0.12547 -0.24977,-0.22634 -0.55985,-0.22634 z"
       id="rect1861"
       inkscape:connector-curvature="0" />
  </g>
</svg>
