<?xml version="1.0" encoding="UTF-8" standalone="no"?>
<!-- Created with Inkscape (http://www.inkscape.org/) -->

<svg
   xmlns:dc="http://purl.org/dc/elements/1.1/"
   xmlns:cc="http://creativecommons.org/ns#"
   xmlns:rdf="http://www.w3.org/1999/02/22-rdf-syntax-ns#"
   xmlns:svg="http://www.w3.org/2000/svg"
   xmlns="http://www.w3.org/2000/svg"
   xmlns:xlink="http://www.w3.org/1999/xlink"
   xmlns:sodipodi="http://sodipodi.sourceforge.net/DTD/sodipodi-0.dtd"
   xmlns:inkscape="http://www.inkscape.org/namespaces/inkscape"
   width="10.583323mm"
   height="10.583345mm"
   viewBox="0 0 10.583324 10.583346"
   version="1.1"
   id="svg3571"
   inkscape:version="0.92.4 (5da689c313, 2019-01-14)"
   sodipodi:docname="light.svg">
  <defs
     id="defs3565">
    <inkscape:path-effect
       effect="spiro"
       id="path-effect861"
       is_visible="true" />
    <inkscape:path-effect
       is_visible="true"
       id="path-effect865"
       effect="spiro" />
    <inkscape:path-effect
       effect="spiro"
       id="path-effect869"
       is_visible="true" />
    <inkscape:path-effect
       effect="spiro"
       id="path-effect861-0"
       is_visible="true" />
    <inkscape:path-effect
       is_visible="true"
       id="path-effect865-3"
       effect="spiro" />
    <inkscape:path-effect
       effect="spiro"
       id="path-effect869-2"
       is_visible="true" />
    <linearGradient
       inkscape:collect="always"
       xlink:href="#linearGradient5043"
       id="linearGradient5045"
       x1="-70.522224"
       y1="143.8206"
       x2="-70.522598"
       y2="150.5533"
       gradientUnits="userSpaceOnUse"
       gradientTransform="matrix(1.0670169,0,0,1.3153342,182.17076,58.015958)" />
    <linearGradient
       inkscape:collect="always"
       id="linearGradient5043">
      <stop
         style="stop-color:#d6d6f3;stop-opacity:1;"
         offset="0"
         id="stop5039" />
      <stop
         style="stop-color:#d6d6f3;stop-opacity:0;"
         offset="1"
         id="stop5041" />
    </linearGradient>
  </defs>
  <sodipodi:namedview
     id="base"
     pagecolor="#ffffff"
     bordercolor="#666666"
     borderopacity="1.0"
     inkscape:pageopacity="0.0"
     inkscape:pageshadow="2"
     inkscape:zoom="3.959798"
     inkscape:cx="23.434985"
     inkscape:cy="54.549765"
     inkscape:document-units="mm"
     inkscape:current-layer="layer1"
     showgrid="false"
     inkscape:window-width="1366"
     inkscape:window-height="705"
     inkscape:window-x="-8"
     inkscape:window-y="-8"
     inkscape:window-maximized="1"
     showguides="true"
     inkscape:guide-bbox="true"
     inkscape:snap-bbox="true" />
  <metadata
     id="metadata3568">
    <rdf:RDF>
      <cc:Work
         rdf:about="">
        <dc:format>image/svg+xml</dc:format>
        <dc:type
           rdf:resource="http://purl.org/dc/dcmitype/StillImage" />
        <dc:title />
      </cc:Work>
    </rdf:RDF>
  </metadata>
  <g
     inkscape:label="Layer 1"
     inkscape:groupmode="layer"
     id="layer1"
     transform="translate(-101.40625,-251.58418)"
     style="display:inline">
    <ellipse
       style="opacity:1;fill:#939dac;fill-opacity:1;stroke:#6a6a6a;stroke-width:0.49999997;stroke-linecap:round;stroke-linejoin:round;stroke-miterlimit:4;stroke-dasharray:none;stroke-dashoffset:0;stroke-opacity:1;paint-order:markers fill stroke"
       id="ellipse4954"
       cx="87.430687"
       cy="264.05591"
       transform="rotate(-4.2363618)"
       rx="5.0414648"
       ry="5.0414767" />
    <path
       style="opacity:1;fill:url(#linearGradient5045);fill-opacity:1;stroke:none;stroke-width:0.49999997;stroke-linecap:round;stroke-linejoin:round;stroke-miterlimit:4;stroke-dasharray:none;stroke-opacity:1;paint-order:markers fill stroke"
       d="m 106.66976,252.62777 c -1.79299,0.0534 -3.53355,1.19114 -3.8561,3.41422 h 7.71284 c -0.32256,-2.2231 -2.06374,-3.36096 -3.85674,-3.41422 z"
       id="path5010"
       inkscape:connector-curvature="0" />
    <g
       id="g4992"
       transform="translate(157.72719,106.30441)">
      <path
         inkscape:connector-curvature="0"
         id="path7749"
         d="m -51.052888,147.01809 c -1.581285,0.0375 -3.113954,0.9334 -3.055761,2.69307 0.06827,2.06399 2.364212,1.33654 2.56899,3.81527 0.144067,0.0457 0.308603,0.0741 0.486771,0.0854 0.178178,-0.0112 0.342715,-0.0397 0.486781,-0.0854 0.204778,-2.47873 2.500736,-1.75128 2.568981,-3.81527 0.05817,-1.75967 -1.474474,-2.65562 -3.055762,-2.69307 z"
         style="opacity:1;fill:#d6d6f3;fill-opacity:1;stroke:#6a6a6a;stroke-width:0.49999994;stroke-linecap:round;stroke-linejoin:round;stroke-miterlimit:4;stroke-dasharray:none;stroke-opacity:1;paint-order:markers fill stroke" />
      <path
         sodipodi:nodetypes="ccccccc"
         style="opacity:1;fill:#ffffff;fill-opacity:1;stroke:none;stroke-width:0.49999994;stroke-linecap:round;stroke-linejoin:round;stroke-miterlimit:4;stroke-dasharray:none;stroke-opacity:1;paint-order:markers fill stroke"
         d="m -51.052888,147.67384 c -1.304828,0.0309 -2.501563,0.78154 -2.453543,2.23264 0.05633,1.70205 1.882899,1.09036 2.051874,3.13443 0.11888,0.0377 0.254649,0.0611 0.401669,0.0704 0.147027,-0.009 0.282797,-0.0327 0.401675,-0.0704 0.168977,-2.04407 1.985844,-1.44419 2.042159,-3.14624 0.048,-1.4511 -1.139005,-2.18995 -2.443834,-2.22083 z"
         id="path3031"
         inkscape:connector-curvature="0" />
      <path
         sodipodi:nodetypes="cccccccccccccccccccccccccc"
         inkscape:connector-curvature="0"
         id="path7775"
         d="m -52.176368,149.75078 c -0.179551,0.005 -0.348105,0.018 -0.506137,0.10989 -0.151384,0.0781 -0.296015,0.22672 -0.31602,0.37715 -0.01479,0.10712 0.06247,0.21332 0.173581,0.28794 0.211019,0.14204 0.494882,0.21978 0.772928,0.27947 0.253157,0.0522 0.513943,0.0861 0.776134,0.10712 0.0017,-0.22425 0.0027,-0.44848 0.0044,-0.67271 -0.11495,-0.18239 -0.30254,-0.35677 -0.570826,-0.44267 -0.103784,-0.0327 -0.219703,-0.0487 -0.334546,-0.0462 z m 2.298902,-1e-5 c -0.240834,0.002 -0.460196,0.0937 -0.613103,0.21528 -0.103763,0.0813 -0.188288,0.17468 -0.248722,0.27359 0.0017,0.22423 0.0035,0.44846 0.0044,0.67272 0.424131,-0.0357 0.851257,-0.0979 1.233858,-0.23246 0.188612,-0.0693 0.380648,-0.1627 0.460521,-0.30435 0.06299,-0.11023 0.01846,-0.23607 -0.0717,-0.33399 -0.0621,-0.0686 -0.139131,-0.13235 -0.226799,-0.18642 -0.143567,-0.0816 -0.348311,-0.10798 -0.538912,-0.10437 z m -0.900613,1.18367 c -0.154716,0.0112 -0.310148,0.0183 -0.465735,0.0205 v 1.98194 h 0.478883 c 0.01291,-0.30897 0.0072,-0.61887 0.008,-0.9282 -6.57e-4,-0.35849 -0.0027,-0.71696 -0.0044,-1.07545 -0.0053,4.3e-4 -0.01111,5e-4 -0.01666,0.002 z"
         style="fill:none;stroke:#6a6a6a;stroke-width:0.49999994;stroke-linecap:butt;stroke-linejoin:miter;stroke-miterlimit:4;stroke-dasharray:none;stroke-opacity:1;paint-order:markers fill stroke" />
      <path
         inkscape:connector-curvature="0"
         id="rect1861"
         d="m -51.910273,152.32024 c -0.310077,0 -0.559514,0.12342 -0.559514,0.27698 0,0.15356 0.249437,0.2775 0.559514,0.2775 h 1.714436 c 0.310076,0 0.559848,-0.12394 0.559848,-0.2775 0,-0.15356 -0.249772,-0.27698 -0.559848,-0.27698 z m 0.2016,0.65577 c -0.310076,0 -0.55985,0.10087 -0.55985,0.22634 0,0.12547 0.249774,0.22634 0.55985,0.22634 h 0.130821 c -0.01643,0.0365 -0.02678,0.0751 -0.03354,0.11524 -0.30577,0.002 -0.551129,0.0931 -0.551129,0.20723 0,0.11313 0.241635,0.20389 0.54375,0.20722 0.0065,0.27623 0.252505,0.49713 0.558507,0.49713 h 0.01443 c 0.305973,0 0.552021,-0.22094 0.558507,-0.49713 0.302267,-0.003 0.54375,-0.0941 0.54375,-0.20722 0,-0.11415 -0.245201,-0.20547 -0.551129,-0.20723 -0.0067,-0.0402 -0.01711,-0.0788 -0.03354,-0.11524 h 0.130821 c 0.310076,0 0.559849,-0.10087 0.559849,-0.22634 0,-0.12547 -0.249773,-0.22634 -0.559849,-0.22634 z"
         style="opacity:1;fill:#6a6a6a;fill-opacity:1;stroke:#6a6a6a;stroke-width:0.49999994;stroke-linecap:round;stroke-linejoin:round;stroke-miterlimit:4;stroke-dasharray:none;stroke-dashoffset:0;stroke-opacity:1;paint-order:markers fill stroke" />
    </g>
  </g>
</svg>
