<?xml version="1.0" encoding="UTF-8" standalone="no"?>
<!-- Created with Inkscape (http://www.inkscape.org/) -->

<svg
   xmlns:dc="http://purl.org/dc/elements/1.1/"
   xmlns:cc="http://creativecommons.org/ns#"
   xmlns:rdf="http://www.w3.org/1999/02/22-rdf-syntax-ns#"
   xmlns:svg="http://www.w3.org/2000/svg"
   xmlns="http://www.w3.org/2000/svg"
   xmlns:sodipodi="http://sodipodi.sourceforge.net/DTD/sodipodi-0.dtd"
   xmlns:inkscape="http://www.inkscape.org/namespaces/inkscape"
   width="10.583323mm"
   height="10.583345mm"
   viewBox="0 0 10.583323 10.583346"
   version="1.1"
   id="svg1156"
   inkscape:version="0.92.4 (5da689c313, 2019-01-14)"
   sodipodi:docname="listener.svg">
  <defs
     id="defs1150">
    <inkscape:path-effect
       effect="spiro"
       id="path-effect2550"
       is_visible="true" />
    <inkscape:path-effect
       is_visible="true"
       id="path-effect2546"
       effect="spiro" />
    <inkscape:path-effect
       effect="spiro"
       id="path-effect2542"
       is_visible="true" />
    <inkscape:path-effect
       effect="spiro"
       id="path-effect2538"
       is_visible="true" />
    <inkscape:path-effect
       effect="spiro"
       id="path-effect2534"
       is_visible="true" />
    <inkscape:path-effect
       effect="bspline"
       id="path-effect1763"
       is_visible="true"
       weight="33.333333"
       steps="2"
       helper_size="0"
       apply_no_weight="true"
       apply_with_weight="true"
       only_selected="false" />
    <inkscape:path-effect
       only_selected="false"
       apply_with_weight="true"
       apply_no_weight="true"
       helper_size="0"
       steps="2"
       weight="33.333333"
       is_visible="true"
       id="path-effect1739"
       effect="bspline" />
    <inkscape:path-effect
       only_selected="false"
       apply_with_weight="true"
       apply_no_weight="true"
       helper_size="0"
       steps="2"
       weight="33.333333"
       is_visible="true"
       id="path-effect1735"
       effect="bspline" />
    <inkscape:path-effect
       effect="bspline"
       id="path-effect1731"
       is_visible="true"
       weight="33.333333"
       steps="2"
       helper_size="0"
       apply_no_weight="true"
       apply_with_weight="true"
       only_selected="false" />
    <inkscape:path-effect
       effect="bspline"
       id="path-effect1727"
       is_visible="true"
       weight="33.333333"
       steps="2"
       helper_size="0"
       apply_no_weight="true"
       apply_with_weight="true"
       only_selected="false" />
    <inkscape:path-effect
       effect="spiro"
       id="path-effect2534-8"
       is_visible="true" />
    <inkscape:path-effect
       effect="spiro"
       id="path-effect2538-2"
       is_visible="true" />
    <inkscape:path-effect
       effect="spiro"
       id="path-effect2542-4"
       is_visible="true" />
    <inkscape:path-effect
       is_visible="true"
       id="path-effect2546-4"
       effect="spiro" />
    <inkscape:path-effect
       effect="spiro"
       id="path-effect2550-2"
       is_visible="true" />
    <inkscape:path-effect
       effect="spiro"
       id="path-effect2352"
       is_visible="true" />
    <inkscape:path-effect
       is_visible="true"
       id="path-effect2356"
       effect="spiro" />
    <inkscape:path-effect
       effect="spiro"
       id="path-effect2360"
       is_visible="true" />
    <inkscape:path-effect
       effect="spiro"
       id="path-effect2364"
       is_visible="true" />
    <inkscape:path-effect
       is_visible="true"
       id="path-effect2372"
       effect="spiro" />
    <inkscape:path-effect
       effect="spiro"
       id="path-effect3571"
       is_visible="true" />
  </defs>
  <sodipodi:namedview
     id="base"
     pagecolor="#ffffff"
     bordercolor="#666666"
     borderopacity="1.0"
     inkscape:pageopacity="0.0"
     inkscape:pageshadow="2"
     inkscape:zoom="1.4"
     inkscape:cx="-37.708582"
     inkscape:cy="1.3116804"
     inkscape:document-units="mm"
     inkscape:current-layer="layer1"
     showgrid="false"
     inkscape:snap-global="true"
     inkscape:window-width="1366"
     inkscape:window-height="705"
     inkscape:window-x="-8"
     inkscape:window-y="-8"
     inkscape:window-maximized="1" />
  <metadata
     id="metadata1153">
    <rdf:RDF>
      <cc:Work
         rdf:about="">
        <dc:format>image/svg+xml</dc:format>
        <dc:type
           rdf:resource="http://purl.org/dc/dcmitype/StillImage" />
        <dc:title />
      </cc:Work>
    </rdf:RDF>
  </metadata>
  <g
     inkscape:label="Layer 1"
     inkscape:groupmode="layer"
     id="layer1"
     transform="translate(16.456,-300.41692)">
    <g
       id="g4225">
      <ellipse
         ry="5.0414767"
         rx="5.0414648"
         transform="rotate(-4.2363618)"
         cy="304.04861"
         cx="-33.716869"
         id="ellipse3567"
         style="opacity:1;fill:#939dac;fill-opacity:1;stroke:#6a6a6a;stroke-width:0.49999997;stroke-linecap:round;stroke-linejoin:round;stroke-miterlimit:4;stroke-dasharray:none;stroke-dashoffset:0;stroke-opacity:1;paint-order:markers fill stroke" />
      <g
         style="stroke-width:2.40491724"
         transform="matrix(0.44879314,0,0,0.38525964,51.766647,252.55627)"
         id="g3565">
        <path
           style="fill:#d6d6f3;fill-opacity:1;stroke:#6a6a6a;stroke-width:1.25225341;stroke-linecap:round;stroke-linejoin:round;stroke-miterlimit:4;stroke-dasharray:none;stroke-opacity:1;paint-order:markers fill stroke"
           d="M -96.984847,204.87796 V 216.242 c 0.0543,0.78679 0.414999,1.54844 0.989282,2.08898 0.574284,0.54054 1.356357,0.85451 2.14499,0.86113 0.788632,0.007 1.575863,-0.29419 2.159134,-0.82502 0.583272,-0.53083 0.956697,-1.28632 1.024191,-2.07209 0.07882,-0.91766 -0.243306,-1.83262 -0.180882,-2.75154 0.04256,-0.6265 0.264373,-1.23192 0.578749,-1.77551 0.314377,-0.54358 0.719654,-1.02938 1.149261,-1.48737 0.859216,-0.91597 1.835814,-1.74776 2.470021,-2.83175 0.867062,-1.48199 0.990825,-3.37524 0.324075,-4.9575 -0.66675,-1.58225 -2.108182,-2.81594 -3.774402,-3.23042 -1.66622,-0.41449 -3.517667,8e-5 -4.848029,1.08553 -1.330362,1.08546 -2.108053,2.81605 -2.03639,4.53155 z"
           id="path2350"
           inkscape:connector-curvature="0"
           inkscape:path-effect="#path-effect2352"
           inkscape:original-d="m -96.984847,204.87796 c -0.868046,-2.60715 0,5.15002 0,11.36404 0,0 4.112888,0.36453 6.317597,0.053 2.204709,-0.31155 -0.136067,-1.12592 -0.180882,-2.75154 -0.04481,-1.62563 45.3951,16.72384 4.198031,-6.09463 -1.756353,-0.97282 -12.974033,-0.7414 -10.334746,-2.57084 z"
           sodipodi:nodetypes="ccccscc"
           transform="matrix(0.95518194,0,0,0.96531646,-52.87744,-63.927791)" />
        <path
           sodipodi:nodetypes="ccccscc"
           inkscape:original-d="m -96.984847,204.87796 c -0.868046,-2.60715 0,5.15002 0,11.36404 0,0 4.112888,0.36453 6.317597,0.053 2.204709,-0.31155 -0.136067,-1.12592 -0.180882,-2.75154 -0.04481,-1.62563 45.3951,16.72384 4.198031,-6.09463 -1.756353,-0.97282 -12.974033,-0.7414 -10.334746,-2.57084 z"
           inkscape:path-effect="#path-effect2356"
           inkscape:connector-curvature="0"
           id="path2354"
           d="M -96.984847,204.87796 V 216.242 c 0.0543,0.78679 0.414999,1.54844 0.989282,2.08898 0.574284,0.54054 1.356357,0.85451 2.14499,0.86113 0.788632,0.007 1.575863,-0.29419 2.159134,-0.82502 0.583272,-0.53083 0.956697,-1.28632 1.024191,-2.07209 0.07882,-0.91766 -0.243306,-1.83262 -0.180882,-2.75154 0.04256,-0.6265 0.264373,-1.23192 0.578749,-1.77551 0.314377,-0.54358 0.719654,-1.02938 1.149261,-1.48737 0.859216,-0.91597 1.835814,-1.74776 2.470021,-2.83175 0.867062,-1.48199 0.990825,-3.37524 0.324075,-4.9575 -0.66675,-1.58225 -2.108182,-2.81594 -3.774402,-3.23042 -1.66622,-0.41449 -3.517667,8e-5 -4.848029,1.08553 -1.330362,1.08546 -2.108053,2.81605 -2.03639,4.53155 z"
           style="fill:#ffffff;stroke:none;stroke-width:1.59385562;stroke-linecap:round;stroke-linejoin:round;stroke-miterlimit:4;stroke-dasharray:none;stroke-opacity:1;paint-order:markers fill stroke"
           transform="matrix(0.72509217,0,0,0.7849628,-74.45391,-25.941)" />
        <path
           style="fill:none;stroke:#6a6a6a;stroke-width:0.90923303;stroke-linecap:round;stroke-linejoin:miter;stroke-miterlimit:4;stroke-dasharray:none;stroke-opacity:1;paint-order:markers fill stroke"
           d="m -103.26102,194.94768 c -0.14218,0.22029 -0.17064,0.5099 -0.0741,0.75365 0.0966,0.24375 0.31568,0.43528 0.57015,0.4984 0.25124,0.0623 0.52497,9.2e-4 0.74155,-0.14085 0.21657,-0.14177 0.3781,-0.35849 0.4788,-0.59695 0.20139,-0.47693 0.1653,-1.01654 0.11859,-1.53213 -0.0364,-0.40214 -0.0762,-0.81596 0.0392,-1.20292 0.12123,-0.40665 0.40208,-0.74412 0.68682,-1.05874 0.28474,-0.31462 0.5857,-0.6268 0.762662,-1.01248 0.141617,-0.30865 0.196896,-0.65637 0.157975,-0.99373 -0.03892,-0.33735 -0.171928,-0.66335 -0.380107,-0.93164 -0.20818,-0.26829 -0.49093,-0.4781 -0.80805,-0.59959 -0.31711,-0.12149 -0.66767,-0.15431 -1.00182,-0.0938"
           id="path2358"
           inkscape:connector-curvature="0"
           inkscape:path-effect="#path-effect2360"
           inkscape:original-d="m -103.26102,194.94768 c 0.17736,2.37708 0.07,0.53166 0.49609,1.25205 0.39326,0.66494 0.59899,-1.4985 1.33894,-2.26993 0.73994,-0.77144 -0.10223,-0.69921 0.0392,-1.20292 0.14148,-0.5037 0.97728,-1.64626 1.449482,-2.07122 0.472209,-0.42496 -1.181282,-1.72132 -2.032002,-2.61875"
           sodipodi:nodetypes="cscccc"
           transform="matrix(1.3385274,0,0,1.3066601,-5.3393459,-111.22851)" />
        <path
           style="fill:#000000;fill-opacity:0;stroke:#6a6a6a;stroke-width:0.81882435;stroke-linecap:round;stroke-linejoin:miter;stroke-miterlimit:4;stroke-dasharray:none;stroke-opacity:1;paint-order:markers fill stroke"
           d="m -100.14245,189.37232 c 0.0823,-0.38385 0.0553,-0.79047 -0.0767,-1.16015 -0.13209,-0.36967 -0.36897,-0.70126 -0.67585,-0.94608 -0.30687,-0.24481 -0.68281,-0.40209 -1.07259,-0.44874 -0.38979,-0.0466 -0.79222,0.0175 -1.1482,0.18295 -0.54803,0.25475 -0.97657,0.75431 -1.14499,1.33471 -0.16841,0.58041 -0.0738,1.23176 0.25274,1.74028 0.12151,-0.0374 0.25253,-0.0434 0.37696,-0.0173 0.12443,0.0261 0.24201,0.0842 0.3383,0.16718 0.0963,0.083 0.17109,0.19075 0.2152,0.30998 0.0441,0.11923 0.0575,0.24971 0.0384,0.3754 -0.0316,0.20818 -0.15471,0.4008 -0.33039,0.51688 -0.17569,0.11607 -0.40116,0.15378 -0.60505,0.10118"
           id="path2362"
           inkscape:connector-curvature="0"
           inkscape:path-effect="#path-effect2364"
           inkscape:original-d="m -100.14245,189.37232 c 0.223596,-13.036 -1.68161,-4.08318 -2.97338,-2.37202 -0.54594,0.69071 -1.12584,1.66043 -0.89225,3.07499 -0.32294,0.74876 0.6573,0.73473 0.96885,0.83522 0.31155,0.10049 -0.6345,0.20576 -0.93544,0.61806"
           sodipodi:nodetypes="cccsc"
           transform="matrix(1.4682485,0,0,1.4687883,9.427224,-142.36698)" />
      </g>
      <path
         sodipodi:nodetypes="ccc"
         style="fill:none;stroke:#6a6a6a;stroke-width:2.29387712;stroke-linecap:round;stroke-linejoin:miter;stroke-miterlimit:4;stroke-dasharray:none;stroke-opacity:1;paint-order:markers fill stroke"
         d="m -103.91107,186.39493 c 1.42175,0.99367 2.34008,2.67281 2.40966,4.40599 0.0696,1.73318 -0.71121,3.48053 -2.04874,4.58496 -0.38901,0.32122 -0.82126,0.59002 -1.2814,0.79686"
         id="path2370"
         inkscape:connector-curvature="0"
         inkscape:path-effect="#path-effect2372"
         inkscape:original-d="m -103.91107,186.39493 c 0.0894,4.67695 0.29437,4.26893 0.36092,8.99095 0.0666,4.72203 -0.70205,0.59614 -1.2814,0.79686"
         transform="matrix(0.16612874,0.05543616,-0.10821694,0.2498814,28.93022,265.12726)" />
      <path
         transform="matrix(0.23910322,0.07615622,-0.15575281,0.34327817,46.199961,249.86153)"
         inkscape:original-d="m -103.91107,186.39493 c 0.0894,4.67695 0.29437,4.26893 0.36092,8.99095 0.0666,4.72203 -0.70205,0.59614 -1.2814,0.79686"
         inkscape:path-effect="#path-effect3571"
         inkscape:connector-curvature="0"
         id="path3569"
         d="m -103.91107,186.39493 c 1.42175,0.99367 2.34008,2.67281 2.40966,4.40599 0.0696,1.73318 -0.71121,3.48053 -2.04874,4.58496 -0.38901,0.32122 -0.82126,0.59002 -1.2814,0.79686"
         style="fill:none;stroke:#6a6a6a;stroke-width:1.63133705;stroke-linecap:round;stroke-linejoin:miter;stroke-miterlimit:4;stroke-dasharray:none;stroke-opacity:1;paint-order:markers fill stroke"
         sodipodi:nodetypes="ccc" />
    </g>
  </g>
</svg>
