<?xml version="1.0" encoding="UTF-8" standalone="no"?>
<!-- Created with Inkscape (http://www.inkscape.org/) -->

<svg
   xmlns:dc="http://purl.org/dc/elements/1.1/"
   xmlns:cc="http://creativecommons.org/ns#"
   xmlns:rdf="http://www.w3.org/1999/02/22-rdf-syntax-ns#"
   xmlns:svg="http://www.w3.org/2000/svg"
   xmlns="http://www.w3.org/2000/svg"
   xmlns:xlink="http://www.w3.org/1999/xlink"
   xmlns:sodipodi="http://sodipodi.sourceforge.net/DTD/sodipodi-0.dtd"
   xmlns:inkscape="http://www.inkscape.org/namespaces/inkscape"
   width="58.356403mm"
   height="20.867365mm"
   viewBox="0 0 58.356403 20.867365"
   version="1.1"
   id="svg1082"
   inkscape:version="0.92.4 (5da689c313, 2019-01-14)"
   sodipodi:docname="logo.svg">
  <defs
     id="defs1076">
    <linearGradient
       inkscape:collect="always"
       id="linearGradient2079">
      <stop
         style="stop-color:#00d455;stop-opacity:1"
         offset="0"
         id="stop2075" />
      <stop
         style="stop-color:#00aad4;stop-opacity:1"
         offset="1"
         id="stop2077" />
    </linearGradient>
    <linearGradient
       inkscape:collect="always"
       xlink:href="#linearGradient2079"
       id="linearGradient1698"
       x1="14.412836"
       y1="129.07149"
       x2="40.660881"
       y2="155.31953"
       gradientUnits="userSpaceOnUse" />
  </defs>
  <sodipodi:namedview
     id="base"
     pagecolor="#ffffff"
     bordercolor="#666666"
     borderopacity="1.0"
     inkscape:pageopacity="0.0"
     inkscape:pageshadow="2"
     inkscape:zoom="1.4"
     inkscape:cx="188.05522"
     inkscape:cy="42.335056"
     inkscape:document-units="mm"
     inkscape:current-layer="layer1"
     showgrid="false"
     inkscape:window-width="1366"
     inkscape:window-height="705"
     inkscape:window-x="-8"
     inkscape:window-y="-8"
     inkscape:window-maximized="1" />
  <metadata
     id="metadata1079">
    <rdf:RDF>
      <cc:Work
         rdf:about="">
        <dc:format>image/svg+xml</dc:format>
        <dc:type
           rdf:resource="http://purl.org/dc/dcmitype/StillImage" />
        <dc:title></dc:title>
      </cc:Work>
    </rdf:RDF>
  </metadata>
  <g
     inkscape:label="Layer 1"
     inkscape:groupmode="layer"
     id="layer1"
     transform="translate(85.011795,-117.71171)">
    <g
       aria-label="Milena Ulman
Design"
       transform="matrix(0.1487367,0,0,0.1487367,-11.416108,60.676232)"
       style="font-style:normal;font-variant:normal;font-weight:normal;font-stretch:normal;font-size:40px;line-height:1.25;font-family:'Ink Free';-inkscape-font-specification:'Ink Free, Normal';font-variant-ligatures:normal;font-variant-caps:normal;font-variant-numeric:normal;font-feature-settings:normal;text-align:start;letter-spacing:0px;word-spacing:0px;writing-mode:lr-tb;text-anchor:start;fill:#000000;fill-opacity:1;stroke:none;stroke-width:1.77887058"
       id="flowRoot1627">
      <path
         d="m -463.24516,436.18657 q 0,0.28 -0.48,0.64 -0.44,0.32 -1,0.32 -0.48,0 -0.76,-0.04 -0.28,-0.08 -0.4,-0.36 -0.36,-0.6 -0.84,-3.56 -0.48,-2.96 -0.92,-6.8 -0.96,-11.72 -1.48,-11.96 -0.44,0.96 -1.36,3.64 -0.92,2.64 -2.12,6.92 -1.32,4.6 -2,6.36 -0.68,1.72 -1.2,2.12 -0.32,0.28 -0.8,0.56 -0.44,0.24 -0.76,0.24 -0.4,0 -0.52,-0.08 -0.12,-0.12 -0.28,-0.64 -0.16,-0.6 -0.76,-3.72 -0.6,-3.16 -0.92,-5.68 l -0.24,-1.68 q -0.68,-5.2 -0.92,-5.8 -0.76,0.68 -1.44,3.04 -0.68,2.32 -1.56,6.6 -0.84,3.32 -2.04,10.8 -0.04,0.44 -0.6,0.8 -0.56,0.36 -1,0.36 -0.64,0 -0.72,-1.24 -0.04,-1.24 -0.56,-5.36 -0.48,-4.12 -0.88,-7.24 -0.56,-4.44 -1.52,-8.24 -0.28,-1.2 -0.28,-1.36 0,-0.6 0.56,-0.96 0.6,-0.4 1.28,-0.4 0.32,0 0.68,2.48 0.36,2.48 0.76,6.24 l 0.12,1.32 q 0.16,1.32 0.36,2.76 0.76,6.12 0.84,7.68 0.8,-4.64 1.8,-9.32 l 0.36,-1.76 q 0.88,-4.24 1.92,-6.4 1.04,-2.2 2.68,-2.2 0.52,0 1.16,2.72 0.64,2.68 1,6.28 0.28,2.56 0.72,5 0.44,2.44 0.8,3.4 0.24,-0.68 0.96,-3 0.76,-2.32 1.4,-4.4 1.96,-6.68 4.16,-11.96 0.4,-0.84 0.76,-1.2 0.4,-0.4 1.36,-0.4 0.52,0 1.12,4.56 0.6,4.56 1,10.56 1.08,8.48 1.96,9.24 0.6,0.52 0.6,1.12 z"
         style="font-style:normal;font-variant:normal;font-weight:normal;font-stretch:normal;font-size:40px;font-family:'Ink Free';-inkscape-font-specification:'Ink Free, Normal';font-variant-ligatures:normal;font-variant-caps:normal;font-variant-numeric:normal;font-feature-settings:normal;text-align:start;writing-mode:lr-tb;text-anchor:start;fill:#333333;fill-opacity:1;stroke-width:1.77887058"
         id="path1753"
         inkscape:connector-curvature="0" />
      <path
         d="m -457.26141,413.26657 q 0,0.6 -1.32,0.6 -0.68,0 -1.4,-0.56 -0.68,-0.56 -0.68,-0.92 0,-0.44 0.4,-0.84 0.44,-0.4 0.88,-0.4 0,0 0.28,0.12 0.32,0.08 0.72,0.52 0.32,0.32 0.72,0.84 0.4,0.52 0.4,0.64 z m 1,25.16 q 0,0.4 -0.36,0.6 -0.32,0.24 -0.76,0.2 -0.56,-0.04 -0.84,-1.8 -0.24,-1.76 -0.52,-6.68 -0.16,-3.24 -0.28,-6.32 -0.12,-3.12 -0.16,-4.8 0,-0.44 0.12,-0.64 0.16,-0.24 0.56,-0.24 0.92,0 1.16,0.76 0.24,0.76 0.24,2.92 l -0.04,4.72 q 0,4.04 0.24,6.48 0,0.12 0.36,2.56 0.28,1.68 0.28,2.24 z"
         style="font-style:normal;font-variant:normal;font-weight:normal;font-stretch:normal;font-size:40px;font-family:'Ink Free';-inkscape-font-specification:'Ink Free, Normal';font-variant-ligatures:normal;font-variant-caps:normal;font-variant-numeric:normal;font-feature-settings:normal;text-align:start;writing-mode:lr-tb;text-anchor:start;fill:#333333;fill-opacity:1;stroke-width:1.77887058"
         id="path1755"
         inkscape:connector-curvature="0" />
      <path
         d="m -447.27141,437.22657 q 0,0.4 -0.52,0.64 -0.52,0.24 -1.16,0.24 -0.48,0 -0.92,-1.12 -0.4,-1.16 -0.4,-3.48 0.04,-4.52 0.12,-10.92 0.12,-6.4 0.2,-9.64 0.04,-1.16 0.4,-2.16 0.4,-1 1.36,-1 0.32,0 0.4,0.36 0.12,0.32 0.12,1.28 0,0.04 -0.04,0.28 0,0.2 0,0.76 -0.72,10.52 -0.72,20.52 0,1.28 0.56,2.72 0.6,1.44 0.6,1.52 z"
         style="font-style:normal;font-variant:normal;font-weight:normal;font-stretch:normal;font-size:40px;font-family:'Ink Free';-inkscape-font-specification:'Ink Free, Normal';font-variant-ligatures:normal;font-variant-caps:normal;font-variant-numeric:normal;font-feature-settings:normal;text-align:start;writing-mode:lr-tb;text-anchor:start;fill:#333333;fill-opacity:1;stroke-width:1.77887058"
         id="path1757"
         inkscape:connector-curvature="0" />
      <path
         d="m -428.06266,428.10657 q 0.28,0 0.28,0.6 0,0.72 -1.08,3.16 -1.04,2.44 -3.2,4.52 -2.12,2.08 -5.24,2.08 -2.56,0 -4.28,-1.6 -1.72,-1.6 -1.72,-4.92 0,-3.12 1.44,-6.16 1.44,-3.08 3.76,-5 2.32,-1.96 4.8,-1.96 1.48,0 2.48,0.68 1.04,0.64 1.04,1.88 0,1.4 -1.6,2.72 -1.56,1.32 -4.08,2.32 -2.52,1 -5.2,1.44 -0.48,1.84 -0.48,3.6 0,2.32 1.08,3.6 1.12,1.28 3.16,1.28 3.08,0 5,-2.2 1.92,-2.2 3.2,-4.96 0.08,-0.16 0.28,-0.6 0.2,-0.48 0.36,-0.48 z m -3.52,-6.28 q 0,-0.64 -0.68,-1 -0.64,-0.36 -1.52,-0.36 -1.52,0 -2.92,1 -1.4,1 -2.36,2.4 -0.92,1.4 -1.2,2.48 1.84,-0.2 3.88,-1.04 2.04,-0.84 3.4,-1.84 1.4,-1 1.4,-1.64 z"
         style="font-style:normal;font-variant:normal;font-weight:normal;font-stretch:normal;font-size:40px;font-family:'Ink Free';-inkscape-font-specification:'Ink Free, Normal';font-variant-ligatures:normal;font-variant-caps:normal;font-variant-numeric:normal;font-feature-settings:normal;text-align:start;writing-mode:lr-tb;text-anchor:start;fill:#333333;fill-opacity:1;stroke-width:1.77887058"
         id="path1759"
         inkscape:connector-curvature="0" />
      <path
         d="m -410.86891,438.58657 q 0,0.48 -0.4,0.8 -0.4,0.36 -0.96,0.36 -0.4,0 -0.68,-0.2 -0.28,-0.16 -0.28,-0.48 0,-1.64 0.24,-5.08 0.24,-3.68 0.24,-6.12 0,-2.36 -0.16,-3.84 -0.12,-1.52 -0.64,-1.52 -1.36,0 -3,3.4 -1.6,3.36 -3.68,8.88 l -0.6,1.6 q -0.16,0.4 -0.56,0.64 -0.36,0.24 -0.76,0.24 -0.48,0 -0.64,-0.08 -0.16,-0.08 -0.2,-0.48 l -0.32,-3.28 -0.6,-5.76 q -0.28,-3.44 -0.68,-6 -0.12,-0.6 -0.12,-0.92 0,-0.6 0.52,-0.96 0.52,-0.4 1.2,-0.4 0.4,0 0.56,1.92 0.2,1.92 0.4,6.2 l 0.16,2.12 q 0.32,4.04 0.36,5.12 0.12,-0.24 0.2,-0.52 0.12,-0.32 0.28,-0.68 2.16,-5.6 4.04,-9.32 1.92,-3.76 3.68,-3.76 1.24,0 1.68,2.12 0.48,2.08 0.6,5.36 0.12,3.64 0.12,10.64 z"
         style="font-style:normal;font-variant:normal;font-weight:normal;font-stretch:normal;font-size:40px;font-family:'Ink Free';-inkscape-font-specification:'Ink Free, Normal';font-variant-ligatures:normal;font-variant-caps:normal;font-variant-numeric:normal;font-feature-settings:normal;text-align:start;writing-mode:lr-tb;text-anchor:start;fill:#333333;fill-opacity:1;stroke-width:1.77887058"
         id="path1761"
         inkscape:connector-curvature="0" />
      <path
         d="m -389.59141,435.74657 q 0.04,0.28 0.32,0.6 0.28,0.28 0.28,0.48 0,0.48 -0.4,1.12 -0.4,0.6 -0.8,0.6 -0.68,0 -1.04,-0.84 -0.36,-0.84 -0.36,-1.96 0,-0.96 0.12,-5.76 l 0.04,-1.52 q 0,-0.92 -0.48,-1.32 -1.8,3.04 -3.36,5.28 -1.56,2.24 -3.96,4.24 -2.4,1.96 -5.04,1.96 -1.28,0 -2,-0.8 -0.68,-0.8 -0.68,-2.08 0,-1.6 1.44,-4.36 1.44,-2.8 3.68,-5.64 2.24,-2.88 4.48,-4.72 1.48,-1.2 2.36,-1.6 0.88,-0.44 1.56,-0.44 0.64,0 1.32,0.4 0.68,0.4 1.16,1.12 0.48,0.72 0.48,1.64 0,1.24 -0.68,2.36 l 0.68,-0.2 q 0.44,0 0.52,1.08 0.04,0.64 0.08,2.6 0.08,1.96 0.12,3.24 0.04,1.32 0.08,2.56 0.04,1.24 0.08,1.96 z m -14.12,0.72 q 2.16,0 4.16,-1.6 2,-1.6 3.56,-3.8 1.6,-2.24 3.52,-5.48 0.48,-1.2 0.48,-2.6 0,-0.84 -0.52,-1.44 -0.48,-0.64 -1.32,-0.64 -1,0 -2.56,1.36 -1.8,1.52 -3.8,4.08 -2,2.52 -3.32,5 -1.32,2.48 -1.32,3.92 0,1.2 1.12,1.2 z"
         style="font-style:normal;font-variant:normal;font-weight:normal;font-stretch:normal;font-size:40px;font-family:'Ink Free';-inkscape-font-specification:'Ink Free, Normal';font-variant-ligatures:normal;font-variant-caps:normal;font-variant-numeric:normal;font-feature-settings:normal;text-align:start;writing-mode:lr-tb;text-anchor:start;fill:#333333;fill-opacity:1;stroke-width:1.77887058"
         id="path1763"
         inkscape:connector-curvature="0" />
      <path
         d="m -350.37516,437.82657 q 0,0.48 -0.4,0.8 -0.4,0.36 -1,0.36 -0.8,0 -1.48,-1.68 -0.64,-1.68 -0.8,-3.48 -0.16,-1.52 -0.32,-7.08 -0.08,-2.32 -0.12,-2.88 -2.76,6.72 -6.32,11.8 -3.52,5.08 -6.64,5.08 -1.56,0 -2.72,-1.88 -1.12,-1.88 -1.72,-5.04 -0.6,-3.2 -0.6,-7 0,-3.08 0.36,-6.96 0.36,-3.92 0.88,-5.64 0.16,-0.48 0.44,-0.76 0.32,-0.32 0.72,-0.32 1,0 1,0.76 0,0.12 -0.76,2.88 -0.76,2.76 -0.76,10.32 0,5 0.92,8.24 0.96,3.2 2.68,3.2 1.68,0 4,-2.72 2.32,-2.76 4.4,-6.56 2.12,-3.8 3.08,-6.68 0.64,-2.12 0.84,-6.36 0.12,-1.64 0.2,-1.72 0.32,-0.4 0.96,-0.4 0.72,0 0.72,1.96 0,2.36 0.12,8.96 0.16,6.6 0.36,8.36 0.16,1.48 0.56,2.32 0.44,0.84 0.92,1.4 0.48,0.56 0.48,0.72 z"
         style="font-style:normal;font-variant:normal;font-weight:normal;font-stretch:normal;font-size:40px;font-family:'Ink Free';-inkscape-font-specification:'Ink Free, Normal';font-variant-ligatures:normal;font-variant-caps:normal;font-variant-numeric:normal;font-feature-settings:normal;text-align:start;writing-mode:lr-tb;text-anchor:start;fill:#333333;fill-opacity:1;stroke-width:1.77887058"
         id="path1765"
         inkscape:connector-curvature="0" />
      <path
         d="m -343.67766,437.22657 q 0,0.4 -0.52,0.64 -0.52,0.24 -1.16,0.24 -0.48,0 -0.92,-1.12 -0.4,-1.16 -0.4,-3.48 0.04,-4.52 0.12,-10.92 0.12,-6.4 0.2,-9.64 0.04,-1.16 0.4,-2.16 0.4,-1 1.36,-1 0.32,0 0.4,0.36 0.12,0.32 0.12,1.28 0,0.04 -0.04,0.28 0,0.2 0,0.76 -0.72,10.52 -0.72,20.52 0,1.28 0.56,2.72 0.6,1.44 0.6,1.52 z"
         style="font-style:normal;font-variant:normal;font-weight:normal;font-stretch:normal;font-size:40px;font-family:'Ink Free';-inkscape-font-specification:'Ink Free, Normal';font-variant-ligatures:normal;font-variant-caps:normal;font-variant-numeric:normal;font-feature-settings:normal;text-align:start;writing-mode:lr-tb;text-anchor:start;fill:#333333;fill-opacity:1;stroke-width:1.77887058"
         id="path1767"
         inkscape:connector-curvature="0" />
      <path
         d="m -314.34891,437.90657 q 0,0.48 -0.32,0.8 -0.32,0.36 -0.84,0.36 -0.72,0 -0.72,-0.72 0,-8.08 -0.52,-12.36 -0.52,-4.32 -1.8,-4.32 -2.16,0 -6.32,15.08 v 0.04 q 0,0.48 -0.32,0.84 -0.32,0.32 -0.84,0.32 -0.72,0 -0.72,-0.72 0,-1.6 0.16,-4.96 0.16,-3.76 0.16,-5.92 0,-3 -0.2,-4.24 -0.16,-1.28 -0.76,-1.28 -1.36,0 -3.44,5 -2.08,4.96 -4.36,11.72 l -0.36,1.04 q -0.16,0.4 -0.48,0.68 -0.28,0.28 -0.64,0.28 -0.48,0 -0.64,-0.08 -0.16,-0.08 -0.2,-0.48 -0.2,-1.96 -0.32,-5.24 -0.08,-0.84 -0.16,-2.76 -0.4,-6.76 -0.72,-9.12 -0.32,-2.4 -0.32,-2.68 0,-0.32 0.32,-0.76 0.32,-0.44 0.6,-0.44 0.64,0 1.04,0.92 0.2,0.44 0.44,3.52 0.24,3.08 0.4,7.64 l 0.2,6.12 q 2.2,-6.8 4.56,-12.32 2.36,-5.56 4.32,-5.56 1.32,0 1.8,1.92 0.48,1.92 0.48,5.56 0,1.92 -0.08,5.52 l -0.04,1.84 q 1.64,-5.72 3.24,-9.6 1.64,-3.88 3.28,-3.88 4.12,0 4.12,18.24 z"
         style="font-style:normal;font-variant:normal;font-weight:normal;font-stretch:normal;font-size:40px;font-family:'Ink Free';-inkscape-font-specification:'Ink Free, Normal';font-variant-ligatures:normal;font-variant-caps:normal;font-variant-numeric:normal;font-feature-settings:normal;text-align:start;writing-mode:lr-tb;text-anchor:start;fill:#333333;fill-opacity:1;stroke-width:1.77887058"
         id="path1769"
         inkscape:connector-curvature="0" />
      <path
         d="m -293.10703,435.74657 q 0.04,0.28 0.32,0.6 0.28,0.28 0.28,0.48 0,0.48 -0.4,1.12 -0.4,0.6 -0.8,0.6 -0.68,0 -1.04,-0.84 -0.36,-0.84 -0.36,-1.96 0,-0.96 0.12,-5.76 l 0.04,-1.52 q 0,-0.92 -0.48,-1.32 -1.8,3.04 -3.36,5.28 -1.56,2.24 -3.96,4.24 -2.4,1.96 -5.04,1.96 -1.28,0 -2,-0.8 -0.68,-0.8 -0.68,-2.08 0,-1.6 1.44,-4.36 1.44,-2.8 3.68,-5.64 2.24,-2.88 4.48,-4.72 1.48,-1.2 2.36,-1.6 0.88,-0.44 1.56,-0.44 0.64,0 1.32,0.4 0.68,0.4 1.16,1.12 0.48,0.72 0.48,1.64 0,1.24 -0.68,2.36 l 0.68,-0.2 q 0.44,0 0.52,1.08 0.04,0.64 0.08,2.6 0.08,1.96 0.12,3.24 0.04,1.32 0.08,2.56 0.04,1.24 0.08,1.96 z m -14.12,0.72 q 2.16,0 4.16,-1.6 2,-1.6 3.56,-3.8 1.6,-2.24 3.52,-5.48 0.48,-1.2 0.48,-2.6 0,-0.84 -0.52,-1.44 -0.48,-0.64 -1.32,-0.64 -1,0 -2.56,1.36 -1.8,1.52 -3.8,4.08 -2,2.52 -3.32,5 -1.32,2.48 -1.32,3.92 0,1.2 1.12,1.2 z"
         style="font-style:normal;font-variant:normal;font-weight:normal;font-stretch:normal;font-size:40px;font-family:'Ink Free';-inkscape-font-specification:'Ink Free, Normal';font-variant-ligatures:normal;font-variant-caps:normal;font-variant-numeric:normal;font-feature-settings:normal;text-align:start;writing-mode:lr-tb;text-anchor:start;fill:#333333;fill-opacity:1;stroke-width:1.77887058"
         id="path1771"
         inkscape:connector-curvature="0" />
      <path
         d="m -274.77516,438.58657 q 0,0.48 -0.4,0.8 -0.4,0.36 -0.96,0.36 -0.4,0 -0.68,-0.2 -0.28,-0.16 -0.28,-0.48 0,-1.64 0.24,-5.08 0.24,-3.68 0.24,-6.12 0,-2.36 -0.16,-3.84 -0.12,-1.52 -0.64,-1.52 -1.36,0 -3,3.4 -1.6,3.36 -3.68,8.88 l -0.6,1.6 q -0.16,0.4 -0.56,0.64 -0.36,0.24 -0.76,0.24 -0.48,0 -0.64,-0.08 -0.16,-0.08 -0.2,-0.48 l -0.32,-3.28 -0.6,-5.76 q -0.28,-3.44 -0.68,-6 -0.12,-0.6 -0.12,-0.92 0,-0.6 0.52,-0.96 0.52,-0.4 1.2,-0.4 0.4,0 0.56,1.92 0.2,1.92 0.4,6.2 l 0.16,2.12 q 0.32,4.04 0.36,5.12 0.12,-0.24 0.2,-0.52 0.12,-0.32 0.28,-0.68 2.16,-5.6 4.04,-9.32 1.92,-3.76 3.68,-3.76 1.24,0 1.68,2.12 0.48,2.08 0.6,5.36 0.12,3.64 0.12,10.64 z"
         style="font-style:normal;font-variant:normal;font-weight:normal;font-stretch:normal;font-size:40px;font-family:'Ink Free';-inkscape-font-specification:'Ink Free, Normal';font-variant-ligatures:normal;font-variant-caps:normal;font-variant-numeric:normal;font-feature-settings:normal;text-align:start;writing-mode:lr-tb;text-anchor:start;fill:#333333;fill-opacity:1;stroke-width:1.77887058"
         id="path1773"
         inkscape:connector-curvature="0" />
      <path
         d="m -469.12516,469.70657 q 0,3.12 -1.8,5.92 -1.8,2.8 -5.84,6.36 -2.44,2.16 -5.04,4.08 -2.56,1.92 -4.28,2.72 -0.12,0.44 -0.36,0.64 -0.24,0.24 -0.72,0.24 -0.36,0 -0.52,-0.16 -0.16,-0.12 -0.16,-0.48 0,-0.24 0.16,-2 0.2,-1.76 0.2,-4.12 0,-4 -0.12,-7.24 -0.08,-3.76 -0.08,-5.28 0,-2.36 0.48,-3.88 0.36,-0.96 1.28,-0.96 0.32,0 0.56,0.12 0.28,0.12 0.28,0.36 -0.04,0.2 -0.44,1.4 -0.36,1.2 -0.36,2.28 0,3 0.12,6.56 0.08,4.56 0.08,6.32 0,3 -0.04,3.6 1.44,-0.56 3.88,-2.32 2.48,-1.76 4.16,-3.2 3.48,-3.12 5.08,-5.6 1.6,-2.48 1.6,-5.16 0,-3.24 -4.08,-4.44 -4.04,-1.2 -10.6,-1.2 -2,0 -5.36,0.48 -0.64,0.04 -2,0.4 -0.6,0.2 -0.84,0.2 -0.32,0 -0.6,-0.52 -0.32,-0.52 -0.32,-1.04 0,-0.2 0.28,-0.36 0.28,-0.2 0.88,-0.28 2.4,-0.32 4.08,-0.48 1.72,-0.16 4,-0.16 7.28,0 11.84,1.64 4.6,1.64 4.6,5.56 z"
         style="font-style:normal;font-variant:normal;font-weight:normal;font-stretch:normal;font-size:40px;font-family:'Ink Free';-inkscape-font-specification:'Ink Free, Normal';font-variant-ligatures:normal;font-variant-caps:normal;font-variant-numeric:normal;font-feature-settings:normal;text-align:start;writing-mode:lr-tb;text-anchor:start;fill:#333333;fill-opacity:1;stroke-width:1.77887058"
         id="path1775"
         inkscape:connector-curvature="0" />
      <path
         d="m -450.95328,478.10657 q 0.28,0 0.28,0.6 0,0.72 -1.08,3.16 -1.04,2.44 -3.2,4.52 -2.12,2.08 -5.24,2.08 -2.56,0 -4.28,-1.6 -1.72,-1.6 -1.72,-4.92 0,-3.12 1.44,-6.16 1.44,-3.08 3.76,-5 2.32,-1.96 4.8,-1.96 1.48,0 2.48,0.68 1.04,0.64 1.04,1.88 0,1.4 -1.6,2.72 -1.56,1.32 -4.08,2.32 -2.52,1 -5.2,1.44 -0.48,1.84 -0.48,3.6 0,2.32 1.08,3.6 1.12,1.28 3.16,1.28 3.08,0 5,-2.2 1.92,-2.2 3.2,-4.96 0.08,-0.16 0.28,-0.6 0.2,-0.48 0.36,-0.48 z m -3.52,-6.28 q 0,-0.64 -0.68,-1 -0.64,-0.36 -1.52,-0.36 -1.52,0 -2.92,1 -1.4,1 -2.36,2.4 -0.92,1.4 -1.2,2.48 1.84,-0.2 3.88,-1.04 2.04,-0.84 3.4,-1.84 1.4,-1 1.4,-1.64 z"
         style="font-style:normal;font-variant:normal;font-weight:normal;font-stretch:normal;font-size:40px;font-family:'Ink Free';-inkscape-font-specification:'Ink Free, Normal';font-variant-ligatures:normal;font-variant-caps:normal;font-variant-numeric:normal;font-feature-settings:normal;text-align:start;writing-mode:lr-tb;text-anchor:start;fill:#333333;fill-opacity:1;stroke-width:1.77887058"
         id="path1777"
         inkscape:connector-curvature="0" />
      <path
         d="m -433.07953,482.70657 q 0,1.76 -1.44,3.4 -1.4,1.6 -3.72,2.56 -2.32,1 -4.84,1 -1.72,0 -2.32,-0.32 -0.6,-0.32 -0.6,-0.88 0,-0.36 0.92,-1.24 0.92,-0.92 1.24,-0.92 0.48,0 0.48,0.2 0,0.16 -0.2,0.32 -0.2,0.16 -0.2,0.28 0,0.16 0.48,0.32 0.52,0.16 1.24,0.16 1.68,0 3.36,-0.6 1.72,-0.64 2.8,-1.64 1.08,-1 1.08,-2.12 0,-1.08 -0.68,-1.72 -0.68,-0.64 -1.72,-0.92 -1,-0.32 -3.4,-0.88 -2.64,-0.6 -4.12,-1.04 -1.44,-0.48 -2.32,-1.16 -0.88,-0.72 -0.88,-1.8 0,-1.92 1.88,-3.52 1.88,-1.6 4.32,-2.52 2.44,-0.92 3.76,-0.92 1.36,0 1.36,0.8 0,0.48 -0.32,1.08 -0.32,0.56 -0.96,0.56 -0.24,0 -0.52,-0.16 -0.28,-0.2 -0.56,-0.2 -0.8,0 -2.52,0.52 -1.72,0.52 -3.12,1.56 -1.4,1.04 -1.4,2.52 0,0.96 1.08,1.44 1.12,0.44 4.12,1.12 0.36,0.12 0.72,0.2 0.36,0.04 0.64,0.12 3.08,0.72 4.72,1.64 1.64,0.92 1.64,2.76 z"
         style="font-style:normal;font-variant:normal;font-weight:normal;font-stretch:normal;font-size:40px;font-family:'Ink Free';-inkscape-font-specification:'Ink Free, Normal';font-variant-ligatures:normal;font-variant-caps:normal;font-variant-numeric:normal;font-feature-settings:normal;text-align:start;writing-mode:lr-tb;text-anchor:start;fill:#333333;fill-opacity:1;stroke-width:1.77887058"
         id="path1779"
         inkscape:connector-curvature="0" />
      <path
         d="m -427.02703,463.26657 q 0,0.6 -1.32,0.6 -0.68,0 -1.4,-0.56 -0.68,-0.56 -0.68,-0.92 0,-0.44 0.4,-0.84 0.44,-0.4 0.88,-0.4 0,0 0.28,0.12 0.32,0.08 0.72,0.52 0.32,0.32 0.72,0.84 0.4,0.52 0.4,0.64 z m 1,25.16 q 0,0.4 -0.36,0.6 -0.32,0.24 -0.76,0.2 -0.56,-0.04 -0.84,-1.8 -0.24,-1.76 -0.52,-6.68 -0.16,-3.24 -0.28,-6.32 -0.12,-3.12 -0.16,-4.8 0,-0.44 0.12,-0.64 0.16,-0.24 0.56,-0.24 0.92,0 1.16,0.76 0.24,0.76 0.24,2.92 l -0.04,4.72 q 0,4.04 0.24,6.48 0,0.12 0.36,2.56 0.28,1.68 0.28,2.24 z"
         style="font-style:normal;font-variant:normal;font-weight:normal;font-stretch:normal;font-size:40px;font-family:'Ink Free';-inkscape-font-specification:'Ink Free, Normal';font-variant-ligatures:normal;font-variant-caps:normal;font-variant-numeric:normal;font-feature-settings:normal;text-align:start;writing-mode:lr-tb;text-anchor:start;fill:#333333;fill-opacity:1;stroke-width:1.77887058"
         id="path1781"
         inkscape:connector-curvature="0" />
      <path
         d="m -403.11703,487.90657 q 0,3.12 -1.24,5.68 -1.24,2.56 -2.92,4.16 -1.72,1.64 -3.6,2.64 -1.84,1.04 -3.2,1.04 -0.76,0 -1.08,-0.4 -0.32,-0.36 -0.32,-0.88 0,-0.48 1.8,-1.12 2.72,-0.88 5.04,-2.96 1.8,-1.6 2.64,-3.64 0.84,-2.04 0.84,-4.16 0,-2.4 -0.32,-4.4 -0.28,-2 -0.92,-4.92 -0.72,-3.08 -1,-5.24 -0.68,1.84 -2.12,4.44 -1.4,2.6 -3.36,5 -1.84,2.28 -3.36,3.4 -1.48,1.12 -2.88,1.12 -1.2,0 -1.8,-0.92 -0.56,-0.96 -0.56,-2.6 0,-2.72 1.68,-6.4 1.68,-3.68 4.2,-6.32 2.52,-2.64 4.96,-2.64 0.84,0 1.28,0.6 0.48,0.6 0.48,1.44 0,1.08 -0.44,1.08 -0.12,0 -0.32,-0.28 -0.16,-0.32 -0.4,-0.56 -0.24,-0.24 -0.52,-0.24 -2.04,0 -4.16,2.28 -2.08,2.28 -3.48,5.36 -1.36,3.04 -1.36,5 0,1.08 0.28,1.56 0.32,0.48 0.96,0.48 0.96,0 2.32,-1.12 1.36,-1.12 3.24,-3.52 1.68,-2.12 3.04,-4.92 1.4,-2.84 2.12,-5.4 0.08,-0.24 0.24,-0.4 0.2,-0.16 0.44,-0.16 0.36,0 0.72,0.24 0.4,0.2 0.4,0.44 0,0.16 -0.08,0.36 -0.04,0.16 -0.08,0.2 0.28,2.2 1.32,6.84 0.76,3.28 1.12,5.52 0.4,2.2 0.4,4.32 z"
         style="font-style:normal;font-variant:normal;font-weight:normal;font-stretch:normal;font-size:40px;font-family:'Ink Free';-inkscape-font-specification:'Ink Free, Normal';font-variant-ligatures:normal;font-variant-caps:normal;font-variant-numeric:normal;font-feature-settings:normal;text-align:start;writing-mode:lr-tb;text-anchor:start;fill:#333333;fill-opacity:1;stroke-width:1.77887058"
         id="path1783"
         inkscape:connector-curvature="0" />
      <path
         d="m -385.47828,488.58657 q 0,0.48 -0.4,0.8 -0.4,0.36 -0.96,0.36 -0.4,0 -0.68,-0.2 -0.28,-0.16 -0.28,-0.48 0,-1.64 0.24,-5.08 0.24,-3.68 0.24,-6.12 0,-2.36 -0.16,-3.84 -0.12,-1.52 -0.64,-1.52 -1.36,0 -3,3.4 -1.6,3.36 -3.68,8.88 l -0.6,1.6 q -0.16,0.4 -0.56,0.64 -0.36,0.24 -0.76,0.24 -0.48,0 -0.64,-0.08 -0.16,-0.08 -0.2,-0.48 l -0.32,-3.28 -0.6,-5.76 q -0.28,-3.44 -0.68,-6 -0.12,-0.6 -0.12,-0.92 0,-0.6 0.52,-0.96 0.52,-0.4 1.2,-0.4 0.4,0 0.56,1.92 0.2,1.92 0.4,6.2 l 0.16,2.12 q 0.32,4.04 0.36,5.12 0.12,-0.24 0.2,-0.52 0.12,-0.32 0.28,-0.68 2.16,-5.6 4.04,-9.32 1.92,-3.76 3.68,-3.76 1.24,0 1.68,2.12 0.48,2.08 0.6,5.36 0.12,3.64 0.12,10.64 z"
         style="font-style:normal;font-variant:normal;font-weight:normal;font-stretch:normal;font-size:40px;font-family:'Ink Free';-inkscape-font-specification:'Ink Free, Normal';font-variant-ligatures:normal;font-variant-caps:normal;font-variant-numeric:normal;font-feature-settings:normal;text-align:start;writing-mode:lr-tb;text-anchor:start;fill:#333333;fill-opacity:1;stroke-width:1.77887058"
         id="path1785"
         inkscape:connector-curvature="0" />
    </g>
    <g
       id="g1647"
       transform="matrix(0.56215445,0,0,0.56215445,8.4881098,60.67623)"
       style="stroke-width:1.77887058">
      <rect
         transform="rotate(45)"
         y="129.07149"
         x="14.412836"
         height="26.248045"
         width="26.248045"
         id="rect1639"
         style="opacity:1;fill:url(#linearGradient1698);fill-opacity:1;stroke:none;stroke-width:0.65996099;stroke-linecap:round;stroke-linejoin:round;stroke-miterlimit:4;stroke-dasharray:none;stroke-dashoffset:0;stroke-opacity:1;paint-order:fill markers stroke" />
      <circle
         r="7.3705359"
         cy="120.01891"
         cx="-81.075905"
         id="path1643"
         style="opacity:1;fill:#333333;fill-opacity:1;stroke:none;stroke-width:0.65996099;stroke-linecap:round;stroke-linejoin:round;stroke-miterlimit:4;stroke-dasharray:none;stroke-dashoffset:0;stroke-opacity:1;paint-order:fill markers stroke" />
    </g>
  </g>
</svg>
