<?xml version="1.0" encoding="UTF-8" standalone="no"?>
<!-- Created with Inkscape (http://www.inkscape.org/) -->

<svg
   xmlns:dc="http://purl.org/dc/elements/1.1/"
   xmlns:cc="http://creativecommons.org/ns#"
   xmlns:rdf="http://www.w3.org/1999/02/22-rdf-syntax-ns#"
   xmlns:svg="http://www.w3.org/2000/svg"
   xmlns="http://www.w3.org/2000/svg"
   xmlns:sodipodi="http://sodipodi.sourceforge.net/DTD/sodipodi-0.dtd"
   xmlns:inkscape="http://www.inkscape.org/namespaces/inkscape"
   width="7.9375825mm"
   height="7.9375057mm"
   viewBox="0 0 7.9375826 7.937506"
   version="1.1"
   id="svg1156"
   inkscape:version="0.92.4 (5da689c313, 2019-01-14)"
   sodipodi:docname="quick-learning.svg">
  <defs
     id="defs1150">
    <inkscape:path-effect
       effect="bspline"
       id="path-effect1763"
       is_visible="true"
       weight="33.333333"
       steps="2"
       helper_size="0"
       apply_no_weight="true"
       apply_with_weight="true"
       only_selected="false" />
    <inkscape:path-effect
       only_selected="false"
       apply_with_weight="true"
       apply_no_weight="true"
       helper_size="0"
       steps="2"
       weight="33.333333"
       is_visible="true"
       id="path-effect1739"
       effect="bspline" />
    <inkscape:path-effect
       only_selected="false"
       apply_with_weight="true"
       apply_no_weight="true"
       helper_size="0"
       steps="2"
       weight="33.333333"
       is_visible="true"
       id="path-effect1735"
       effect="bspline" />
    <inkscape:path-effect
       effect="bspline"
       id="path-effect1731"
       is_visible="true"
       weight="33.333333"
       steps="2"
       helper_size="0"
       apply_no_weight="true"
       apply_with_weight="true"
       only_selected="false" />
    <inkscape:path-effect
       effect="bspline"
       id="path-effect1727"
       is_visible="true"
       weight="33.333333"
       steps="2"
       helper_size="0"
       apply_no_weight="true"
       apply_with_weight="true"
       only_selected="false" />
  </defs>
  <sodipodi:namedview
     id="base"
     pagecolor="#ffffff"
     bordercolor="#666666"
     borderopacity="1.0"
     inkscape:pageopacity="0.0"
     inkscape:pageshadow="2"
     inkscape:zoom="2.8"
     inkscape:cx="-43.171544"
     inkscape:cy="-14.489746"
     inkscape:document-units="mm"
     inkscape:current-layer="layer1"
     showgrid="false"
     inkscape:snap-global="true"
     inkscape:window-width="1366"
     inkscape:window-height="705"
     inkscape:window-x="-8"
     inkscape:window-y="-8"
     inkscape:window-maximized="1" />
  <metadata
     id="metadata1153">
    <rdf:RDF>
      <cc:Work
         rdf:about="">
        <dc:format>image/svg+xml</dc:format>
        <dc:type
           rdf:resource="http://purl.org/dc/dcmitype/StillImage" />
        <dc:title />
      </cc:Work>
    </rdf:RDF>
  </metadata>
  <g
     inkscape:label="Layer 1"
     inkscape:groupmode="layer"
     id="layer1"
     transform="translate(54.281225,-208.00528)">
    <g
       id="g835"
       style="stroke:#ffffff">
      <path
         sodipodi:nodetypes="ccscscccsccscsccscccccccccsccscsccscccsc"
         inkscape:connector-curvature="0"
         id="path5158"
         d="m -48.593201,208.15342 c -0.677115,7.2e-4 -1.303257,0.34103 -1.64605,0.89443 -0.09378,-0.26049 -0.271114,-0.48669 -0.507202,-0.64699 -0.236094,-0.16028 -0.519139,-0.24665 -0.809567,-0.247 -0.369495,0 -0.723856,0.1391 -0.985125,0.38671 -0.261274,0.24761 -0.408052,0.58344 -0.408052,0.9336 5.71e-4,0.0504 0.0042,0.1007 0.01082,0.15069 -0.02132,-0.002 -0.04267,-0.002 -0.06397,-0.002 -0.152279,0.009 -0.293931,0.0997 -0.393801,0.25092 -0.09988,0.15118 -0.149778,0.3509 -0.138744,0.55523 0.0073,0.13117 0.03949,0.25853 0.09343,0.37002 -0.20967,0.0451 -0.398102,0.19898 -0.52896,0.43194 -0.130857,0.23297 -0.194877,0.52854 -0.179719,0.82973 0.01653,0.32328 0.122947,0.62736 0.295856,0.84535 0.172909,0.21798 0.39814,0.33202 0.626146,0.31703 0.09103,-0.006 0.180378,-0.0335 0.264701,-0.0799 -0.02159,0.24705 0.06979,0.49794 0.254107,0.69765 0.184309,0.19971 0.446499,0.33191 0.72905,0.36761 0.23739,0.0298 0.474179,-0.0104 0.672887,-0.11429 0.207813,0.36552 0.634412,0.59672 1.101367,0.59691 0.407462,-6e-5 0.788472,-0.17642 1.01751,-0.47099 0.07696,0.2457 0.314134,0.41418 0.58337,0.41439 0.198914,-1e-4 0.385253,-0.0927 0.499162,-0.24799 l 0.725383,1.11129 -9.31e-4,-1.22828 c 0.0521,0.0165 0.106954,0.0252 0.162239,0.0253 0.129912,0 0.254495,-0.0461 0.346355,-0.12849 0.09186,-0.0823 0.143466,-0.19387 0.143466,-0.31023 -1.93e-4,-0.16467 -0.10334,-0.31537 -0.267077,-0.39025 0.141625,-0.008 0.274795,-0.0722 0.372227,-0.17859 0.09743,-0.10637 0.151737,-0.24717 0.151795,-0.39353 0,-0.15205 -0.05854,-0.29786 -0.162739,-0.40537 -0.104194,-0.10751 -0.245515,-0.16791 -0.392875,-0.16791 -0.04006,2.5e-4 -0.07999,0.005 -0.008,-0.008 0.07199,-0.0125 0.238585,-0.11247 0.358935,-0.26361 0.120346,-0.15115 0.186545,-0.34354 0.186671,-0.54251 -1.45e-4,-0.30226 -0.152189,-0.58082 -0.397522,-0.72835 0.134952,-0.25243 0.205634,-0.5313 0.206369,-0.81428 0,-0.48044 -0.201391,-0.94121 -0.559866,-1.28094 -0.358472,-0.33973 -0.844665,-0.53058 -1.351627,-0.53058 z"
         style="fill:none;fill-opacity:1;stroke:#ffffff;stroke-width:0.27596819;stroke-linecap:butt;stroke-linejoin:miter;stroke-miterlimit:4;stroke-dasharray:none;stroke-opacity:1" />
      <path
         sodipodi:nodetypes="cc"
         inkscape:connector-curvature="0"
         id="path5198"
         d="m -50.239251,209.04785 c -0.104694,0.14583 -0.370945,0.99391 -0.112546,1.29859"
         style="fill:none;stroke:#ffffff;stroke-width:0.27596819;stroke-linecap:round;stroke-linejoin:miter;stroke-miterlimit:4;stroke-dasharray:none;stroke-opacity:1" />
      <path
         sodipodi:nodetypes="cc"
         inkscape:connector-curvature="0"
         id="path5200"
         d="m -50.239251,209.04785 c -0.08268,0.16545 -0.649724,1.00062 -1.159253,0.88565"
         style="fill:none;stroke:#ffffff;stroke-width:0.27596819;stroke-linecap:round;stroke-linejoin:miter;stroke-miterlimit:4;stroke-dasharray:none;stroke-opacity:1" />
      <path
         sodipodi:nodetypes="cc"
         inkscape:connector-curvature="0"
         id="path5202"
         d="m -51.307389,214.09497 c -0.09372,-1.18188 0.399124,-1.56129 1.388324,-1.37645"
         style="fill:none;stroke:#ffffff;stroke-width:0.27596819;stroke-linecap:round;stroke-linejoin:miter;stroke-miterlimit:4;stroke-dasharray:none;stroke-opacity:1" />
      <path
         sodipodi:nodetypes="cc"
         inkscape:connector-curvature="0"
         id="path5204"
         d="m -52.195952,212.70724 c 1.032313,-0.28629 0.907119,0.69021 0.901662,0.78022"
         style="fill:none;stroke:#ffffff;stroke-width:0.27596819;stroke-linecap:round;stroke-linejoin:miter;stroke-miterlimit:4;stroke-dasharray:none;stroke-opacity:1" />
      <path
         sodipodi:nodetypes="cc"
         inkscape:connector-curvature="0"
         id="path5206"
         d="m -47.016377,212.31295 c -0.173782,0.0169 -1.375111,0.27219 -1.205869,-1.18324"
         style="fill:none;stroke:#ffffff;stroke-width:0.27596819;stroke-linecap:round;stroke-linejoin:miter;stroke-miterlimit:4;stroke-dasharray:none;stroke-opacity:1" />
      <path
         sodipodi:nodetypes="cc"
         inkscape:connector-curvature="0"
         id="path5208"
         d="m -49.188513,214.22089 c 0.02116,-0.10028 0.544247,-1.13532 1.029649,-0.73224"
         style="fill:none;stroke:#ffffff;stroke-width:0.27596819;stroke-linecap:round;stroke-linejoin:miter;stroke-miterlimit:4;stroke-dasharray:none;stroke-opacity:1" />
      <path
         sodipodi:nodetypes="cc"
         inkscape:connector-curvature="0"
         id="path5212"
         d="m -53.470784,210.75621 c 0,0 0.232047,0.47105 0.683998,0.24589"
         style="fill:none;stroke:#ffffff;stroke-width:0.27596819;stroke-linecap:round;stroke-linejoin:miter;stroke-miterlimit:4;stroke-dasharray:none;stroke-opacity:1" />
      <path
         inkscape:connector-curvature="0"
         id="path5214"
         d="m -46.888072,210.77922 c 0,0 -0.187875,0.33208 -0.35513,0.325"
         style="fill:none;stroke:#ffffff;stroke-width:0.27596819;stroke-linecap:butt;stroke-linejoin:round;stroke-miterlimit:4;stroke-dasharray:none;stroke-opacity:1" />
    </g>
  </g>
</svg>
