<?xml version="1.0" encoding="UTF-8" standalone="no"?>
<svg
   xmlns:dc="http://purl.org/dc/elements/1.1/"
   xmlns:cc="http://creativecommons.org/ns#"
   xmlns:rdf="http://www.w3.org/1999/02/22-rdf-syntax-ns#"
   xmlns:svg="http://www.w3.org/2000/svg"
   xmlns="http://www.w3.org/2000/svg"
   xmlns:sodipodi="http://sodipodi.sourceforge.net/DTD/sodipodi-0.dtd"
   xmlns:inkscape="http://www.inkscape.org/namespaces/inkscape"
   width="60.000114"
   height="60.000114"
   viewBox="0 0 6.1440117 6.1440117"
   preserveAspectRatio="xMinYMin meet"
   version="1.1"
   id="svg6"
   sodipodi:docname="bootstrap_svg.svg"
   inkscape:version="0.92.4 (5da689c313, 2019-01-14)">
  <metadata
     id="metadata12">
    <rdf:RDF>
      <cc:Work
         rdf:about="">
        <dc:format>image/svg+xml</dc:format>
        <dc:type
           rdf:resource="http://purl.org/dc/dcmitype/StillImage" />
        <dc:title />
      </cc:Work>
    </rdf:RDF>
  </metadata>
  <defs
     id="defs10">
    <filter
       inkscape:collect="always"
       style="color-interpolation-filters:sRGB"
       id="filter1341"
       x="-0.035999998"
       width="1.072"
       y="-0.035999998"
       height="1.072">
      <feGaussianBlur
         inkscape:collect="always"
         stdDeviation="0.22360249"
         id="feGaussianBlur1343" />
    </filter>
  </defs>
  <sodipodi:namedview
     pagecolor="#ffffff"
     bordercolor="#666666"
     borderopacity="1"
     objecttolerance="10"
     gridtolerance="10"
     guidetolerance="10"
     inkscape:pageopacity="0"
     inkscape:pageshadow="2"
     inkscape:window-width="1366"
     inkscape:window-height="705"
     id="namedview8"
     showgrid="false"
     inkscape:zoom="3.0208"
     inkscape:cx="26.710768"
     inkscape:cy="33.184035"
     inkscape:window-x="-8"
     inkscape:window-y="-8"
     inkscape:window-maximized="1"
     inkscape:current-layer="svg6" />
  <rect
     style="opacity:1;fill:#563d7c;fill-opacity:1;stroke:#303030;stroke-width:0.19351181;stroke-linecap:round;stroke-linejoin:round;stroke-miterlimit:4;stroke-dasharray:none;stroke-dashoffset:0;stroke-opacity:1;paint-order:fill markers stroke"
     id="rect1412"
     width="5.3360877"
     height="5.3360877"
     x="0.4039619"
     y="0.40395355"
     rx="0"
     ry="0" />
  <rect
     rx="1.213828"
     style="opacity:1;fill:#666666;fill-opacity:1;stroke:none;stroke-width:0.50331002;stroke-linecap:round;stroke-linejoin:round;stroke-miterlimit:4;stroke-dasharray:none;stroke-dashoffset:0;stroke-opacity:0.50196078;paint-order:fill markers stroke;filter:url(#filter1341)"
     id="rect1419"
     width="14.906833"
     height="14.906833"
     x="91.071602"
     y="-119.73991"
     transform="matrix(0.38447833,0,0,0.38447833,-34.808729,46.243728)"
     ry="1.213828" />
  <rect
     rx="0"
     ry="0"
     y="0.40395355"
     x="0.4039619"
     height="5.3360882"
     width="5.3360882"
     id="rect1421"
     style="opacity:1;fill:#563d7c;fill-opacity:1;stroke:#303030;stroke-width:0.19351181;stroke-linecap:round;stroke-linejoin:round;stroke-miterlimit:4;stroke-dasharray:none;stroke-dashoffset:0;stroke-opacity:1;paint-order:fill markers stroke" />
  <path
     style="opacity:1;fill:#654892;fill-opacity:1;stroke:none;stroke-width:0.19351183;stroke-linecap:round;stroke-linejoin:round;stroke-miterlimit:4;stroke-dasharray:none;stroke-dashoffset:0;stroke-opacity:1;paint-order:fill markers stroke"
     d="M 3.0512733,0.6964052 V 5.4475879 H 5.4172534 V 0.6964052 Z"
     id="rect1455"
     inkscape:connector-curvature="0" />
  <path
     inkscape:connector-curvature="0"
     style="fill:#ffffff;stroke-width:0.99999988"
     d="M 2.4140772,2.737562 V 1.9162309 h 0.681087 c 0.064883,0 0.1274193,0.00573 0.1876503,0.017194 0.060231,0.011463 0.1135249,0.031938 0.1598612,0.06146 0.046316,0.029488 0.083389,0.070508 0.1111991,0.1229549 0.027788,0.052456 0.041703,0.1196911 0.041703,0.2016304 0,0.1475599 -0.041703,0.2541304 -0.1251149,0.3196984 -0.083389,0.065586 -0.1899551,0.098367 -0.3197014,0.098367 z M 1.6866325,1.3162003 v 3.5116036 h 1.6031392 c 0.1482725,0 0.2926818,-0.019687 0.4332272,-0.059018 C 3.8635438,4.7294102 3.9886381,4.6687815 4.0982998,4.586816 4.207941,4.5048461 4.2952138,4.3990937 4.3600754,4.2695938 4.4249593,4.140072 4.4573798,3.9867852 4.4573798,3.8097335 4.4573798,3.5900387 4.4071804,3.4023383 4.3068025,3.2466103 4.2064032,3.0908517 4.0542688,2.9818312 3.8503971,2.9195268 3.9986692,2.8441326 4.110658,2.7473927 4.1863413,2.6293596 4.2620028,2.5113178 4.2998448,2.3637887 4.2998448,2.1867107 4.2998448,2.0227795 4.274361,1.8850766 4.2233933,1.773593 4.1724256,1.6621224 4.1006046,1.5727719 4.0079325,1.5055544 3.9152806,1.4383326 3.8040823,1.3899626 3.674336,1.3604664 3.5446111,1.3309789 3.4009704,1.3161915 3.2434359,1.3161915 Z m 0.7274447,2.9115728 v -0.963969 h 0.7922853 c 0.157535,0 0.284186,0.038543 0.3799534,0.115583 0.095746,0.077057 0.1436411,0.2057342 0.1436411,0.3860758 0,0.091826 -0.014685,0.1672168 -0.04403,0.2262398 -0.02935,0.059018 -0.068726,0.1057521 -0.1181572,0.1401705 -0.049409,0.034388 -0.1065668,0.059014 -0.1714288,0.073789 -0.064884,0.014699 -0.1328203,0.022094 -0.2038717,0.022094 z"
     id="path4-7" />
  <path
     inkscape:connector-curvature="0"
     style="opacity:1;fill:#ececec;fill-opacity:1;stroke:none;stroke-width:0.19351183;stroke-linecap:round;stroke-linejoin:round;stroke-miterlimit:4;stroke-dasharray:none;stroke-dashoffset:0;stroke-opacity:1;paint-order:fill markers stroke"
     d="M 1.6866734,1.3162037 V 4.8277918 H 3.0512732 V 4.2278434 H 2.4140738 V 3.2638073 H 3.0512732 V 2.7375252 H 2.4140738 V 1.9161521 H 3.0512732 V 1.3162037 Z"
     id="path1458" />
</svg>
