<?xml version="1.0" encoding="UTF-8" standalone="no"?>
<!-- Created with Inkscape (http://www.inkscape.org/) -->

<svg
   xmlns:dc="http://purl.org/dc/elements/1.1/"
   xmlns:cc="http://creativecommons.org/ns#"
   xmlns:rdf="http://www.w3.org/1999/02/22-rdf-syntax-ns#"
   xmlns:svg="http://www.w3.org/2000/svg"
   xmlns="http://www.w3.org/2000/svg"
   xmlns:sodipodi="http://sodipodi.sourceforge.net/DTD/sodipodi-0.dtd"
   xmlns:inkscape="http://www.inkscape.org/namespaces/inkscape"
   width="10.583333mm"
   height="10.58333mm"
   viewBox="0 0 10.583333 10.58333"
   version="1.1"
   id="svg2175"
   inkscape:version="0.92.4 (5da689c313, 2019-01-14)"
   sodipodi:docname="git.svg">
  <defs
     id="defs2169" />
  <sodipodi:namedview
     id="base"
     pagecolor="#ffffff"
     bordercolor="#666666"
     borderopacity="1.0"
     inkscape:pageopacity="0.0"
     inkscape:pageshadow="2"
     inkscape:zoom="2.8"
     inkscape:cx="-47.386346"
     inkscape:cy="28.557532"
     inkscape:document-units="mm"
     inkscape:current-layer="layer1"
     showgrid="false"
     inkscape:window-width="1366"
     inkscape:window-height="705"
     inkscape:window-x="-8"
     inkscape:window-y="-8"
     inkscape:window-maximized="1"
     showguides="false" />
  <metadata
     id="metadata2172">
    <rdf:RDF>
      <cc:Work
         rdf:about="">
        <dc:format>image/svg+xml</dc:format>
        <dc:type
           rdf:resource="http://purl.org/dc/dcmitype/StillImage" />
        <dc:title />
      </cc:Work>
    </rdf:RDF>
  </metadata>
  <g
     inkscape:label="Layer 1"
     inkscape:groupmode="layer"
     id="layer1"
     transform="translate(88.652827,-144.84609)">
    <path
       style="opacity:1;fill:#939dac;fill-opacity:1;stroke:#939dac;stroke-width:1.40220475;stroke-linecap:butt;stroke-linejoin:round;stroke-miterlimit:4;stroke-dasharray:none;stroke-dashoffset:0;stroke-opacity:1;paint-order:fill markers stroke"
       d="M 9.5839844 8.8613281 L 8.5703125 11.072266 L 12.027344 12.908203 A 3.5515326 3.1057163 0 0 0 12.003906 13.257812 A 3.5515326 3.1057163 0 0 0 14.380859 16.185547 L 14.380859 25.113281 A 3.5515326 3.1057163 0 0 0 12.029297 28.033203 A 3.5515326 3.1057163 0 0 0 15.582031 31.138672 A 3.5515326 3.1057163 0 0 0 19.132812 28.033203 A 3.5515326 3.1057163 0 0 0 16.78125 25.113281 L 16.78125 16.169922 A 3.5515326 3.1057163 0 0 0 17.533203 15.833984 L 24.361328 19.458984 A 3.5515326 3.1057163 0 0 0 24.326172 19.871094 A 3.5515326 3.1057163 0 0 0 27.876953 22.976562 A 3.5515326 3.1057163 0 0 0 31.429688 19.871094 A 3.5515326 3.1057163 0 0 0 27.876953 16.763672 A 3.5515326 3.1057163 0 0 0 25.630859 17.466797 L 19.021484 13.921875 A 3.5515326 3.1057163 0 0 0 19.105469 13.257812 A 3.5515326 3.1057163 0 0 0 15.554688 10.152344 A 3.5515326 3.1057163 0 0 0 13.306641 10.857422 L 9.5839844 8.8613281 z "
       transform="matrix(0.26458333,0,0,0.26458333,-88.652827,144.84609)"
       id="path1434" />
    <path
       sodipodi:nodetypes="sssssssss"
       inkscape:connector-curvature="0"
       d="m -86.860918,145.08159 h 6.999515 c 0.862234,0 1.556409,0.56376 1.556409,1.26403 v 7.58426 c 0,0.70027 -0.694175,1.26404 -1.556409,1.26404 h -6.999515 c -0.862212,0 -1.556409,-0.56377 -1.556409,-1.26404 v -7.58426 c 0,-0.70027 0.694197,-1.26403 1.556409,-1.26403 z"
       style="opacity:1;fill:none;fill-opacity:1;stroke:#939dac;stroke-width:0.47099999;stroke-linecap:round;stroke-linejoin:miter;stroke-miterlimit:4;stroke-dasharray:none;stroke-dashoffset:0;stroke-opacity:1;paint-order:fill markers stroke"
       id="path1887" />
  </g>
</svg>
