<?xml version="1.0" encoding="UTF-8" standalone="no"?>
<!-- Generator: Adobe Illustrator 19.0.0, SVG Export Plug-In . SVG Version: 6.00 Build 0)  -->

<svg
   xmlns:dc="http://purl.org/dc/elements/1.1/"
   xmlns:cc="http://creativecommons.org/ns#"
   xmlns:rdf="http://www.w3.org/1999/02/22-rdf-syntax-ns#"
   xmlns:svg="http://www.w3.org/2000/svg"
   xmlns="http://www.w3.org/2000/svg"
   xmlns:sodipodi="http://sodipodi.sourceforge.net/DTD/sodipodi-0.dtd"
   xmlns:inkscape="http://www.inkscape.org/namespaces/inkscape"
   version="1.1"
   id="Layer_1"
   x="0px"
   y="0px"
   viewBox="0 0 91.118772 91.118775"
   xml:space="preserve"
   sodipodi:docname="gmail.svg"
   width="91.118774"
   height="91.118774"
   inkscape:version="0.92.4 (5da689c313, 2019-01-14)"><metadata
   id="metadata51"><rdf:RDF><cc:Work
       rdf:about=""><dc:format>image/svg+xml</dc:format><dc:type
         rdf:resource="http://purl.org/dc/dcmitype/StillImage" /><dc:title /></cc:Work></rdf:RDF></metadata><defs
   id="defs49">
	
	
</defs><sodipodi:namedview
   pagecolor="#ffffff"
   bordercolor="#666666"
   borderopacity="1"
   objecttolerance="10"
   gridtolerance="10"
   guidetolerance="10"
   inkscape:pageopacity="0"
   inkscape:pageshadow="2"
   inkscape:window-width="1366"
   inkscape:window-height="705"
   id="namedview47"
   showgrid="false"
   inkscape:zoom="3.6875"
   inkscape:cx="-1.6514975"
   inkscape:cy="54.169333"
   inkscape:window-x="-8"
   inkscape:window-y="-8"
   inkscape:window-maximized="1"
   inkscape:current-layer="Layer_1" />




















<circle
   style="opacity:1;fill:#ececec;fill-opacity:1;stroke:#ececec;stroke-width:11.33858299;stroke-linecap:round;stroke-linejoin:round;stroke-miterlimit:4;stroke-dasharray:none;stroke-dashoffset:0;stroke-opacity:1;paint-order:markers stroke fill"
   id="path1007"
   cx="45.559387"
   cy="45.559387"
   r="39.890095" /><g
   id="g902"
   transform="matrix(0.85218732,0,0,0.85218732,49.508562,-90.764343)"
   style="stroke-width:1.17345095"><polygon
     transform="matrix(0.11367665,0,0,0.11367665,-33.735385,130.86801)"
     style="fill:#ffffff;stroke-width:10.32270908"
     points="33.379,129.16 256,253.802 484.973,122.808 452.288,451.017 59.712,451.017 "
     id="polygon2" /><polygon
     transform="matrix(0.11367665,0,0,0.11367665,-33.735385,130.86801)"
     style="fill:#ffffff;stroke-width:10.32270908"
     points="473.886,60.983 256,265.659 38.114,60.983 256,60.983 "
     id="polygon4" /><path
     inkscape:connector-curvature="0"
     id="path8-1"
     d="m -26.947526,148.54392 v 33.59421 h -4.043826 c -1.514967,0 -2.744033,-1.229 -2.744033,-2.74411 v -35.79799 l 4.433388,0.12084 z"
     style="fill:#f14336;stroke-width:1.17345095" /><path
     inkscape:connector-curvature="0"
     id="path858"
     d="m -27.510484,175.25698 0.555508,6.78773 h 44.643395 l 0.676067,-6.78773 z"
     style="fill:#f14336;stroke-width:1.17345095" /><path
     sodipodi:nodetypes="csscccc"
     inkscape:connector-curvature="0"
     id="path10"
     d="m 24.467059,143.59603 v 35.79799 c 0,1.51503 -1.220159,2.68112 -2.736301,2.65069 h -4.042339 l -0.0092,-33.5008 2.238518,-5.28879 z"
     style="fill:#d32e2a;stroke-width:1.17345095" /><path
     sodipodi:nodetypes="cccccc"
     inkscape:connector-curvature="0"
     id="rect885"
     d="m -33.735385,141.54983 0.0077,3.67221 6.780256,4.83222 v -3.55661 l -2.35457,-4.82704 z"
     style="opacity:1;fill:#d32e2a;fill-opacity:1;stroke:none;stroke-width:13.30526924;stroke-linecap:round;stroke-linejoin:round;stroke-miterlimit:4;stroke-dasharray:none;stroke-dashoffset:0;stroke-opacity:1;paint-order:markers stroke fill" /><path
     inkscape:connector-curvature="0"
     id="path12"
     d="m 24.467059,140.54438 v 3.05165 l -6.787859,4.94789 -22.3133633,16.26349 -22.3133627,-16.26349 -6.787859,-4.94789 v -3.05165 c 0,-1.51497 1.229066,-2.74404 2.744033,-2.74404 h 1.588638 l 24.7685507,18.05288 24.7685513,-18.05288 h 1.58715 c 1.516447,0 2.745521,1.22896 2.745521,2.74404 z"
     style="fill:#f14336;stroke-width:1.17345095" /><path
     inkscape:connector-curvature="0"
     id="path880"
     d="m -29.402798,137.80028 6.169844,5.79573 H 13.96462 l 6.169844,-5.79573 H -4.6341633 Z"
     style="fill:#f14336;stroke-width:1.17345095" /></g></svg>