<?xml version="1.0" encoding="UTF-8" standalone="no"?>
<!-- Created with Inkscape (http://www.inkscape.org/) -->

<svg
   xmlns:dc="http://purl.org/dc/elements/1.1/"
   xmlns:cc="http://creativecommons.org/ns#"
   xmlns:rdf="http://www.w3.org/1999/02/22-rdf-syntax-ns#"
   xmlns:svg="http://www.w3.org/2000/svg"
   xmlns="http://www.w3.org/2000/svg"
   xmlns:sodipodi="http://sodipodi.sourceforge.net/DTD/sodipodi-0.dtd"
   xmlns:inkscape="http://www.inkscape.org/namespaces/inkscape"
   width="10.583333mm"
   height="10.58333mm"
   viewBox="0 0 10.583334 10.58333"
   version="1.1"
   id="svg1544"
   inkscape:version="0.92.4 (5da689c313, 2019-01-14)"
   sodipodi:docname="rwd.svg">
  <defs
     id="defs1538">
    <inkscape:path-effect
       effect="spiro"
       id="path-effect842"
       is_visible="true" />
    <inkscape:path-effect
       is_visible="true"
       id="path-effect838"
       effect="spiro" />
    <inkscape:path-effect
       is_visible="true"
       id="path-effect834"
       effect="spiro" />
    <inkscape:path-effect
       effect="spiro"
       id="path-effect830"
       is_visible="true" />
  </defs>
  <sodipodi:namedview
     id="base"
     pagecolor="#ffffff"
     bordercolor="#666666"
     borderopacity="1.0"
     inkscape:pageopacity="0.0"
     inkscape:pageshadow="2"
     inkscape:zoom="4"
     inkscape:cx="-21.813699"
     inkscape:cy="16.778783"
     inkscape:document-units="mm"
     inkscape:current-layer="layer1"
     showgrid="false"
     inkscape:window-width="1366"
     inkscape:window-height="705"
     inkscape:window-x="-8"
     inkscape:window-y="-8"
     inkscape:window-maximized="1"
     inkscape:snap-global="false" />
  <metadata
     id="metadata1541">
    <rdf:RDF>
      <cc:Work
         rdf:about="">
        <dc:format>image/svg+xml</dc:format>
        <dc:type
           rdf:resource="http://purl.org/dc/dcmitype/StillImage" />
        <dc:title />
      </cc:Work>
    </rdf:RDF>
  </metadata>
  <g
     inkscape:label="Layer 1"
     inkscape:groupmode="layer"
     id="layer1"
     transform="translate(-39.449624,-316.11336)">
    <path
       style="fill:none;fill-opacity:1;stroke:#939dac;stroke-width:0.37100002;stroke-miterlimit:4;stroke-dasharray:none;stroke-opacity:1"
       id="path4"
       d="m 48.736907,323.6223 h -7.233432 c -0.375159,0 -0.682816,-0.3076 -0.682816,-0.68278 v -5.9578 c 0,-0.37515 0.307657,-0.68286 0.682816,-0.68286 h 7.233432 c 0.375195,0 0.682817,0.30771 0.682817,0.68286 v 5.9578 c 0,0.38262 -0.307622,0.68278 -0.682817,0.68278 z"
       class="st0"
       inkscape:connector-curvature="0" />
    <path
       style="fill:#939dac;fill-opacity:1;stroke:#939dac;stroke-width:0.37100002;stroke-miterlimit:4;stroke-dasharray:none;stroke-opacity:1"
       id="path6"
       d="m 45.695746,325.01795 h -0.442077 c -0.107656,0 -0.198401,-0.11996 -0.198401,-0.26259 v -1.02799 h 0.838878 v 1.02799 c 0,0.15002 -0.09067,0.26259 -0.1984,0.26259 z"
       class="st1"
       inkscape:connector-curvature="0" />
    <path
       style="fill:#939dac;fill-opacity:1;stroke:#939dac;stroke-width:0.37100002;stroke-miterlimit:4;stroke-dasharray:none;stroke-opacity:1"
       id="path10"
       d="m 46.402475,325.26209 h -1.815847 c -0.150035,0 -0.270114,-0.0911 -0.270114,-0.20482 v 0 c 0,-0.11394 0.120073,-0.20483 0.270114,-0.20483 h 1.815847 c 0.150103,0 0.270148,0.0909 0.270148,0.20483 v 0 c 0,0.11377 -0.120038,0.20482 -0.270148,0.20482 z"
       class="st1"
       inkscape:connector-curvature="0" />
    <path
       style="fill:#424242;fill-opacity:1;stroke:#939dac;stroke-width:0.37100002;stroke-miterlimit:4;stroke-dasharray:none;stroke-opacity:1"
       id="path42"
       d="m 43.274334,326.51119 h -2.858863 c -0.435216,0 -0.780347,-0.35264 -0.780347,-0.78035 v -5.37252 c 0,-0.43524 0.352683,-0.78041 0.780347,-0.78041 h 2.858863 c 0.43518,0 0.78042,0.35266 0.78042,0.78041 v 5.37252 c 0,0.43515 -0.34524,0.78035 -0.78042,0.78035 z"
       class="st7"
       inkscape:connector-curvature="0" />
    <path
       style="fill:#424242;fill-opacity:1;stroke:#939dac;stroke-width:0.37100002;stroke-miterlimit:4;stroke-dasharray:none;stroke-opacity:1"
       id="path28"
       d="m 49.182776,326.34613 h -1.460633 c -0.369248,0 -0.664679,-0.27014 -0.664679,-0.6078 v -4.00687 c 0,-0.33772 0.295431,-0.60777 0.664679,-0.60777 h 1.460633 c 0.369211,0 0.664681,0.27005 0.664681,0.60777 v 4.00687 c 0,0.33766 -0.303612,0.6078 -0.664681,0.6078 z"
       class="st6"
       inkscape:connector-curvature="0" />
  </g>
</svg>
