<?xml version="1.0" encoding="UTF-8" standalone="no"?>
<!-- Created with Inkscape (http://www.inkscape.org/) -->

<svg
   xmlns:dc="http://purl.org/dc/elements/1.1/"
   xmlns:cc="http://creativecommons.org/ns#"
   xmlns:rdf="http://www.w3.org/1999/02/22-rdf-syntax-ns#"
   xmlns:svg="http://www.w3.org/2000/svg"
   xmlns="http://www.w3.org/2000/svg"
   xmlns:sodipodi="http://sodipodi.sourceforge.net/DTD/sodipodi-0.dtd"
   xmlns:inkscape="http://www.inkscape.org/namespaces/inkscape"
   width="10.583333mm"
   height="10.583333mm"
   viewBox="0 0 10.583333 10.583333"
   version="1.1"
   id="svg2813"
   inkscape:version="0.92.4 (5da689c313, 2019-01-14)"
   sodipodi:docname="seo.svg">
  <defs
     id="defs2807" />
  <sodipodi:namedview
     id="base"
     pagecolor="#ffffff"
     bordercolor="#666666"
     borderopacity="1.0"
     inkscape:pageopacity="0.0"
     inkscape:pageshadow="2"
     inkscape:zoom="1.4"
     inkscape:cx="-38.563065"
     inkscape:cy="-13.699292"
     inkscape:document-units="mm"
     inkscape:current-layer="layer1"
     showgrid="false"
     inkscape:window-width="1366"
     inkscape:window-height="705"
     inkscape:window-x="-8"
     inkscape:window-y="-8"
     inkscape:window-maximized="1"
     showguides="false" />
  <metadata
     id="metadata2810">
    <rdf:RDF>
      <cc:Work
         rdf:about="">
        <dc:format>image/svg+xml</dc:format>
        <dc:type
           rdf:resource="http://purl.org/dc/dcmitype/StillImage" />
        <dc:title />
      </cc:Work>
    </rdf:RDF>
  </metadata>
  <g
     inkscape:label="Layer 1"
     inkscape:groupmode="layer"
     id="layer1"
     transform="translate(39.137822,-97.976935)">
    <g
       id="g894"
       style="fill-opacity:1;stroke:#939dac;stroke-opacity:1">
      <g
         style="stroke:#939dac;stroke-width:2.40861842;stroke-miterlimit:4;stroke-dasharray:none;stroke-opacity:1;fill-opacity:1"
         transform="matrix(0.22930372,0.06127244,-0.06144174,0.22867183,647.71608,-475.79052)"
         id="g1718">
        <path
           style="opacity:1;fill:none;fill-opacity:1;stroke:#939dac;stroke-width:2.15811038;stroke-linecap:butt;stroke-linejoin:round;stroke-miterlimit:4;stroke-dasharray:none;stroke-dashoffset:0;stroke-opacity:1;paint-order:fill markers stroke"
           d="M 15.628906 8.6972656 A 6.8315953 6.8127697 0.00060983579 0 0 10.699219 10.691406 A 6.8315953 6.8127697 0.00060983579 0 0 10.699219 20.326172 A 6.8315953 6.8127697 0.00060983579 0 0 20.359375 20.326172 A 6.8315953 6.8127697 0.00060983579 0 0 20.359375 10.691406 A 6.8315953 6.8127697 0.00060983579 0 0 15.628906 8.6972656 z M 20.359375 20.326172 L 19.6875 20.998047 L 21.296875 22.603516 L 20.626953 23.271484 L 28.677734 31.298828 L 31.298828 28.6875 L 23.246094 20.658203 L 22.642578 21.261719 L 21.033203 19.654297 L 20.359375 20.326172 z "
           transform="matrix(1.0765617,-0.28846388,0.28926093,1.0795366,-2167.4537,3089.898)"
           id="path1678" />
      </g>
      <path
         id="path1887"
         style="opacity:1;fill:none;fill-opacity:1;stroke:#939dac;stroke-width:0.47077617;stroke-linecap:round;stroke-linejoin:miter;stroke-miterlimit:4;stroke-dasharray:none;stroke-dashoffset:0;stroke-opacity:1;paint-order:fill markers stroke"
         d="m -37.34599,98.212323 h 6.99967 c 0.862252,0 1.556443,0.563781 1.556443,1.264067 v 7.58443 c 0,0.70028 -0.694191,1.26406 -1.556443,1.26406 h -6.99967 c -0.862231,0 -1.556444,-0.56378 -1.556444,-1.26406 v -7.58443 c 0,-0.700286 0.694213,-1.264067 1.556444,-1.264067 z"
         inkscape:connector-curvature="0"
         sodipodi:nodetypes="sssssssss" />
    </g>
  </g>
</svg>
