<?xml version="1.0" encoding="UTF-8" standalone="no"?>
<!-- Created with Inkscape (http://www.inkscape.org/) -->

<svg
   xmlns:dc="http://purl.org/dc/elements/1.1/"
   xmlns:cc="http://creativecommons.org/ns#"
   xmlns:rdf="http://www.w3.org/1999/02/22-rdf-syntax-ns#"
   xmlns:svg="http://www.w3.org/2000/svg"
   xmlns="http://www.w3.org/2000/svg"
   xmlns:sodipodi="http://sodipodi.sourceforge.net/DTD/sodipodi-0.dtd"
   xmlns:inkscape="http://www.inkscape.org/namespaces/inkscape"
   width="24.108509mm"
   height="24.108509mm"
   viewBox="0 0 24.108508 24.108507"
   version="1.1"
   id="svg997"
   inkscape:version="0.92.4 (5da689c313, 2019-01-14)"
   sodipodi:docname="seo_svg-circle.svg">
  <defs
     id="defs991">
    <radialGradient
       gradientUnits="userSpaceOnUse"
       gradientTransform="matrix(0.17634384,0,0,-0.11625894,-123.10702,197.71977)"
       r="30.6"
       cy="1499.38"
       cx="751.02698"
       id="SVGID_4_-7-3">
      <stop
         id="stop58-93-7"
         stop-color="#fff"
         offset="0" />
      <stop
         id="stop60-9-3"
         stop-opacity="0"
         stop-color="#fff"
         offset="1" />
    </radialGradient>
    <filter
       style="color-interpolation-filters:sRGB"
       height="1.228"
       id="l-7-7"
       width="1.156"
       x="-0.078000002"
       y="-0.114">
      <feGaussianBlur
         stdDeviation="1.958"
         id="feGaussianBlur16-7-0" />
    </filter>
    <radialGradient
       gradientUnits="userSpaceOnUse"
       gradientTransform="matrix(10.2775,0,0,-6.8772,-7655.078,11104.272)"
       r="30.6"
       cy="1464.667"
       cx="792.51898"
       id="SVGID_5_-6-9">
      <stop
         id="stop65-2-8"
         stop-color="#fff"
         offset="0" />
      <stop
         id="stop67-8-1"
         stop-opacity="0"
         stop-color="#fff"
         offset="1" />
    </radialGradient>
    <radialGradient
       gradientUnits="userSpaceOnUse"
       gradientTransform="matrix(0.11231711,0,0,-0.04683357,-66.492965,100.17438)"
       r="34.25"
       cy="1812.4871"
       cx="778.58801"
       id="SVGID_6_-1-3">
      <stop
         id="stop74-4-2"
         stop-color="#fff"
         offset="0" />
      <stop
         id="stop76-9-5"
         stop-opacity="0"
         stop-color="#fff"
         offset="1" />
    </radialGradient>
    <filter
       style="color-interpolation-filters:sRGB"
       height="1.351"
       id="o-5-3"
       width="1.149"
       x="-0.074000001"
       y="-0.175">
      <feGaussianBlur
         stdDeviation="2.12"
         id="feGaussianBlur13-9-5" />
    </filter>
    <radialGradient
       gradientUnits="userSpaceOnUse"
       gradientTransform="matrix(5.1304,0,0,-2.1713,-3103.88,4575.764)"
       r="34.25"
       cy="1798.854"
       cx="785.86298"
       id="SVGID_7_-2-0">
      <stop
         id="stop81-9-9"
         stop-color="#fff"
         offset="0" />
      <stop
         id="stop83-13-9"
         stop-opacity="0"
         stop-color="#fff"
         offset="1" />
    </radialGradient>
    <filter
       style="color-interpolation-filters:sRGB"
       height="1.946"
       id="t-4-0"
       width="1.14"
       x="-0.07"
       y="-0.47299999">
      <feGaussianBlur
         stdDeviation=".821"
         id="feGaussianBlur7-2-4" />
    </filter>
    <filter
       style="color-interpolation-filters:sRGB"
       height="1.946"
       id="filter2049"
       width="1.14"
       x="-0.07"
       y="-0.47299999">
      <feGaussianBlur
         stdDeviation=".821"
         id="feGaussianBlur2047" />
    </filter>
    <radialGradient
       gradientUnits="userSpaceOnUse"
       gradientTransform="matrix(0.11231711,0,0,-0.04503254,-66.492965,99.36529)"
       r="22.75"
       cy="1808.476"
       cx="657.79999"
       id="SVGID_14_-2-5">
      <stop
         id="stop140-14-7"
         stop-opacity=".33"
         stop-color="#fff"
         offset="0" />
      <stop
         id="stop142-2-1"
         stop-opacity="0"
         stop-color="#fff"
         offset="1" />
    </radialGradient>
    <filter
       style="color-interpolation-filters:sRGB"
       height="1.331"
       id="w-47-6"
       width="1.152"
       x="-0.075999998"
       y="-0.16599999">
      <feGaussianBlur
         stdDeviation=".665"
         id="feGaussianBlur4-0-3" />
    </filter>
    <filter
       style="color-interpolation-filters:sRGB"
       height="1.245"
       id="A-5-6"
       width="1.165"
       x="-0.082999997"
       y="-0.122">
      <feGaussianBlur
         stdDeviation="3.687"
         id="feGaussianBlur25-8-3" />
    </filter>
    <linearGradient
       id="SVGID_19_-6"
       gradientUnits="userSpaceOnUse"
       x1="650.41699"
       y1="1573.592"
       x2="708.41699"
       y2="1558.256"
       gradientTransform="matrix(4.7299,0,0,-4.7284,-2745.485,8224.994)">
      <stop
         offset="0"
         stop-color="#fff"
         id="stop179-3" />
      <stop
         offset="1"
         stop-color="#fff"
         stop-opacity="0"
         id="stop181-0" />
    </linearGradient>
    <linearGradient
       id="SVGID_20_-0"
       gradientUnits="userSpaceOnUse"
       x1="708.63702"
       y1="1605.906"
       x2="705.45599"
       y2="1598.6169"
       gradientTransform="matrix(9.6864,0,0,-9.6834,-6413.005,16207.014)">
      <stop
         offset="0"
         stop-color="#eeeeec"
         id="stop188-2" />
      <stop
         offset="1"
         stop-color="#eeeeec"
         stop-opacity="0"
         id="stop190-1" />
    </linearGradient>
    <filter
       style="color-interpolation-filters:sRGB"
       id="D-3-5">
      <feGaussianBlur
         stdDeviation="1.241"
         id="feGaussianBlur22-3-0" />
    </filter>
    <radialGradient
       gradientUnits="userSpaceOnUse"
       gradientTransform="matrix(6.3925,0,0,-8.1214,-4297.036,12908.758)"
       r="22.466"
       cy="1483.588"
       cx="785.73602"
       id="SVGID_21_-5-1">
      <stop
         id="stop195-49-8"
         stop-color="#fff"
         offset="0" />
      <stop
         id="stop197-7-5"
         stop-opacity="0"
         stop-color="#fff"
         offset="1" />
    </radialGradient>
    <linearGradient
       gradientTransform="matrix(0.21205922,0,0,-0.20886487,-138.93789,350.85885)"
       y2="1599.097"
       x2="688.78699"
       y1="1602.6379"
       x1="684.33099"
       gradientUnits="userSpaceOnUse"
       id="SVGID_22_-8-2">
      <stop
         id="stop208-2-6"
         stop-color="#fff"
         offset="0" />
      <stop
         id="stop210-6-0"
         stop-opacity="0"
         stop-color="#fff"
         offset="1" />
    </linearGradient>
    <filter
       style="color-interpolation-filters:sRGB"
       id="F-3-5">
      <feGaussianBlur
         stdDeviation="2.77"
         id="feGaussianBlur19-8-7" />
    </filter>
  </defs>
  <sodipodi:namedview
     id="base"
     pagecolor="#ffffff"
     bordercolor="#666666"
     borderopacity="1.0"
     inkscape:pageopacity="0.0"
     inkscape:pageshadow="2"
     inkscape:zoom="3.959798"
     inkscape:cx="26.151287"
     inkscape:cy="65.843259"
     inkscape:document-units="mm"
     inkscape:current-layer="layer1"
     showgrid="false"
     inkscape:window-width="1366"
     inkscape:window-height="705"
     inkscape:window-x="-8"
     inkscape:window-y="-8"
     inkscape:window-maximized="1"
     inkscape:snap-global="false" />
  <metadata
     id="metadata994">
    <rdf:RDF>
      <cc:Work
         rdf:about="">
        <dc:format>image/svg+xml</dc:format>
        <dc:type
           rdf:resource="http://purl.org/dc/dcmitype/StillImage" />
        <dc:title></dc:title>
      </cc:Work>
    </rdf:RDF>
  </metadata>
  <g
     inkscape:label="Layer 1"
     inkscape:groupmode="layer"
     id="layer1"
     transform="translate(32.545584,-166.73902)">
    <circle
       style="opacity:1;fill:#9ccff4;fill-opacity:0.99715906;stroke:#63b3ee;stroke-width:3;stroke-linecap:round;stroke-linejoin:round;stroke-miterlimit:4;stroke-dasharray:none;stroke-dashoffset:0;stroke-opacity:0.97647059;paint-order:markers stroke fill"
       id="path1007"
       cx="-20.491329"
       cy="178.79327"
       r="10.554255" />
    <rect
       transform="rotate(-45)"
       y="113.18941"
       x="-141.54898"
       height="5.1601129"
       width="1.2376375"
       id="rect903"
       style="opacity:1;fill:#ffffff;fill-opacity:1;stroke:#303030;stroke-width:0.30000001;stroke-linecap:round;stroke-linejoin:round;stroke-miterlimit:4;stroke-dasharray:none;stroke-dashoffset:0;stroke-opacity:1;paint-order:stroke markers fill" />
    <path
       inkscape:connector-curvature="0"
       style="opacity:1;fill:#ffffff;fill-opacity:1;stroke:#303030;stroke-width:0.30000001;stroke-linecap:round;stroke-linejoin:round;stroke-miterlimit:4;stroke-dasharray:none;stroke-dashoffset:0;stroke-opacity:1;paint-order:stroke markers fill"
       d="m -21.449432,173.81055 a 4.0038901,4.0038901 0 0 0 -4.00389,4.00389 4.0038901,4.0038901 0 0 0 4.00389,4.00389 4.0038901,4.0038901 0 0 0 0.904337,-0.10852 v 5.3e-4 a 4.0038903,4.0038903 0 0 0 0.0067,-0.002 4.0038901,4.0038901 0 0 0 0.371037,-0.10594 4.0038901,4.0038901 0 0 0 0.0072,-0.002 4.0038903,4.0038903 0 0 0 0.0057,-0.002 4.0038901,4.0038901 0 0 0 0.347265,-0.13746 4.0038903,4.0038903 0 0 0 0.03307,-0.015 4.0038901,4.0038901 0 0 0 0.326078,-0.1695 4.0038903,4.0038903 0 0 0 0.02635,-0.0145 4.0038901,4.0038901 0 0 0 0.305408,-0.19947 4.0038903,4.0038903 0 0 0 0.03204,-0.0233 4.0038901,4.0038901 0 0 0 0.266651,-0.21394 4.0038903,4.0038903 0 0 0 0.05374,-0.0475 4.0038901,4.0038901 0 0 0 0.234611,-0.23151 4.0038903,4.0038903 0 0 0 0.04703,-0.0506 4.0038901,4.0038901 0 0 0 0.207739,-0.25012 4.0038903,4.0038903 0 0 0 0.04858,-0.063 4.0038901,4.0038901 0 0 0 0.174666,-0.25942 4.0038903,4.0038903 0 0 0 0.04858,-0.0796 4.0038901,4.0038901 0 0 0 0.14056,-0.26097 4.0038903,4.0038903 0 0 0 0.04909,-0.10283 4.0038901,4.0038901 0 0 0 0.103869,-0.25011 4.0038903,4.0038903 0 0 0 0.04754,-0.12971 4.0038901,4.0038901 0 0 0 0.07286,-0.2403 4.0038903,4.0038903 0 0 0 0.03876,-0.15244 4.0038901,4.0038901 0 0 0 0.04496,-0.23048 4.0038903,4.0038903 0 0 0 0.02584,-0.17105 4.0038901,4.0038901 0 0 0 0.01964,-0.21136 4.0038903,4.0038903 0 0 0 0.01395,-0.27957 4.0038901,4.0038901 0 0 0 -0.01757,-0.34519 4.0038903,4.0038903 0 0 0 -0.02222,-0.18294 4.0038901,4.0038901 0 0 0 -0.03359,-0.21859 4.0038903,4.0038903 0 0 0 -0.03462,-0.15503 4.0038901,4.0038901 0 0 0 -0.06098,-0.23926 4.0038903,4.0038903 0 0 0 -0.04651,-0.13901 4.0038901,4.0038901 0 0 0 -0.0894,-0.2434 4.0038903,4.0038903 0 0 0 -0.05168,-0.11524 4.0038901,4.0038901 0 0 0 -0.119889,-0.24856 4.0038903,4.0038903 0 0 0 -0.05736,-0.10025 4.0038901,4.0038901 0 0 0 -0.153479,-0.24908 4.0038903,4.0038903 0 0 0 -0.05426,-0.076 4.0038901,4.0038901 0 0 0 -0.186552,-0.24494 4.0038903,4.0038903 0 0 0 -0.05684,-0.0646 4.0038901,4.0038901 0 0 0 -0.219624,-0.23564 4.0038903,4.0038903 0 0 0 -0.04496,-0.0419 4.0038901,4.0038901 0 0 0 -0.258899,-0.22634 4.0038903,4.0038903 0 0 0 -0.03307,-0.0253 4.0038901,4.0038901 0 0 0 -0.297656,-0.21239 4.0038903,4.0038903 0 0 0 -0.0186,-0.0114 4.0038901,4.0038901 0 0 0 -0.325044,-0.18604 4.0038903,4.0038903 0 0 0 -0.03049,-0.015 4.0038901,4.0038901 0 0 0 -0.339515,-0.15142 4.0038901,4.0038901 0 0 0 -0.0041,-0.002 4.0038903,4.0038903 0 0 0 -0.0093,-0.003 4.0038901,4.0038901 0 0 0 -0.369486,-0.12247 4.0038901,4.0038901 0 0 0 -0.0016,-5.3e-4 4.0038903,4.0038903 0 0 0 -0.02791,-0.007 4.0038901,4.0038901 0 0 0 -1.038697,-0.1416 z"
       id="circle905" />
    <path
       style="opacity:1;fill:#399fe9;fill-opacity:1;stroke:none;stroke-width:0.26458332px;stroke-linecap:butt;stroke-linejoin:miter;stroke-opacity:1"
       d="m -22.196471,177.2508 1.850847,0.84428 2.987627,-2.45206 -1.278928,-1.27893 4.118441,-0.58722 -0.532943,4.06417 -1.278928,-1.27893 -4.002127,2.92066 -1.712095,-0.90738 -4.419598,2.64287 z"
       id="path891"
       inkscape:connector-curvature="0"
       sodipodi:nodetypes="ccccccccccc" />
  </g>
</svg>
