<?xml version="1.0" encoding="UTF-8" standalone="no"?>
<svg
   xmlns:dc="http://purl.org/dc/elements/1.1/"
   xmlns:cc="http://creativecommons.org/ns#"
   xmlns:rdf="http://www.w3.org/1999/02/22-rdf-syntax-ns#"
   xmlns:svg="http://www.w3.org/2000/svg"
   xmlns="http://www.w3.org/2000/svg"
   xmlns:sodipodi="http://sodipodi.sourceforge.net/DTD/sodipodi-0.dtd"
   xmlns:inkscape="http://www.inkscape.org/namespaces/inkscape"
   width="60.000114"
   height="60.000114"
   viewBox="0 130.746 14.286723 14.283817"
   version="1.1"
   id="svg11"
   sodipodi:docname="adobe-illustrator-cc.svg"
   inkscape:version="0.92.4 (5da689c313, 2019-01-14)">
  <metadata
     id="metadata17">
    <rdf:RDF>
      <cc:Work
         rdf:about="">
        <dc:format>image/svg+xml</dc:format>
        <dc:type
           rdf:resource="http://purl.org/dc/dcmitype/StillImage" />
      </cc:Work>
    </rdf:RDF>
  </metadata>
  <defs
     id="defs15">
    <filter
       inkscape:collect="always"
       style="color-interpolation-filters:sRGB"
       id="filter1341-4"
       x="-0.035999998"
       width="1.072"
       y="-0.035999998"
       height="1.072">
      <feGaussianBlur
         inkscape:collect="always"
         stdDeviation="0.22360249"
         id="feGaussianBlur1343-6" />
    </filter>
  </defs>
  <sodipodi:namedview
     pagecolor="#ffffff"
     bordercolor="#666666"
     borderopacity="1"
     objecttolerance="10"
     gridtolerance="10"
     guidetolerance="10"
     inkscape:pageopacity="0"
     inkscape:pageshadow="2"
     inkscape:window-width="1366"
     inkscape:window-height="705"
     id="namedview13"
     showgrid="false"
     inkscape:zoom="0.096800656"
     inkscape:cx="-2505.3152"
     inkscape:cy="1662.4138"
     inkscape:window-x="-8"
     inkscape:window-y="-8"
     inkscape:window-maximized="1"
     inkscape:current-layer="svg11" />
  <radialGradient
     id="a"
     cx="-183.69"
     cy="328.97198"
     r="0.75999999"
     gradientTransform="matrix(545.6736,0,0,528.3113,100439.3,-173525.13)"
     gradientUnits="userSpaceOnUse">
    <stop
       offset="0"
       stop-color="#423325"
       stop-opacity=".98"
       id="stop2" />
    <stop
       offset="1"
       stop-color="#1c0a00"
       id="stop4" />
  </radialGradient>
  <rect
     rx="1.213828"
     style="opacity:1;fill:#666666;fill-opacity:1;stroke:none;stroke-width:0.50331002;stroke-linecap:round;stroke-linejoin:round;stroke-miterlimit:4;stroke-dasharray:none;stroke-dashoffset:0;stroke-opacity:0.50196078;paint-order:fill markers stroke;filter:url(#filter1341-4)"
     id="rect1419-8"
     width="14.906833"
     height="14.906833"
     x="91.071602"
     y="-119.73991"
     transform="matrix(0.89403077,0,0,0.89403077,-80.941036,238.2179)"
     ry="1.213828" />
  <rect
     rx="0"
     ry="0"
     y="131.62627"
     x="0.9393211"
     height="12.408051"
     width="12.408051"
     id="rect1421-2"
     style="opacity:1;fill:#e34b21;fill-opacity:1;stroke:#303030;stroke-width:0.44997469;stroke-linecap:round;stroke-linejoin:round;stroke-miterlimit:4;stroke-dasharray:none;stroke-dashoffset:0;stroke-opacity:1;paint-order:fill markers stroke" />
  <path
     style="opacity:1;fill:#f06426;fill-opacity:1;stroke:none;stroke-width:0.44997472;stroke-linecap:round;stroke-linejoin:round;stroke-miterlimit:4;stroke-dasharray:none;stroke-dashoffset:0;stroke-opacity:1;paint-order:fill markers stroke"
     d="m 7.0951537,132.30633 v 11.04795 h 5.5016403 v -11.04795 z"
     id="rect1455-5"
     inkscape:connector-curvature="0" />
  <path
     style="opacity:1;fill:#ffffff;fill-opacity:1;stroke:none;stroke-width:0.26998481;stroke-linecap:round;stroke-linejoin:round;stroke-miterlimit:4;stroke-dasharray:none;stroke-dashoffset:0;stroke-opacity:1;paint-order:stroke markers fill"
     d="m 10.395084,134.02053 c 0.40497,0 0.67712,0.27639 0.67712,0.68771 0,0.44504 -0.28541,0.68771 -0.69036,0.68771 -0.3850603,2e-5 -0.6638403,-0.24267 -0.6638403,-0.68771 0,-0.43155 0.2986803,-0.68771 0.6770803,-0.68771 z m -5.1713003,0.18891 h 1.39396 c 0.0465,0 0.0662,0.0135 0.0795,0.0673 l 2.11139,7.27542 c 0.0133,0.0539 -5e-4,0.0879 -0.0536,0.0879 h -1.10181 c -0.0531,0 -0.0865,-0.0133 -0.0996,-0.0605 l -0.54399,-2.02999 h -2.12464 l -0.52441,2.02317 c -0.0133,0.0539 -0.0334,0.0673 -0.0996,0.0673 h -0.97559 c -0.0663,0 -0.0796,-0.0201 -0.0662,-0.10102 l 1.88493,-6.703 c 0.0332,-0.12135 0.0536,-0.2289 0.0668,-0.55929 0,-0.0473 0.0199,-0.0674 0.0531,-0.0674 z m 0.70362,1.07864 c -0.13945,0.78895 -0.49109,2.12394 -0.76989,3.16916 h 1.57318 c -0.18585,-0.74851 -0.62406,-2.38021 -0.79003,-3.16916 z m 3.94331,0.86977 h 1.0418703 c 0.0531,0 0.0801,0.0204 0.0801,0.0811 v 5.32016 c 0,0.0539 -0.0137,0.0811 -0.0801,0.0811 H 9.8839637 c -0.0663,0 -0.0865,-0.0334 -0.0865,-0.0873 v -5.31388 h -0.007 c 0,-0.054 0.0204,-0.0811 0.0801,-0.0811 z"
     id="rect2966"
     inkscape:connector-curvature="0"
     sodipodi:nodetypes="sscsscsccssccccsscccccccccccsssssscccc" />
  <path
     inkscape:connector-curvature="0"
     style="opacity:1;fill:#ececec;fill-opacity:1;stroke:none;stroke-width:0.44997472;stroke-linecap:round;stroke-linejoin:round;stroke-miterlimit:4;stroke-dasharray:none;stroke-dashoffset:0;stroke-opacity:1;paint-order:fill markers stroke"
     d="m 5.2239937,134.20955 c -0.0332,0 -0.053,0.0202 -0.053,0.0674 -0.0132,0.3304 -0.0337,0.43765 -0.067,0.55901 l -1.8849,6.70293 c -0.0133,0.0809 1.9e-4,0.10138 0.0665,0.10138 h 0.97523 c 0.0663,0 0.0867,-0.0136 0.1,-0.0674 l 0.52412,-2.02348 h 2.12487 l 0.0851,0.31763 v -4.21997 l -0.39763,-1.37007 c -0.0133,-0.0539 -0.0331,-0.0674 -0.0795,-0.0674 z m 0.70364,1.07848 h 0.013 c 0.16597,0.78895 0.60428,2.42088 0.79014,3.16939 h -1.57331 c 0.2788,-1.04522 0.6307,-2.38044 0.77014,-3.16939 z"
     id="path3299" />
</svg>
