<?xml version="1.0" encoding="UTF-8" standalone="no"?>
<svg
   xmlns:dc="http://purl.org/dc/elements/1.1/"
   xmlns:cc="http://creativecommons.org/ns#"
   xmlns:rdf="http://www.w3.org/1999/02/22-rdf-syntax-ns#"
   xmlns:svg="http://www.w3.org/2000/svg"
   xmlns="http://www.w3.org/2000/svg"
   xmlns:sodipodi="http://sodipodi.sourceforge.net/DTD/sodipodi-0.dtd"
   xmlns:inkscape="http://www.inkscape.org/namespaces/inkscape"
   id="ps_x5F_cc_x5F_app_x5F_RGB.svg"
   viewBox="0 0 5.760011 5.7588297"
   width="60.000114"
   height="60.000114"
   version="1.1"
   sodipodi:docname="adobe-xd.svg"
   inkscape:version="0.92.4 (5da689c313, 2019-01-14)">
  <metadata
     id="metadata15">
    <rdf:RDF>
      <cc:Work
         rdf:about="">
        <dc:format>image/svg+xml</dc:format>
        <dc:type
           rdf:resource="http://purl.org/dc/dcmitype/StillImage" />
      </cc:Work>
    </rdf:RDF>
  </metadata>
  <defs
     id="defs13">
    <filter
       inkscape:collect="always"
       style="color-interpolation-filters:sRGB"
       id="filter1341-4-3"
       x="-0.035999998"
       width="1.072"
       y="-0.035999998"
       height="1.072">
      <feGaussianBlur
         inkscape:collect="always"
         stdDeviation="0.22360249"
         id="feGaussianBlur1343-6-2" />
    </filter>
  </defs>
  <sodipodi:namedview
     pagecolor="#ffffff"
     bordercolor="#666666"
     borderopacity="1"
     objecttolerance="10"
     gridtolerance="10"
     guidetolerance="10"
     inkscape:pageopacity="0"
     inkscape:pageshadow="2"
     inkscape:window-width="1366"
     inkscape:window-height="705"
     id="namedview11"
     showgrid="false"
     inkscape:zoom="0.024200164"
     inkscape:cx="1260.7627"
     inkscape:cy="593.26023"
     inkscape:window-x="-8"
     inkscape:window-y="-8"
     inkscape:window-maximized="1"
     inkscape:current-layer="ps_x5F_cc_x5F_app_x5F_RGB.svg" />
  <style
     id="style2">.st0{fill:#2e001e}.st1{fill:#ff2bc2}</style>
  <rect
     rx="1.213828"
     style="opacity:1;fill:#666666;fill-opacity:1;stroke:none;stroke-width:0.50331002;stroke-linecap:round;stroke-linejoin:round;stroke-miterlimit:4;stroke-dasharray:none;stroke-dashoffset:0;stroke-opacity:0.50196078;paint-order:fill markers stroke;filter:url(#filter1341-4-3)"
     id="rect1419-8-4"
     width="14.906833"
     height="14.906833"
     x="91.071602"
     y="-119.73991"
     transform="matrix(0.36044844,0,0,0.36044844,-32.633184,43.329496)"
     ry="1.213828" />
  <rect
     rx="0"
     ry="0"
     y="0.35469902"
     x="0.37871414"
     height="5.0025826"
     width="5.0025826"
     id="rect1421-2-0"
     style="opacity:1;fill:#d40055;fill-opacity:1;stroke:#303030;stroke-width:0.18141733;stroke-linecap:round;stroke-linejoin:round;stroke-miterlimit:4;stroke-dasharray:none;stroke-dashoffset:0;stroke-opacity:1;paint-order:fill markers stroke" />
  <path
     style="opacity:1;fill:#f20062;fill-opacity:1;stroke:none;stroke-width:0.18141735;stroke-linecap:round;stroke-linejoin:round;stroke-miterlimit:4;stroke-dasharray:none;stroke-dashoffset:0;stroke-opacity:1;paint-order:fill markers stroke"
     d="M 2.8605664,0.62888063 V 5.0831056 h 2.21811 V 0.62888063 Z"
     id="rect1455-5-8"
     inkscape:connector-curvature="0" />
  <path
     style="fill:#ffffff;fill-opacity:1;stroke-width:1"
     inkscape:connector-curvature="0"
     class="st1"
     d="m 4.0650564,2.5262596 c -0.0322,-0.01975 -0.0729,-0.02817 -0.12441,-0.02817 -0.27027,0 -0.45045,0.273377 -0.45045,0.727131 0,0.51858 0.18447,0.727139 0.42471,0.727139 0.0515,0 0.10725,-0.0085 0.14801,-0.03099 v -1.395082 z m -0.96095,0.721498 c 0,-0.656679 0.32175,-1.169617 0.84941,-1.169617 0.045,0 0.0686,0 0.11154,0.0056 v -0.732768 c 0,-0.01691 0.0107,-0.02818 0.0214,-0.02818 h 0.34535 c 0.0172,0 0.0214,0.0084 0.0214,0.02255 v 2.575973 c 0,0.07609 0,0.171917 0.0107,0.276195 0,0.01975 0,0.02257 -0.0129,0.03099 -0.18018,0.112732 -0.36894,0.163462 -0.54912,0.163462 -0.46546,0 -0.79793,-0.377655 -0.79793,-1.14425 z m -0.73144,-0.456574 0.60059,1.530364 c 0.0108,0.02253 0.004,0.04509 -0.0129,0.04509 h -0.37323 c -0.0236,0 -0.0343,-0.0085 -0.045,-0.03663 -0.13728,-0.372022 -0.2767,-0.758136 -0.42042,-1.158342 h -0.004 c -0.1287,0.37766 -0.27027,0.789141 -0.40755,1.161159 -0.0107,0.02257 -0.0214,0.03099 -0.0386,0.03099 h -0.35608 c -0.0214,0 -0.0236,-0.02257 -0.0129,-0.03946 l 0.58773,-1.485271 -0.56842,-1.476814 c -0.0129,-0.02255 0,-0.04228 0.015,-0.04228 h 0.36893 c 0.0214,0 0.0322,0.0056 0.0386,0.031 0.13513,0.374841 0.27241,0.744045 0.40111,1.121704 h 0.004 c 0.12441,-0.372023 0.26169,-0.746863 0.39253,-1.116067 0.0107,-0.02255 0.0172,-0.03664 0.0386,-0.03664 h 0.34534 c 0.0172,0 0.0236,0.01691 0.0129,0.04228 z"
     id="path8-2" />
  <path
     inkscape:connector-curvature="0"
     style="opacity:1;fill:#ececec;fill-opacity:1;stroke:none;stroke-width:0.18141735;stroke-linecap:round;stroke-linejoin:round;stroke-miterlimit:4;stroke-dasharray:none;stroke-dashoffset:0;stroke-opacity:1;paint-order:fill markers stroke"
     d="m 1.3366964,1.3200106 c -0.015,0 -0.0279,0.01964 -0.015,0.04219 l 0.56831,1.476937 -0.58762,1.485187 c -0.0107,0.01689 -0.009,0.03956 0.0128,0.03956 h 0.35606 c 0.0172,0 0.0279,-0.0086 0.0386,-0.03112 0.13728,-0.372018 0.27893,-0.78334 0.40762,-1.161 h 0.004 c 0.14372,0.400206 0.2831,0.786165 0.42038,1.158188 0.0107,0.02817 0.0214,0.03675 0.045,0.03675 h 0.27337 v -0.332251 l -0.48787,-1.243312 0.48787,-1.231125 v -0.24 h -0.27975 c -0.0214,0 -0.0279,0.01402 -0.0386,0.03656 -0.13084,0.369204 -0.26822,0.744166 -0.39263,1.116188 h -0.004 c -0.1287,-0.377659 -0.26592,-0.746972 -0.40106,-1.121813 -0.006,-0.02537 -0.0172,-0.03094 -0.0386,-0.03094 z"
     id="path3494" />
</svg>
