<?xml version="1.0" encoding="UTF-8" standalone="no"?>
<svg
   xmlns:dc="http://purl.org/dc/elements/1.1/"
   xmlns:cc="http://creativecommons.org/ns#"
   xmlns:rdf="http://www.w3.org/1999/02/22-rdf-syntax-ns#"
   xmlns:svg="http://www.w3.org/2000/svg"
   xmlns="http://www.w3.org/2000/svg"
   xmlns:sodipodi="http://sodipodi.sourceforge.net/DTD/sodipodi-0.dtd"
   xmlns:inkscape="http://www.inkscape.org/namespaces/inkscape"
   width="91.118774"
   height="91.118774"
   viewBox="0 130.746 21.696437 21.692024"
   version="1.1"
   id="svg11"
   sodipodi:docname="adobe-illustrator-cc-circle.svg"
   inkscape:version="0.92.4 (5da689c313, 2019-01-14)">
  <metadata
     id="metadata17">
    <rdf:RDF>
      <cc:Work
         rdf:about="">
        <dc:format>image/svg+xml</dc:format>
        <dc:type
           rdf:resource="http://purl.org/dc/dcmitype/StillImage" />
        <dc:title></dc:title>
      </cc:Work>
    </rdf:RDF>
  </metadata>
  <defs
     id="defs15" />
  <sodipodi:namedview
     pagecolor="#ffffff"
     bordercolor="#666666"
     borderopacity="1"
     objecttolerance="10"
     gridtolerance="10"
     guidetolerance="10"
     inkscape:pageopacity="0"
     inkscape:pageshadow="2"
     inkscape:window-width="1366"
     inkscape:window-height="705"
     id="namedview13"
     showgrid="false"
     inkscape:zoom="1.0951744"
     inkscape:cx="-47.606011"
     inkscape:cy="39.672253"
     inkscape:window-x="-8"
     inkscape:window-y="-8"
     inkscape:window-maximized="1"
     inkscape:current-layer="svg11" />
  <radialGradient
     id="a"
     cx="-183.69"
     cy="328.97198"
     r="0.75999999"
     gradientTransform="matrix(545.6736,0,0,528.3113,100439.3,-173525.13)"
     gradientUnits="userSpaceOnUse">
    <stop
       offset="0"
       stop-color="#423325"
       stop-opacity=".98"
       id="stop2" />
    <stop
       offset="1"
       stop-color="#1c0a00"
       id="stop4" />
  </radialGradient>
  <g
     id="g829">
    <circle
       r="9.4982939"
       cy="141.59276"
       cx="10.848218"
       id="path1007"
       style="opacity:1;fill:#ff9955;fill-opacity:1;stroke:#ff7f2a;stroke-width:2.69984818;stroke-linecap:round;stroke-linejoin:round;stroke-miterlimit:4;stroke-dasharray:none;stroke-dashoffset:0;stroke-opacity:1;paint-order:markers stroke fill" />
    <path
       sodipodi:nodetypes="sscsscsccssccccsscccccccccccsssssscccc"
       inkscape:connector-curvature="0"
       id="rect2966"
       d="m 14.099949,137.78293 c 0.40497,0 0.67712,0.27639 0.67712,0.68771 0,0.44504 -0.28541,0.68771 -0.69036,0.68771 -0.385061,2e-5 -0.663841,-0.24267 -0.663841,-0.68771 0,-0.43155 0.298681,-0.68771 0.677081,-0.68771 z m -5.1713008,0.18891 h 1.3939598 c 0.0465,0 0.0662,0.0135 0.0795,0.0673 l 2.11139,7.27542 c 0.0133,0.0539 -5e-4,0.0879 -0.0536,0.0879 h -1.10181 c -0.0531,0 -0.0865,-0.0133 -0.0996,-0.0605 l -0.54399,-2.02999 H 8.5898582 l -0.52441,2.02317 c -0.0133,0.0539 -0.0334,0.0673 -0.0996,0.0673 h -0.97559 c -0.0663,0 -0.0796,-0.0201 -0.0662,-0.10102 l 1.88493,-6.703 c 0.0332,-0.12135 0.0536,-0.2289 0.0668,-0.55929 0,-0.0473 0.0199,-0.0674 0.0531,-0.0674 z m 0.70362,1.07864 c -0.13945,0.78895 -0.49109,2.12394 -0.76989,3.16916 h 1.5731798 c -0.18585,-0.74851 -0.6240598,-2.38021 -0.7900298,-3.16916 z m 3.9433098,0.86977 h 1.041871 c 0.0531,0 0.0801,0.0204 0.0801,0.0811 v 5.32016 c 0,0.0539 -0.0137,0.0811 -0.0801,0.0811 h -1.028621 c -0.0663,0 -0.0865,-0.0334 -0.0865,-0.0873 v -5.31388 h -0.007 c 0,-0.054 0.0204,-0.0811 0.0801,-0.0811 z"
       style="opacity:1;fill:#ffffff;fill-opacity:1;stroke:none;stroke-width:0.26998481;stroke-linecap:round;stroke-linejoin:round;stroke-miterlimit:4;stroke-dasharray:none;stroke-dashoffset:0;stroke-opacity:1;paint-order:stroke markers fill" />
  </g>
</svg>
