<?xml version="1.0" encoding="UTF-8" standalone="no"?>
<svg
   xmlns:dc="http://purl.org/dc/elements/1.1/"
   xmlns:cc="http://creativecommons.org/ns#"
   xmlns:rdf="http://www.w3.org/1999/02/22-rdf-syntax-ns#"
   xmlns:svg="http://www.w3.org/2000/svg"
   xmlns="http://www.w3.org/2000/svg"
   xmlns:sodipodi="http://sodipodi.sourceforge.net/DTD/sodipodi-0.dtd"
   xmlns:inkscape="http://www.inkscape.org/namespaces/inkscape"
   width="60.000114"
   height="60.000114"
   viewBox="0 130.746 14.286723 14.283817"
   version="1.1"
   id="svg11"
   sodipodi:docname="after-effects-cc.svg"
   inkscape:version="0.92.4 (5da689c313, 2019-01-14)">
  <metadata
     id="metadata17">
    <rdf:RDF>
      <cc:Work
         rdf:about="">
        <dc:format>image/svg+xml</dc:format>
        <dc:type
           rdf:resource="http://purl.org/dc/dcmitype/StillImage" />
      </cc:Work>
    </rdf:RDF>
  </metadata>
  <defs
     id="defs15">
    <filter
       inkscape:collect="always"
       style="color-interpolation-filters:sRGB"
       id="filter1341-9"
       x="-0.035999998"
       width="1.072"
       y="-0.035999998"
       height="1.072">
      <feGaussianBlur
         inkscape:collect="always"
         stdDeviation="0.22360249"
         id="feGaussianBlur1343-67" />
    </filter>
  </defs>
  <sodipodi:namedview
     pagecolor="#ffffff"
     bordercolor="#666666"
     borderopacity="1"
     objecttolerance="10"
     gridtolerance="10"
     guidetolerance="10"
     inkscape:pageopacity="0"
     inkscape:pageshadow="2"
     inkscape:window-width="1366"
     inkscape:window-height="705"
     id="namedview13"
     showgrid="false"
     inkscape:zoom="0.096800656"
     inkscape:cx="784.13565"
     inkscape:cy="-662.14402"
     inkscape:window-x="-8"
     inkscape:window-y="-8"
     inkscape:window-maximized="1"
     inkscape:current-layer="svg11" />
  <radialGradient
     id="a"
     cx="-183.69"
     cy="328.97198"
     r="0.75999999"
     gradientTransform="matrix(545.6736,0,0,528.3113,100439.3,-173525.13)"
     gradientUnits="userSpaceOnUse">
    <stop
       offset="0"
       stop-color="#442f55"
       stop-opacity=".98"
       id="stop2" />
    <stop
       offset="1"
       stop-color="#12002c"
       id="stop4" />
  </radialGradient>
  <rect
     style="opacity:1;fill:#563d7c;fill-opacity:1;stroke:#303030;stroke-width:0.44997469;stroke-linecap:round;stroke-linejoin:round;stroke-miterlimit:4;stroke-dasharray:none;stroke-dashoffset:0;stroke-opacity:1;paint-order:fill markers stroke"
     id="rect1412-4"
     width="12.408051"
     height="12.408051"
     x="0.93933719"
     y="131.62625"
     rx="0"
     ry="0" />
  <rect
     rx="1.213828"
     style="opacity:1;fill:#666666;fill-opacity:1;stroke:none;stroke-width:0.50331002;stroke-linecap:round;stroke-linejoin:round;stroke-miterlimit:4;stroke-dasharray:none;stroke-dashoffset:0;stroke-opacity:0.50196078;paint-order:fill markers stroke;filter:url(#filter1341-9)"
     id="rect1419-0"
     width="14.906833"
     height="14.906833"
     x="91.071602"
     y="-119.73991"
     transform="matrix(0.89403077,0,0,0.89403077,-80.941036,238.2179)"
     ry="1.213828" />
  <rect
     rx="0"
     ry="0"
     y="131.62625"
     x="0.93933719"
     height="12.408051"
     width="12.408051"
     id="rect1421-0"
     style="opacity:1;fill:#563d7c;fill-opacity:1;stroke:#303030;stroke-width:0.44997469;stroke-linecap:round;stroke-linejoin:round;stroke-miterlimit:4;stroke-dasharray:none;stroke-dashoffset:0;stroke-opacity:1;paint-order:fill markers stroke" />
  <path
     style="opacity:1;fill:#654892;fill-opacity:1;stroke:none;stroke-width:0.44997472;stroke-linecap:round;stroke-linejoin:round;stroke-miterlimit:4;stroke-dasharray:none;stroke-dashoffset:0;stroke-opacity:1;paint-order:fill markers stroke"
     d="m 7.0951547,132.3063 v 11.04798 H 12.596785 V 132.3063 Z"
     id="rect1455-7"
     inkscape:connector-curvature="0" />
  <path
     style="opacity:1;fill:#ffffff;fill-opacity:1;stroke:none;stroke-width:0.26998481;stroke-linecap:round;stroke-linejoin:round;stroke-miterlimit:4;stroke-dasharray:none;stroke-dashoffset:0;stroke-opacity:1;paint-order:stroke markers fill"
     d="m 4.7805847,134.03249 h 1.08685 c 0.0362,0 0.0517,0.0141 0.062,0.0686 l 1.6451,7.33631 c 0.0104,0.0544 6e-5,0.0882 -0.0413,0.0882 h -0.85376 c -0.0414,0 -0.0674,-0.0203 -0.0777,-0.068 l -0.42397,-2.04326 h -1.66083 l -0.40869,2.03629 c -0.0104,0.0544 -0.0259,0.075 -0.0777,0.075 h -0.76034 c -0.0518,0 -0.0625,-0.0203 -0.0521,-0.10204 l 1.46951,-6.7644 c 0.0258,-0.1226 0.0413,-0.2175 0.0517,-0.55808 0,-0.0477 0.0155,-0.0686 0.0413,-0.0686 z m 0.55375,1.07637 c -0.10862,0.797 -0.39328,2.1456 -0.6054,3.20146 h 1.2418 c -0.14486,-0.75612 -0.49671,-2.40446 -0.62607,-3.20146 z m 4.21674,0.79043 c 1.1278903,0 1.5211503,1.24674 1.5211503,2.26171 0,0.32698 -0.0155,0.59238 -0.0413,0.72182 -0.0104,0.0544 -0.0259,0.0751 -0.0674,0.0888 -0.10349,0.0204 -0.40881,0.0472 -0.86409,0.0472 H 8.7449047 c 0.0135,0.91198 0.34437,1.52607 1.12683,1.52607 0.3052603,0 0.5692003,-0.0543 0.8434403,-0.21102 0.0362,-0.0204 0.062,-0.0141 0.062,0.0473 v 0.85153 c 0,0.0681 -0.0154,0.10258 -0.0517,0.13664 -0.27422,0.17708 -0.61591,0.25886 -1.0401403,0.25886 -1.36588,0 -1.87776,-1.32837 -1.87776,-2.80653 0,-1.60761 0.63111,-2.92243 1.74347,-2.92243 z m -0.0364,0.99451 c -0.4967,0 -0.7086,0.57213 -0.76036,1.17842 h 1.0397 c 0.2638603,0 0.3572303,-2.3e-4 0.3830903,-0.0139 0,-0.0476 0.0104,-0.0819 0.0104,-0.11589 0,-0.36784 -0.1347,-1.0487 -0.6727703,-1.0487 z"
     id="rect3528"
     inkscape:connector-curvature="0"
     sodipodi:nodetypes="ssccssccccsscccscccccssccscscsscsssscscss" />
  <path
     inkscape:connector-curvature="0"
     style="opacity:1;fill:#ececec;fill-opacity:1;stroke:none;stroke-width:0.44997472;stroke-linecap:round;stroke-linejoin:round;stroke-miterlimit:4;stroke-dasharray:none;stroke-dashoffset:0;stroke-opacity:1;paint-order:fill markers stroke"
     d="m 4.7803947,134.03254 c -0.0258,0 -0.0414,0.0206 -0.0414,0.0684 -0.0104,0.34058 -0.0258,0.43548 -0.0516,0.55808 l -1.46914,6.76479 c -0.0104,0.0817 2.4e-4,0.10184 0.0521,0.10184 h 0.76038 c 0.0519,0 0.0673,-0.0204 0.0777,-0.0749 l 0.40879,-2.03651 h 1.66074 l 0.42367,2.04349 c 0.0104,0.0477 0.0367,0.0679 0.0781,0.0679 h 0.4153 v -2.22671 l -1.16545,-5.198 c -0.0104,-0.0545 -0.0261,-0.0684 -0.0623,-0.0684 z m 0.55388,1.07615 h 0.0102 c 0.12936,0.797 0.48158,2.44537 0.62644,3.20149 h -1.24218 c 0.21212,-1.05586 0.49689,-2.40449 0.60551,-3.20149 z"
     id="path4140" />
</svg>
