<?xml version="1.0" encoding="UTF-8" standalone="no"?>
<svg
   xmlns:dc="http://purl.org/dc/elements/1.1/"
   xmlns:cc="http://creativecommons.org/ns#"
   xmlns:rdf="http://www.w3.org/1999/02/22-rdf-syntax-ns#"
   xmlns:svg="http://www.w3.org/2000/svg"
   xmlns="http://www.w3.org/2000/svg"
   xmlns:xlink="http://www.w3.org/1999/xlink"
   xmlns:sodipodi="http://sodipodi.sourceforge.net/DTD/sodipodi-0.dtd"
   xmlns:inkscape="http://www.inkscape.org/namespaces/inkscape"
   id="Layer_1"
   viewBox="0 0 26.985275 26.980591"
   enable-background="new 0 0 1096.5 1124.2"
   width="60.000092"
   height="59.999535"
   version="1.1"
   sodipodi:docname="inkscape-logo.svg"
   inkscape:version="0.92.4 (5da689c313, 2019-01-14)">
  <metadata
     id="metadata231">
    <rdf:RDF>
      <cc:Work
         rdf:about="">
        <dc:format>image/svg+xml</dc:format>
        <dc:type
           rdf:resource="http://purl.org/dc/dcmitype/StillImage" />
      </cc:Work>
    </rdf:RDF>
  </metadata>
  <defs
     id="defs229">
    <linearGradient
       gradientTransform="matrix(9.5619858,0,0,-9.5560226,-6316.3811,16005.176)"
       y2="1622.999"
       x2="731.505"
       y1="1642.999"
       x1="753.62402"
       gradientUnits="userSpaceOnUse"
       id="SVGID_1_">
      <stop
         id="stop37"
         stop-color="#c0cdf9"
         offset="0" />
      <stop
         id="stop39"
         stop-opacity=".288"
         stop-color="#07092d"
         offset="1" />
    </linearGradient>
    <linearGradient
       gradientTransform="matrix(9.6532725,0,0,-9.6472809,-6390.8525,16144.964)"
       y2="1624.4091"
       x2="714.68701"
       y1="1649.639"
       x1="689.45697"
       gradientUnits="userSpaceOnUse"
       id="SVGID_2_">
      <stop
         id="stop44"
         stop-color="#fff"
         offset="0" />
      <stop
         id="stop46"
         stop-opacity="0"
         stop-color="#fff"
         offset="1" />
    </linearGradient>
    <linearGradient
       gradientTransform="matrix(9.6532725,0,0,-9.6472809,-6390.8525,16144.964)"
       y2="1624.245"
       x2="736.25"
       y1="1654.245"
       x1="706.25"
       gradientUnits="userSpaceOnUse"
       id="SVGID_3_">
      <stop
         id="stop51"
         stop-color="#fff"
         offset="0" />
      <stop
         id="stop53"
         stop-opacity="0"
         stop-color="#fff"
         offset="1" />
    </linearGradient>
    <radialGradient
       gradientUnits="userSpaceOnUse"
       gradientTransform="matrix(8.0274519,0,0,-5.3698953,-5670.2066,9071.6082)"
       r="30.6"
       cy="1499.38"
       cx="751.02698"
       id="SVGID_4_">
      <stop
         id="stop58"
         stop-color="#fff"
         offset="0" />
      <stop
         id="stop60"
         stop-opacity="0"
         stop-color="#fff"
         offset="1" />
    </radialGradient>
    <radialGradient
       gradientUnits="userSpaceOnUse"
       gradientTransform="matrix(5.112854,0,0,-2.1632011,-3093.0447,4566.0748)"
       r="34.25"
       cy="1812.4871"
       cx="778.58801"
       id="SVGID_6_">
      <stop
         id="stop74"
         stop-color="#fff"
         offset="0" />
      <stop
         id="stop76"
         stop-opacity="0"
         stop-color="#fff"
         offset="1" />
    </radialGradient>
    <linearGradient
       gradientTransform="matrix(5.112854,0,0,-5.1096696,-3099.4567,8760.6764)"
       y2="1556.866"
       x2="798.39203"
       y1="1563.178"
       x1="798.26703"
       gradientUnits="userSpaceOnUse"
       id="SVGID_8_">
      <stop
         id="stop90"
         stop-color="#fff"
         offset="0" />
      <stop
         id="stop92"
         stop-opacity="0"
         stop-color="#fff"
         offset="1" />
    </linearGradient>
    <linearGradient
       gradientTransform="matrix(1.9717335,-0.99935844,-2.3114677,-4.5574371,3124.874,9066.6847)"
       y2="1622.312"
       x2="773.92999"
       y1="1628.624"
       x1="773.80499"
       gradientUnits="userSpaceOnUse"
       id="SVGID_11_">
      <stop
         id="stop115"
         stop-color="#fff"
         offset="0" />
      <stop
         id="stop117"
         stop-opacity="0"
         stop-color="#fff"
         offset="1" />
    </linearGradient>
    <radialGradient
       gradientUnits="userSpaceOnUse"
       gradientTransform="matrix(5.112854,0,0,-2.0800125,-3093.0447,4528.7037)"
       r="22.75"
       cy="1808.476"
       cx="657.79999"
       id="SVGID_14_">
      <stop
         id="stop140"
         stop-opacity=".33"
         stop-color="#fff"
         offset="0" />
      <stop
         id="stop142"
         stop-opacity="0"
         stop-color="#fff"
         offset="1" />
    </radialGradient>
    <linearGradient
       gradientTransform="matrix(4.4942768,-0.98640693,-1.1951984,-3.5559865,-1532.7014,7647.2091)"
       y2="1666.103"
       x2="845.59601"
       y1="1672.415"
       x1="845.47101"
       gradientUnits="userSpaceOnUse"
       id="SVGID_15_">
      <stop
         id="stop147"
         stop-color="#fff"
         offset="0" />
      <stop
         id="stop149"
         stop-opacity="0"
         stop-color="#fff"
         offset="1" />
    </linearGradient>
    <radialGradient
       gradientUnits="userSpaceOnUse"
       gradientTransform="matrix(16.624449,0,0,-16.351979,-12106.921,26707.891)"
       r="54.783001"
       cy="1625.5229"
       cx="763.461"
       id="SVGID_18_">
      <stop
         id="stop172"
         stop-color="#fff"
         offset="0" />
      <stop
         id="stop174"
         stop-opacity="0"
         stop-color="#fff"
         offset="1" />
    </radialGradient>
    <linearGradient
       gradientTransform="matrix(9.6532725,0,0,-9.6472809,-6390.8525,16144.964)"
       y2="1599.097"
       x2="688.78699"
       y1="1602.6379"
       x1="684.33099"
       gradientUnits="userSpaceOnUse"
       id="SVGID_22_">
      <stop
         id="stop208"
         stop-color="#fff"
         offset="0" />
      <stop
         id="stop210"
         stop-opacity="0"
         stop-color="#fff"
         offset="1" />
    </linearGradient>
    <radialGradient
       gradientUnits="userSpaceOnUse"
       gradientTransform="matrix(0.17634383,0,0,-0.11625893,806.69193,1564.5581)"
       r="30.6"
       cy="1499.38"
       cx="751.02698"
       id="SVGID_4_-7">
      <stop
         id="stop58-93"
         stop-color="#fff"
         offset="0" />
      <stop
         id="stop60-9"
         stop-opacity="0"
         stop-color="#fff"
         offset="1" />
    </radialGradient>
    <filter
       style="color-interpolation-filters:sRGB"
       height="1.228"
       id="l-7"
       width="1.156"
       x="-0.078000002"
       y="-0.114">
      <feGaussianBlur
         stdDeviation="1.958"
         id="feGaussianBlur16-7" />
    </filter>
    <radialGradient
       gradientUnits="userSpaceOnUse"
       gradientTransform="matrix(10.2775,0,0,-6.8772,-7655.078,11104.272)"
       r="30.6"
       cy="1464.667"
       cx="792.51898"
       id="SVGID_5_-6">
      <stop
         id="stop65-2"
         stop-color="#fff"
         offset="0" />
      <stop
         id="stop67-8"
         stop-opacity="0"
         stop-color="#fff"
         offset="1" />
    </radialGradient>
    <radialGradient
       gradientUnits="userSpaceOnUse"
       gradientTransform="matrix(0.11231711,0,0,-0.04683356,863.30598,1467.0127)"
       r="34.25"
       cy="1812.4871"
       cx="778.58801"
       id="SVGID_6_-1">
      <stop
         id="stop74-4"
         stop-color="#fff"
         offset="0" />
      <stop
         id="stop76-9"
         stop-opacity="0"
         stop-color="#fff"
         offset="1" />
    </radialGradient>
    <filter
       style="color-interpolation-filters:sRGB"
       height="1.351"
       id="o-5"
       width="1.149"
       x="-0.074000001"
       y="-0.175">
      <feGaussianBlur
         stdDeviation="2.12"
         id="feGaussianBlur13-9" />
    </filter>
    <radialGradient
       gradientUnits="userSpaceOnUse"
       gradientTransform="matrix(5.1304,0,0,-2.1713,-3103.88,4575.764)"
       r="34.25"
       cy="1798.854"
       cx="785.86298"
       id="SVGID_7_-2">
      <stop
         id="stop81-9"
         stop-color="#fff"
         offset="0" />
      <stop
         id="stop83-13"
         stop-opacity="0"
         stop-color="#fff"
         offset="1" />
    </radialGradient>
    <filter
       style="color-interpolation-filters:sRGB"
       height="1.946"
       id="t-4"
       width="1.14"
       x="-0.07"
       y="-0.47299999">
      <feGaussianBlur
         stdDeviation=".821"
         id="feGaussianBlur7-2" />
    </filter>
    <filter
       style="color-interpolation-filters:sRGB"
       height="1.946"
       id="filter6541"
       width="1.14"
       x="-0.07"
       y="-0.47299999">
      <feGaussianBlur
         stdDeviation=".821"
         id="feGaussianBlur6539" />
    </filter>
    <radialGradient
       gradientUnits="userSpaceOnUse"
       gradientTransform="matrix(0.11231711,0,0,-0.04503254,863.30598,1466.2036)"
       r="22.75"
       cy="1808.476"
       cx="657.79999"
       id="SVGID_14_-2">
      <stop
         id="stop140-14"
         stop-opacity=".33"
         stop-color="#fff"
         offset="0" />
      <stop
         id="stop142-2"
         stop-opacity="0"
         stop-color="#fff"
         offset="1" />
    </radialGradient>
    <filter
       style="color-interpolation-filters:sRGB"
       height="1.331"
       id="w-47"
       width="1.152"
       x="-0.075999998"
       y="-0.16599999">
      <feGaussianBlur
         stdDeviation=".665"
         id="feGaussianBlur4-0" />
    </filter>
    <filter
       style="color-interpolation-filters:sRGB"
       height="1.245"
       id="A-5"
       width="1.165"
       x="-0.082999997"
       y="-0.122">
      <feGaussianBlur
         stdDeviation="3.687"
         id="feGaussianBlur25-8" />
    </filter>
    <linearGradient
       id="SVGID_19_"
       gradientUnits="userSpaceOnUse"
       x1="650.41699"
       y1="1573.592"
       x2="708.41699"
       y2="1558.256"
       gradientTransform="matrix(4.7299,0,0,-4.7284,-2745.485,8224.994)">
      <stop
         offset="0"
         stop-color="#fff"
         id="stop179" />
      <stop
         offset="1"
         stop-color="#fff"
         stop-opacity="0"
         id="stop181" />
    </linearGradient>
    <linearGradient
       id="SVGID_20_"
       gradientUnits="userSpaceOnUse"
       x1="708.63702"
       y1="1605.906"
       x2="705.45599"
       y2="1598.6169"
       gradientTransform="matrix(9.6864,0,0,-9.6834,-6413.005,16207.014)">
      <stop
         offset="0"
         stop-color="#eeeeec"
         id="stop188" />
      <stop
         offset="1"
         stop-color="#eeeeec"
         stop-opacity="0"
         id="stop190" />
    </linearGradient>
    <filter
       style="color-interpolation-filters:sRGB"
       id="D-3">
      <feGaussianBlur
         stdDeviation="1.241"
         id="feGaussianBlur22-3" />
    </filter>
    <radialGradient
       gradientUnits="userSpaceOnUse"
       gradientTransform="matrix(6.3925,0,0,-8.1214,-4297.036,12908.758)"
       r="22.466"
       cy="1483.588"
       cx="785.73602"
       id="SVGID_21_-5">
      <stop
         id="stop195-49"
         stop-color="#fff"
         offset="0" />
      <stop
         id="stop197-7"
         stop-opacity="0"
         stop-color="#fff"
         offset="1" />
    </radialGradient>
    <linearGradient
       gradientTransform="matrix(0.21205922,0,0,-0.20886487,790.86107,1717.6972)"
       y2="1599.097"
       x2="688.78699"
       y1="1602.6379"
       x1="684.33099"
       gradientUnits="userSpaceOnUse"
       id="SVGID_22_-8">
      <stop
         id="stop208-2"
         stop-color="#fff"
         offset="0" />
      <stop
         id="stop210-6"
         stop-opacity="0"
         stop-color="#fff"
         offset="1" />
    </linearGradient>
    <filter
       style="color-interpolation-filters:sRGB"
       id="F-3">
      <feGaussianBlur
         stdDeviation="2.77"
         id="feGaussianBlur19-8" />
    </filter>
    <filter
       style="color-interpolation-filters:sRGB"
       id="F-3-5">
      <feGaussianBlur
         stdDeviation="2.77"
         id="feGaussianBlur19-8-7" />
    </filter>
    <linearGradient
       gradientTransform="matrix(0.21205922,0,0,-0.20886487,-138.93789,350.85885)"
       y2="1599.097"
       x2="688.78699"
       y1="1602.6379"
       x1="684.33099"
       gradientUnits="userSpaceOnUse"
       id="SVGID_22_-8-2">
      <stop
         id="stop208-2-6"
         stop-color="#fff"
         offset="0" />
      <stop
         id="stop210-6-0"
         stop-opacity="0"
         stop-color="#fff"
         offset="1" />
    </linearGradient>
    <filter
       style="color-interpolation-filters:sRGB"
       height="1.245"
       id="A-5-6"
       width="1.165"
       x="-0.082999997"
       y="-0.122">
      <feGaussianBlur
         stdDeviation="3.687"
         id="feGaussianBlur25-8-3" />
    </filter>
    <linearGradient
       id="SVGID_19_-6"
       gradientUnits="userSpaceOnUse"
       x1="650.41699"
       y1="1573.592"
       x2="708.41699"
       y2="1558.256"
       gradientTransform="matrix(4.7299,0,0,-4.7284,-2745.485,8224.994)">
      <stop
         offset="0"
         stop-color="#fff"
         id="stop179-3" />
      <stop
         offset="1"
         stop-color="#fff"
         stop-opacity="0"
         id="stop181-0" />
    </linearGradient>
    <linearGradient
       id="SVGID_20_-0"
       gradientUnits="userSpaceOnUse"
       x1="708.63702"
       y1="1605.906"
       x2="705.45599"
       y2="1598.6169"
       gradientTransform="matrix(9.6864,0,0,-9.6834,-6413.005,16207.014)">
      <stop
         offset="0"
         stop-color="#eeeeec"
         id="stop188-2" />
      <stop
         offset="1"
         stop-color="#eeeeec"
         stop-opacity="0"
         id="stop190-1" />
    </linearGradient>
    <filter
       style="color-interpolation-filters:sRGB"
       id="D-3-5">
      <feGaussianBlur
         stdDeviation="1.241"
         id="feGaussianBlur22-3-0" />
    </filter>
    <radialGradient
       gradientUnits="userSpaceOnUse"
       gradientTransform="matrix(6.3925,0,0,-8.1214,-4297.036,12908.758)"
       r="22.466"
       cy="1483.588"
       cx="785.73602"
       id="SVGID_21_-5-1">
      <stop
         id="stop195-49-8"
         stop-color="#fff"
         offset="0" />
      <stop
         id="stop197-7-5"
         stop-opacity="0"
         stop-color="#fff"
         offset="1" />
    </radialGradient>
    <filter
       style="color-interpolation-filters:sRGB"
       height="1.331"
       id="w-47-6"
       width="1.152"
       x="-0.075999998"
       y="-0.16599999">
      <feGaussianBlur
         stdDeviation=".665"
         id="feGaussianBlur4-0-3" />
    </filter>
    <radialGradient
       gradientUnits="userSpaceOnUse"
       gradientTransform="matrix(0.11231711,0,0,-0.04503254,-66.492965,99.36529)"
       r="22.75"
       cy="1808.476"
       cx="657.79999"
       id="SVGID_14_-2-5">
      <stop
         id="stop140-14-7"
         stop-opacity=".33"
         stop-color="#fff"
         offset="0" />
      <stop
         id="stop142-2-1"
         stop-opacity="0"
         stop-color="#fff"
         offset="1" />
    </radialGradient>
    <filter
       style="color-interpolation-filters:sRGB"
       height="1.946"
       id="t-4-0"
       width="1.14"
       x="-0.07"
       y="-0.47299999">
      <feGaussianBlur
         stdDeviation=".821"
         id="feGaussianBlur7-2-4" />
    </filter>
    <filter
       style="color-interpolation-filters:sRGB"
       height="1.946"
       id="filter6713"
       width="1.14"
       x="-0.07"
       y="-0.47299999">
      <feGaussianBlur
         stdDeviation=".821"
         id="feGaussianBlur6711" />
    </filter>
    <filter
       style="color-interpolation-filters:sRGB"
       height="1.351"
       id="o-5-3"
       width="1.149"
       x="-0.074000001"
       y="-0.175">
      <feGaussianBlur
         stdDeviation="2.12"
         id="feGaussianBlur13-9-5" />
    </filter>
    <radialGradient
       gradientUnits="userSpaceOnUse"
       gradientTransform="matrix(5.1304,0,0,-2.1713,-3103.88,4575.764)"
       r="34.25"
       cy="1798.854"
       cx="785.86298"
       id="SVGID_7_-2-0">
      <stop
         id="stop81-9-9"
         stop-color="#fff"
         offset="0" />
      <stop
         id="stop83-13-9"
         stop-opacity="0"
         stop-color="#fff"
         offset="1" />
    </radialGradient>
    <radialGradient
       gradientUnits="userSpaceOnUse"
       gradientTransform="matrix(0.11231711,0,0,-0.04683357,-66.492965,100.17438)"
       r="34.25"
       cy="1812.4871"
       cx="778.58801"
       id="SVGID_6_-1-3">
      <stop
         id="stop74-4-2"
         stop-color="#fff"
         offset="0" />
      <stop
         id="stop76-9-5"
         stop-opacity="0"
         stop-color="#fff"
         offset="1" />
    </radialGradient>
    <filter
       style="color-interpolation-filters:sRGB"
       height="1.228"
       id="l-7-7"
       width="1.156"
       x="-0.078000002"
       y="-0.114">
      <feGaussianBlur
         stdDeviation="1.958"
         id="feGaussianBlur16-7-0" />
    </filter>
    <radialGradient
       gradientUnits="userSpaceOnUse"
       gradientTransform="matrix(10.2775,0,0,-6.8772,-7655.078,11104.272)"
       r="30.6"
       cy="1464.667"
       cx="792.51898"
       id="SVGID_5_-6-9">
      <stop
         id="stop65-2-8"
         stop-color="#fff"
         offset="0" />
      <stop
         id="stop67-8-1"
         stop-opacity="0"
         stop-color="#fff"
         offset="1" />
    </radialGradient>
    <radialGradient
       gradientUnits="userSpaceOnUse"
       gradientTransform="matrix(0.17634384,0,0,-0.11625894,-123.10702,197.71977)"
       r="30.6"
       cy="1499.38"
       cx="751.02698"
       id="SVGID_4_-7-3">
      <stop
         id="stop58-93-7"
         stop-color="#fff"
         offset="0" />
      <stop
         id="stop60-9-3"
         stop-opacity="0"
         stop-color="#fff"
         offset="1" />
    </radialGradient>
    <linearGradient
       inkscape:collect="always"
       xlink:href="#linearGradient6273"
       id="linearGradient6275"
       x1="427.26395"
       y1="106.08062"
       x2="433.57645"
       y2="106.08062"
       gradientUnits="userSpaceOnUse"
       gradientTransform="matrix(1.8102594,0,0,1.8102594,-766.40341,-186.59894)" />
    <linearGradient
       inkscape:collect="always"
       id="linearGradient6273">
      <stop
         style="stop-color:#ab2121;stop-opacity:1;"
         offset="0"
         id="stop6269" />
      <stop
         style="stop-color:#ab2121;stop-opacity:0;"
         offset="1"
         id="stop6271" />
    </linearGradient>
    <filter
       inkscape:collect="always"
       style="color-interpolation-filters:sRGB"
       id="filter6442"
       x="-0.035265956"
       width="1.0705318"
       y="-0.036765251"
       height="1.0735306">
      <feGaussianBlur
         inkscape:collect="always"
         stdDeviation="0.21687297"
         id="feGaussianBlur6444" />
    </filter>
  </defs>
  <sodipodi:namedview
     pagecolor="#ffffff"
     bordercolor="#666666"
     borderopacity="1"
     objecttolerance="10"
     gridtolerance="10"
     guidetolerance="10"
     inkscape:pageopacity="0"
     inkscape:pageshadow="2"
     inkscape:window-width="1366"
     inkscape:window-height="705"
     id="namedview227"
     showgrid="false"
     inkscape:zoom="0.13350176"
     inkscape:cx="-1259.6848"
     inkscape:cy="1332.4093"
     inkscape:window-x="-8"
     inkscape:window-y="-8"
     inkscape:window-maximized="1"
     inkscape:current-layer="Layer_1" />
  <style
     id="style2">.st0{enable-background:new}.st1{opacity:.783}.st2{opacity:.576;enable-background:new}.st3{fill:none}.st4,.st5{opacity:.67;fill:url(#SVGID_1_);enable-background:new}.st5{opacity:.505;fill:url(#SVGID_2_)}.st6{fill:url(#SVGID_3_)}.st7,.st8{enable-background:new}.st7{fill:url(#SVGID_4_);opacity:.217}.st8{opacity:.276;filter:url(#l)}.st9{fill:url(#SVGID_5_)}.st10,.st11{enable-background:new}.st10{fill:url(#SVGID_6_);opacity:.453}.st11{opacity:.512;filter:url(#o)}.st12{fill:url(#SVGID_7_)}.st13,.st14{enable-background:new}.st13{fill:url(#SVGID_8_);opacity:.286}.st14{opacity:.621;filter:url(#r)}.st15{fill:url(#SVGID_9_)}.st16{filter:url(#t)}.st17{fill:url(#SVGID_10_)}.st18{opacity:.286;fill:url(#SVGID_11_);enable-background:new}.st19{fill:url(#SVGID_12_)}.st20{fill:url(#SVGID_13_)}.st21{fill:url(#SVGID_14_)}.st22{opacity:.286;fill:url(#SVGID_15_);enable-background:new}.st23{fill:url(#SVGID_16_)}.st24{opacity:.616;filter:url(#w);enable-background:new}.st25{fill:url(#SVGID_17_)}.st26{fill:none;stroke:url(#SVGID_18_);stroke-width:1.004}.st27{opacity:.325;filter:url(#A);enable-background:new}.st28{fill:url(#SVGID_19_)}.st29{fill:url(#SVGID_20_)}.st30{opacity:.478;filter:url(#D);enable-background:new}.st31{fill:url(#SVGID_21_)}.st32{opacity:.586;fill:#fff}.st32,.st33,.st34{enable-background:new}.st33{fill:url(#SVGID_22_);opacity:.251}.st34{opacity:.363;filter:url(#F)}.st35{fill:url(#SVGID_23_)}</style>
  <filter
     height="1.331"
     id="w"
     width="1.152"
     x="-0.075999998"
     y="-0.16599999"
     style="color-interpolation-filters:sRGB">
    <feGaussianBlur
       stdDeviation=".665"
       id="feGaussianBlur4" />
  </filter>
  <filter
     height="1.946"
     id="t"
     width="1.14"
     x="-0.07"
     y="-0.47299999"
     style="color-interpolation-filters:sRGB">
    <feGaussianBlur
       stdDeviation=".821"
       id="feGaussianBlur7" />
  </filter>
  <filter
     height="1.556"
     id="r"
     width="1.171"
     x="-0.085000001"
     y="-0.278"
     style="color-interpolation-filters:sRGB">
    <feGaussianBlur
       stdDeviation=".565"
       id="feGaussianBlur10" />
  </filter>
  <filter
     height="1.351"
     id="o"
     width="1.149"
     x="-0.074000001"
     y="-0.175"
     style="color-interpolation-filters:sRGB">
    <feGaussianBlur
       stdDeviation="2.12"
       id="feGaussianBlur13" />
  </filter>
  <filter
     height="1.228"
     id="l"
     width="1.156"
     x="-0.078000002"
     y="-0.114"
     style="color-interpolation-filters:sRGB">
    <feGaussianBlur
       stdDeviation="1.958"
       id="feGaussianBlur16" />
  </filter>
  <filter
     id="F"
     style="color-interpolation-filters:sRGB">
    <feGaussianBlur
       stdDeviation="2.77"
       id="feGaussianBlur19" />
  </filter>
  <filter
     id="D"
     style="color-interpolation-filters:sRGB">
    <feGaussianBlur
       stdDeviation="1.241"
       id="feGaussianBlur22" />
  </filter>
  <filter
     height="1.245"
     id="A"
     width="1.165"
     x="-0.082999997"
     y="-0.122"
     style="color-interpolation-filters:sRGB">
    <feGaussianBlur
       stdDeviation="3.687"
       id="feGaussianBlur25" />
  </filter>
  <path
     id="path6287"
     class="st3"
     d="m 410.48159,102.62792 -5.42764,5.41684 c -2.05501,2.0024 1.33117,1.83597 2.55658,2.59283 0.56664,0.35927 -1.81778,0.82157 -1.33113,1.29709 0.47443,0.47549 2.85885,0.91139 3.33329,1.37368 0.47444,0.47549 -0.96245,0.9761 -0.488,1.45029 0.46089,0.47552 1.56838,0.0251 1.76493,1.10424 0.14505,0.79647 2.02926,0.39758 2.87242,-0.28268 0.52732,-0.43587 -0.90957,-0.43587 -0.43513,-0.91135 1.1861,-1.16766 2.23937,-0.52706 2.67451,-1.60486 0.23722,-0.57721 -1.79205,-0.988 -1.25119,-1.36049 1.29184,-0.88626 6.03493,-1.33537 3.84707,-3.46592 l -5.62555,-5.61098 c -0.69811,-0.6406 -1.8449,-0.6406 -2.49016,0.001 z m 6.23149,10.43738 c 0,0.26948 2.1472,0.42401 2.02927,-0.0647 -0.1708,-0.82158 -1.79205,-0.75686 -2.02927,0.0647 z m -9.15676,1.42522 c 0.48798,0.41079 1.22541,-0.0899 1.46264,-0.66703 -0.47444,-0.60495 -2.22582,0.0371 -1.46264,0.66703 z m 8.89377,-0.86121 c -0.60591,0.53892 0.1057,1.10423 0.69813,0.73178 0.15859,-0.10166 -0.0136,-0.60364 -0.69813,-0.73178 z"
     inkscape:connector-curvature="0"
     style="opacity:1;fill:#666666;fill-opacity:1;stroke-width:0;stroke-miterlimit:4;stroke-dasharray:none;filter:url(#filter6442)"
     transform="matrix(1.707915,0,0,1.7755351,-689.80312,-180.44237)" />
  <path
     inkscape:connector-curvature="0"
     id="path34"
     d="M 11.266475,2.1054504 2.5007255,10.95106 c -3.31889001,3.26991 2.14985,2.99814 4.12893,4.23407 0.91511,0.58669 -2.93577,1.34161 -2.14983,2.11814 0.76623,0.77647 4.61711,1.48828 5.38335,2.2432 0.7662295,0.77647 -1.55438,1.59397 -0.78813,2.3683 0.74434,0.77652 2.5329695,0.0409 2.8503995,1.8032 0.23425,1.30064 3.27729,0.64925 4.63901,-0.46159 0.85163,-0.71178 -1.46897,-0.71178 -0.70275,-1.48825 1.9156,-1.90675 3.61665,-0.86064 4.31939,-2.6207 0.38312,-0.94257 -2.89419,-1.61337 -2.02068,-2.22166 2.08634,-1.44726 9.74652,-2.18064 6.21308,-5.65979 l -9.08537,-9.1626696 c -1.12746,-1.04609 -2.97956,-1.04609 -4.02165,0.002 z M 21.330445,19.14957 c 0,0.44003 3.46777,0.6924 3.27732,-0.10572 -0.27585,-1.3416 -2.89419,-1.23594 -3.27732,0.10572 z M 6.5420955,21.47693 c 0.78811,0.67081 1.97907,-0.14682 2.36219,-1.08925 -0.76623,-0.9879 -3.59474,0.0606 -2.36219,1.08925 z M 20.905725,20.07059 c -0.97857,0.88004 0.17071,1.8032 1.12748,1.19497 0.25614,-0.166 -0.0219,-0.98572 -1.12748,-1.19497 z"
     style="fill:#000000;stroke-width:0;stroke-miterlimit:4;stroke-dasharray:none" />
  <path
     style="fill:none;stroke-width:0;stroke-miterlimit:4;stroke-dasharray:none"
     inkscape:connector-curvature="0"
     d="M 11.266475,2.1054504 2.5007255,10.95106 c -3.31889001,3.26991 2.14985,2.99814 4.12893,4.23407 0.91511,0.58669 -2.93577,1.34161 -2.14983,2.11814 0.76623,0.77647 4.61711,1.48828 5.38335,2.2432 0.7662295,0.77647 -1.55438,1.59397 -0.78813,2.3683 0.74434,0.77652 2.5329695,0.0409 2.8503995,1.8032 0.23425,1.30064 3.27729,0.64925 4.63901,-0.46159 0.85163,-0.71178 -1.46897,-0.71178 -0.70275,-1.48825 1.9156,-1.90675 3.61665,-0.86064 4.31939,-2.6207 0.38312,-0.94257 -2.89419,-1.61337 -2.02068,-2.22166 2.08634,-1.44726 9.74652,-2.18064 6.21308,-5.65979 l -9.08537,-9.1626696 c -1.12746,-1.04609 -2.97956,-1.04609 -4.02165,0.002 z M 21.330445,19.14957 c 0,0.44003 3.46777,0.6924 3.27732,-0.10572 -0.27585,-1.3416 -2.89419,-1.23594 -3.27732,0.10572 z M 6.5420955,21.47693 c 0.78811,0.67081 1.97907,-0.14682 2.36219,-1.08925 -0.76623,-0.9879 -3.59474,0.0606 -2.36219,1.08925 z M 20.905725,20.07059 c -0.97857,0.88004 0.17071,1.8032 1.12748,1.19497 0.25614,-0.166 -0.0219,-0.98572 -1.12748,-1.19497 z"
     class="st3"
     id="H" />
  <path
     inkscape:connector-curvature="0"
     style="fill:#f9f9f9;fill-opacity:1;stroke:url(#linearGradient6275);stroke-width:0;stroke-miterlimit:4;stroke-dasharray:none"
     id="path56"
     d="m 14.756145,2.7331204 3.46775,3.47917 c 0.31964,0.31495 0.31964,0.96413 0.1269,1.15392 l -1.72293,-1.38257 -0.34154,2.03399 -1.4252,-0.75491 -2.31842,1.44728 -0.76623,-3.0391 -1.23255,2.64006 -3.0846395,-0.0213 c -0.59547,0 -0.5101,-0.60829 0.10716,-1.21652 1.21284,-1.32006 3.5750295,-3.56326 4.3193895,-4.33977 0.76404,-0.77649 2.10385,-0.75493 2.8701,0 z"
     class="st6" />
  <path
     inkscape:connector-curvature="0"
     style="opacity:0.21700003;fill:url(#SVGID_4_-7-3);stroke-width:0;stroke-miterlimit:4;stroke-dasharray:none;enable-background:new"
     id="path63"
     d="m 9.9967055,19.1733 c 0,0 0.3765695,0.56726 0.3371595,0.83259 -0.0746,0.52199 -1.2194095,0.78296 -0.9654695,1.24886 0.24958,0.45943 1.1515495,0.19846 1.9090295,0.67943 0.75309,0.47885 0.55168,1.4538 1.09901,1.69967 1.06836,0.47885 3.87495,-0.82611 3.73266,-0.79807 -0.14011,0.0286 -2.7694,0.56515 -3.36049,0.0949 -0.67428,-0.53709 -0.86914,-0.91452 -1.36611,-1.23161 -0.46629,-0.2975 -1.12088,-0.42059 -1.27413,-0.66433 -0.1531495,-0.2437 0.30649,-0.55864 0.33714,-1.02886 0.0186,-0.28253 -0.4487995,-0.83259 -0.4487995,-0.83259 z"
     class="st7" />
  <g
     style="opacity:0.27600002;stroke-width:0;stroke-miterlimit:4;stroke-dasharray:none;filter:url(#l-7-7);enable-background:new"
     id="g72"
     class="st8"
     transform="matrix(0.02189246,0,0,0.02156937,1.4586555,1.2836804)">
    <radialGradient
       gradientUnits="userSpaceOnUse"
       gradientTransform="matrix(10.2775,0,0,-6.8772,-7655.078,11104.272)"
       r="30.6"
       cy="1464.667"
       cx="792.51898"
       id="radialGradient1836">
      <stop
         id="stop1832"
         stop-color="#fff"
         offset="0" />
      <stop
         id="stop1834"
         stop-opacity="0"
         stop-color="#fff"
         offset="1" />
    </radialGradient>
    <path
       inkscape:connector-curvature="0"
       style="fill:url(#SVGID_5_-6-9);stroke-width:0;stroke-miterlimit:4;stroke-dasharray:none"
       id="path70"
       d="m 390,829.4 c 0,0 17.2,26.3 15.4,38.6 -3.4,24.2 -55.7,36.3 -44.1,57.9 11.4,21.3 52.6,9.2 87.2,31.5 34.4,22.2 25.2,67.4 50.2,78.8 48.8,22.2 177,-38.3 170.5,-37 -212.8,0.8 -173.1,-54 -255.2,-90.1 -11.9,-5.2 -5,-19.4 -3.5,-41.2 0.9,-13 -20.5,-38.5 -20.5,-38.5 z"
       class="st9" />
  </g>
  <path
     inkscape:connector-curvature="0"
     style="opacity:0.453;fill:url(#SVGID_6_-1-3);stroke-width:0;stroke-miterlimit:4;stroke-dasharray:none;enable-background:new"
     id="path79"
     d="m 17.913045,16.75972 c 4.18144,-1.51637 5.52565,-1.72341 6.90268,-3.0823 -1.59594,1.32654 -4.9696,2.03832 -7.71927,3.22031 z"
     class="st10" />
  <g
     style="opacity:0.51200005;stroke-width:0;stroke-miterlimit:4;stroke-dasharray:none;filter:url(#o-5-3);enable-background:new"
     id="g88"
     class="st11"
     transform="matrix(0.02189246,0,0,0.02156937,1.4586555,1.2836804)">
    <radialGradient
       gradientUnits="userSpaceOnUse"
       gradientTransform="matrix(5.1304,0,0,-2.1713,-3103.88,4575.764)"
       r="34.25"
       cy="1798.854"
       cx="785.86298"
       id="radialGradient1845">
      <stop
         id="stop1841"
         stop-color="#fff"
         offset="0" />
      <stop
         id="stop1843"
         stop-opacity="0"
         stop-color="#fff"
         offset="1" />
    </radialGradient>
    <path
       inkscape:connector-curvature="0"
       style="fill:url(#SVGID_7_-2-0);stroke-width:0;stroke-miterlimit:4;stroke-dasharray:none"
       id="path86"
       d="M 751.6,708.4 C 1066.2,597 1013,597.6 1066.9,565.6 966.9,603.9 780,608 714.3,714.9 Z"
       class="st12" />
  </g>
  <g
     style="opacity:1;fill:#ffffff;fill-opacity:1;stroke-width:0;stroke-miterlimit:4;stroke-dasharray:none;filter:url(#t-4-0)"
     id="g113"
     class="st16"
     transform="matrix(0.02189246,0,0,0.02156937,1.4586555,1.2836804)">
    <radialGradient
       gradientUnits="userSpaceOnUse"
       gradientTransform="matrix(5.1304,0,0,-0.7578,-3103.88,2723.884)"
       r="14.093"
       cy="2495.7539"
       cx="796.61902"
       id="radialGradient1862">
      <stop
         id="stop1858"
         stop-color="#fff"
         offset="0" />
      <stop
         id="stop1860"
         stop-opacity="0"
         stop-color="#fff"
         offset="1" />
    </radialGradient>
    <path
       inkscape:connector-curvature="0"
       style="fill:#ffffff;fill-opacity:1;stroke-width:0;stroke-miterlimit:4;stroke-dasharray:none"
       id="path111"
       d="M 910.6,827.1 C 930,845 1038,854.2 1055.7,822 1021,846.5 943.9,837.9 910.6,827.1 Z"
       class="st17" />
  </g>
  <g
     style="opacity:1;fill:#ffffff;fill-opacity:1;stroke-width:0;stroke-miterlimit:4;stroke-dasharray:none;filter:url(#t-4-0)"
     id="g138"
     class="st16"
     transform="matrix(0.02189246,0,0,0.02156937,1.4586555,1.2836804)">
    <radialGradient
       gradientUnits="userSpaceOnUse"
       gradientTransform="matrix(1.9785,-1.0031,-0.3427,-0.6759,392.324,3686.019)"
       r="14.094"
       cy="2938.6909"
       cx="772.15698"
       id="radialGradient1879">
      <stop
         id="stop1875"
         stop-color="#fff"
         offset="0" />
      <stop
         id="stop1877"
         stop-opacity="0"
         stop-color="#fff"
         offset="1" />
    </radialGradient>
    <path
       inkscape:connector-curvature="0"
       style="fill:#ffffff;fill-opacity:1;stroke-width:0;stroke-miterlimit:4;stroke-dasharray:none"
       id="path136"
       d="m 884.1,923.2 c 15.6,12.2 74.3,13.8 52,-21.7 5.8,27.8 -34.3,24.8 -52,21.7 z"
       class="st20" />
  </g>
  <path
     inkscape:connector-curvature="0"
     style="fill:url(#SVGID_14_-2-5);stroke-width:0;stroke-miterlimit:4;stroke-dasharray:none"
     id="path145"
     d="m 4.9526855,17.2299 c 0,-0.0692 4.37849,1.31361 5.1272195,2.05343 -0.6173495,-0.59319 -3.7370295,-1.95635 -4.2120995,-1.97145 -0.47506,-0.0145 -0.85819,-0.0538 -0.91512,-0.082 z"
     class="st21" />
  <g
     style="opacity:1;fill:#ffffff;fill-opacity:1;stroke-width:0;stroke-miterlimit:4;stroke-dasharray:none;filter:url(#w-47-6);enable-background:new"
     id="g170"
     class="st24"
     transform="matrix(0.02189246,0,0,0.02156937,1.4586555,1.2836804)">
    <radialGradient
       gradientUnits="userSpaceOnUse"
       gradientTransform="matrix(6.08,-1.6846,-0.6301,-2.2741,-3042.794,6296.068)"
       r="10.469"
       cy="1812.861"
       cx="733.409"
       id="radialGradient1897">
      <stop
         id="stop1893"
         stop-color="#fff"
         offset="0" />
      <stop
         id="stop1895"
         stop-opacity="0"
         stop-color="#fff"
         offset="1" />
    </radialGradient>
    <path
       inkscape:connector-curvature="0"
       style="fill:#ffffff;fill-opacity:1;stroke-width:0;stroke-miterlimit:4;stroke-dasharray:none"
       id="path168"
       d="m 223.6,909.2 c 0,0 10.8,29.1 40.5,30.6 30.1,1.5 64.4,-36.1 67.2,-49.5 -5.1,11.6 -33.9,46.5 -71.1,46 -21,-0.3 -36.6,-27.1 -36.6,-27.1 z"
       class="st25" />
  </g>
  <g
     id="g204"
     transform="matrix(0.02189246,0,0,0.02156937,1.4586555,1.2836804)"
     style="stroke-width:0;stroke-miterlimit:4;stroke-dasharray:none">
    <g
       style="opacity:0.325;stroke-width:0;stroke-miterlimit:4;stroke-dasharray:none;filter:url(#A-5-6);enable-background:new"
       id="g186"
       class="st27">
      <linearGradient
         gradientTransform="matrix(4.7299,0,0,-4.7284,-2745.485,8224.994)"
         y2="1558.256"
         x2="708.41699"
         y1="1573.592"
         x1="650.41699"
         gradientUnits="userSpaceOnUse"
         id="linearGradient1906">
        <stop
           id="stop1902"
           stop-color="#fff"
           offset="0" />
        <stop
           id="stop1904"
           stop-opacity="0"
           stop-color="#fff"
           offset="1" />
      </linearGradient>
      <path
         inkscape:connector-curvature="0"
         style="fill:url(#SVGID_19_-6);stroke-width:0;stroke-miterlimit:4;stroke-dasharray:none"
         id="path184"
         d="m 318.9,658 c -24.2,7.1 -102.5,36.7 -91.4,59.3 10.7,21.7 192.7,30.4 220.7,94.9 12.2,28.1 -28,49.4 -17.8,78.3 7.8,22.3 68.4,78.3 106.7,104.7 30.1,20.8 69.5,-16.7 53.5,-47.8 -25.6,-49.5 87.5,-110.1 138.8,-137.6 29.9,-16.1 -61.7,-94.9 -61.7,-94.9 z"
         class="st28" />
    </g>
    <linearGradient
       gradientTransform="matrix(9.6864,0,0,-9.6834,-6413.005,16207.014)"
       y2="1598.6169"
       x2="705.45599"
       y1="1605.906"
       x1="708.63702"
       gradientUnits="userSpaceOnUse"
       id="linearGradient1914">
      <stop
         id="stop1910"
         stop-color="#eeeeec"
         offset="0" />
      <stop
         id="stop1912"
         stop-opacity="0"
         stop-color="#eeeeec"
         offset="1" />
    </linearGradient>
    <path
       inkscape:connector-curvature="0"
       style="fill:url(#SVGID_20_-0);stroke-width:0;stroke-miterlimit:4;stroke-dasharray:none"
       id="path193"
       d="m 327.9,679.9 c 21.7,15.9 64.5,6.3 90.2,17.9 61.7,27.8 137.6,58.8 123.6,3.9 l -15.7,13 -0.3,-24.9 -36.5,8.9 c 0,0 -28.3,-22.7 -41.2,-30.2 -2.7,-1.6 -16.6,12.6 -16.6,12.6 l -2.5,-15 c -17.2,-1.8 -34.4,-2.7 -51.7,-2.6 -37.6,0.4 -63.1,6.3 -49.3,16.4 z"
       class="st29" />
    <g
       style="opacity:0.478;stroke-width:0;stroke-miterlimit:4;stroke-dasharray:none;filter:url(#D-3-5);enable-background:new"
       id="g202"
       class="st30">
      <radialGradient
         gradientUnits="userSpaceOnUse"
         gradientTransform="matrix(6.3925,0,0,-8.1214,-4297.036,12908.758)"
         r="22.466"
         cy="1483.588"
         cx="785.73602"
         id="radialGradient1921">
        <stop
           id="stop1917"
           stop-color="#fff"
           offset="0" />
        <stop
           id="stop1919"
           stop-opacity="0"
           stop-color="#fff"
           offset="1" />
      </radialGradient>
      <path
         inkscape:connector-curvature="0"
         style="fill:url(#SVGID_21_-5-1);stroke-width:0;stroke-miterlimit:4;stroke-dasharray:none"
         id="path200"
         d="m 733,730.4 c -8.4,30.7 102.6,72.5 94.3,93.7 -18.3,46.7 -118.5,14.9 -195.2,112.7 -11,14 15.4,64.1 11.9,58.1 -3.6,-5.9 -30.7,-47.3 -23.7,-67.6 21.8,-63.8 232.6,-87.6 194,-118.1 -22.2,-17.4 -102,-65.8 -81.3,-78.8 z"
         class="st31" />
    </g>
  </g>
  <path
     style="opacity:1;fill:#ffffff;fill-opacity:1;stroke-width:0;stroke-miterlimit:4;stroke-dasharray:none;enable-background:new"
     inkscape:connector-curvature="0"
     id="path206"
     d="m 22.974585,18.40113 c 0,0.0606 -0.11821,0.10789 -0.26711,0.10789 -0.1488,0 -0.26708,-0.0494 -0.26708,-0.11006 0,-0.0606 0.11821,-0.10789 0.26708,-0.10789 0.14881,0 0.26711,0.0494 0.26711,0.11006 z m -1.77768,2.00811 c 0,0.0603 -0.0766,0.10789 -0.16853,0.10789 -0.0941,0 -0.16854,-0.0494 -0.16854,-0.11007 0,-0.0603 0.0766,-0.10789 0.16854,-0.10789 0.092,0.002 0.16853,0.0496 0.16853,0.11007 z M 7.7264755,20.31434 c 0,0.0603 -0.1336,0.10789 -0.29773,0.10789 -0.16419,0 -0.29775,-0.0496 -0.29775,-0.10789 0,-0.0603 0.13359,-0.10789 0.29775,-0.10789 0.16419,0 0.29773,0.0474 0.29773,0.10789 z"
     class="st32" />
  <path
     inkscape:connector-curvature="0"
     style="opacity:0.25100002;fill:url(#SVGID_22_-8-2);stroke-width:0;stroke-miterlimit:4;stroke-dasharray:none;enable-background:new"
     id="path213"
     d="m 7.5578855,15.52809 c -1.52152,0.92747 -3.88809,1.26398 -1.29821,1.88084 -0.3087,-0.67725 0.66773,-0.6018 1.29821,-1.88084 z"
     class="st33" />
  <g
     style="opacity:0.8;fill:#ffffff;stroke-width:0;stroke-miterlimit:4;stroke-dasharray:none;filter:url(#F-3-5);enable-background:new"
     id="g222"
     class="st34"
     transform="matrix(0.02189246,0,0,0.02156937,1.4586555,1.2836804)">
    <linearGradient
       gradientTransform="matrix(4.7299,0,0,-4.7284,-2127.702,8620.596)"
       y2="1717.71"
       x2="592.98199"
       y1="1644.71"
       x1="620.09399"
       gradientUnits="userSpaceOnUse"
       id="linearGradient1932">
      <stop
         id="stop1928"
         stop-color="#729fcf"
         offset="0" />
      <stop
         id="stop1930"
         stop-opacity="0"
         stop-color="#729fcf"
         offset="1" />
    </linearGradient>
    <path
       inkscape:connector-curvature="0"
       style="fill:#ffffff;stroke-width:0;stroke-miterlimit:4;stroke-dasharray:none"
       id="path220"
       d="m 525.4,1051.9 c 0,0 107.2,-10.1 132,-41 14.5,-18.1 -57.7,-39.2 -42.1,-57 58.6,-66.7 107.9,-63.9 175.8,-91.9 68,-27.9 42.9,-41.6 20.9,-53.9 -37.6,-21 -121.4,-43.4 -93.7,-93.2 27.9,-50.2 272.2,-119.8 272.2,-119.8 74,-25.3 64.7,-71 28.5,-109.2 L 800.7,268.8 c 0,0 10.8,205.9 -33.2,294.3 C 713,672.2 423.2,794 544.4,807.5 c 42.7,4.7 63.2,19.3 80.7,52.2 35.9,67.7 -99.7,192.2 -99.7,192.2 z"
       class="st35" />
  </g>
</svg>
