<?xml version="1.0" encoding="UTF-8" standalone="no"?>
<svg
   xmlns:dc="http://purl.org/dc/elements/1.1/"
   xmlns:cc="http://creativecommons.org/ns#"
   xmlns:rdf="http://www.w3.org/1999/02/22-rdf-syntax-ns#"
   xmlns:svg="http://www.w3.org/2000/svg"
   xmlns="http://www.w3.org/2000/svg"
   xmlns:sodipodi="http://sodipodi.sourceforge.net/DTD/sodipodi-0.dtd"
   xmlns:inkscape="http://www.inkscape.org/namespaces/inkscape"
   width="60.000114"
   height="60.000114"
   viewBox="0 130.746 14.286723 14.283817"
   version="1.1"
   id="svg11"
   sodipodi:docname="photoshop-cc.svg"
   inkscape:version="0.92.4 (5da689c313, 2019-01-14)">
  <metadata
     id="metadata17">
    <rdf:RDF>
      <cc:Work
         rdf:about="">
        <dc:format>image/svg+xml</dc:format>
        <dc:type
           rdf:resource="http://purl.org/dc/dcmitype/StillImage" />
      </cc:Work>
    </rdf:RDF>
  </metadata>
  <defs
     id="defs15">
    <filter
       inkscape:collect="always"
       style="color-interpolation-filters:sRGB"
       id="filter1341-6"
       x="-0.035999998"
       width="1.072"
       y="-0.035999998"
       height="1.072">
      <feGaussianBlur
         inkscape:collect="always"
         stdDeviation="0.22360249"
         id="feGaussianBlur1343-64" />
    </filter>
  </defs>
  <sodipodi:namedview
     pagecolor="#ffffff"
     bordercolor="#666666"
     borderopacity="1"
     objecttolerance="10"
     gridtolerance="10"
     guidetolerance="10"
     inkscape:pageopacity="0"
     inkscape:pageshadow="2"
     inkscape:window-width="1366"
     inkscape:window-height="705"
     id="namedview13"
     showgrid="false"
     inkscape:zoom="0.096800656"
     inkscape:cx="-2087.7457"
     inkscape:cy="887.43224"
     inkscape:window-x="-8"
     inkscape:window-y="-8"
     inkscape:window-maximized="1"
     inkscape:current-layer="svg11" />
  <radialGradient
     id="a"
     cx="-183.69"
     cy="328.97198"
     r="0.75999999"
     gradientTransform="matrix(545.6736,0,0,528.3113,100439.3,-173525.13)"
     gradientUnits="userSpaceOnUse">
    <stop
       offset="0"
       stop-color="#34364e"
       stop-opacity=".98"
       id="stop2" />
    <stop
       offset="1"
       stop-color="#0c0824"
       id="stop4" />
  </radialGradient>
  <rect
     style="opacity:1;fill:#563d7c;fill-opacity:1;stroke:#303030;stroke-width:0.44997469;stroke-linecap:round;stroke-linejoin:round;stroke-miterlimit:4;stroke-dasharray:none;stroke-dashoffset:0;stroke-opacity:1;paint-order:fill markers stroke"
     id="rect1412-0"
     width="12.408051"
     height="12.408051"
     x="0.93934613"
     y="131.62627"
     rx="0"
     ry="0" />
  <rect
     rx="1.213828"
     style="opacity:1;fill:#666666;fill-opacity:1;stroke:none;stroke-width:0.50331002;stroke-linecap:round;stroke-linejoin:round;stroke-miterlimit:4;stroke-dasharray:none;stroke-dashoffset:0;stroke-opacity:0.50196078;paint-order:fill markers stroke;filter:url(#filter1341-6)"
     id="rect1419-6"
     width="14.906833"
     height="14.906833"
     x="91.071602"
     y="-119.73991"
     transform="matrix(0.89403077,0,0,0.89403077,-80.941036,238.2179)"
     ry="1.213828" />
  <rect
     rx="0"
     ry="0"
     y="131.62627"
     x="0.93934613"
     height="12.408051"
     width="12.408051"
     id="rect1421-3"
     style="opacity:1;fill:#21609b;fill-opacity:1;stroke:#303030;stroke-width:0.44997469;stroke-linecap:round;stroke-linejoin:round;stroke-miterlimit:4;stroke-dasharray:none;stroke-dashoffset:0;stroke-opacity:1;paint-order:fill markers stroke" />
  <path
     style="opacity:1;fill:#256cae;fill-opacity:1;stroke:none;stroke-width:0.44997472;stroke-linecap:round;stroke-linejoin:round;stroke-miterlimit:4;stroke-dasharray:none;stroke-dashoffset:0;stroke-opacity:1;paint-order:fill markers stroke"
     d="m 7.0951537,132.30631 v 11.04796 h 5.5016403 v -11.04796 z"
     id="rect1455-0"
     inkscape:connector-curvature="0" />
  <path
     style="opacity:1;fill:#ffffff;fill-opacity:1;stroke:none;stroke-width:0.26998481;stroke-linecap:round;stroke-linejoin:round;stroke-miterlimit:4;stroke-dasharray:none;stroke-dashoffset:0;stroke-opacity:1;paint-order:stroke markers fill"
     d="m 5.2627537,134.75299 c 1.48403,0 2.06301,0.83562 2.06301,1.90164 0,1.39569 -0.98617,1.99465 -2.19695,1.99465 -0.20359,0 -0.27295,-0.0112 -0.41763,-0.0112 v 2.11 c 0,0.044 -0.0164,0.066 -0.0647,0.066 h -0.81944 c -0.0428,0 -0.0642,-0.0166 -0.0642,-0.066 v -5.90164 c 0,-0.0384 0.0748,-0.0656 0.11766,-0.0656 0.3429,-0.0165 0.85178,-0.0279 1.38217,-0.0279 z m -0.0321,0.87385 c -0.2143,0 -0.41791,0.0113 -0.51436,0.0168 v 2.12068 c 0.12323,0.011 0.21962,0.0111 0.43391,0.0111 0.62684,0 1.21613,-0.22526 1.21613,-1.09895 0,-0.69783 -0.42315,-1.04964 -1.13568,-1.04964 z m 4.09347,0.65947 c 0.46075,0 0.7821603,0.0716 0.9589603,0.15392 0.0428,0.0275 0.0535,0.0713 0.0535,0.10976 v 0.75294 c 0,0.044 -0.0269,0.0715 -0.0805,0.0549 -0.23572,-0.15381 -0.5842103,-0.24741 -0.9324603,-0.24741 -0.42325,0 -0.56783,0.22002 -0.56783,0.40135 0,0.19782 0.0967,0.33492 0.66457,0.63714 0.8411303,0.41762 1.1035903,0.81883 1.1035903,1.4068 0,0.87917 -0.6534903,1.35194 -1.5374903,1.35194 -0.46611,0 -0.86811,-0.0989 -1.09848,-0.23626 -0.0375,-0.0165 -0.0427,-0.0444 -0.0427,-0.0884 v -0.80735 c 0,-0.055 0.0267,-0.0717 0.0642,-0.0442 0.33752,0.2253 0.72349,0.32415 1.07708,0.32415 0.42325,0 0.59993,-0.18104 0.59993,-0.42832 0,-0.19781 -0.12299,-0.37371 -0.6641,-0.65945 -0.76078,-0.37365 -1.07709,-0.75305 -1.07709,-1.38496 0,-0.70886 0.54135,-1.2966 1.4789,-1.2966 z"
     id="rect4175"
     inkscape:connector-curvature="0"
     sodipodi:nodetypes="ssscssssscssccsssscsscsscsscsscsscss" />
  <path
     inkscape:connector-curvature="0"
     style="opacity:1;fill:#ececec;fill-opacity:1;stroke:none;stroke-width:0.44997472;stroke-linecap:round;stroke-linejoin:round;stroke-miterlimit:4;stroke-dasharray:none;stroke-dashoffset:0;stroke-opacity:1;paint-order:fill markers stroke"
     d="m 5.2625437,134.75283 c -0.53039,0 -1.03927,0.0114 -1.38217,0.0279 -0.0428,0 -0.11766,0.0272 -0.11766,0.0656 v 5.90163 c 0,0.0495 0.0213,0.066 0.0642,0.066 h 0.81944 c 0.0483,0 0.0646,-0.022 0.0646,-0.066 v -2.10998 c 0.14468,0 0.21405,0.0112 0.41763,0.0112 0.86129,0 1.60689,-0.30486 1.96675,-0.98221 v -2.02302 c -0.28998,-0.5382 -0.87005,-0.89112 -1.83281,-0.89112 z m -0.0321,0.87385 c 0.71253,0 1.13568,0.35181 1.13568,1.04965 0,0.87368 -0.5893,1.09894 -1.21614,1.09894 -0.21429,0 -0.31067,-1.4e-4 -0.4339,-0.0112 v -2.12069 c 0.0964,-0.005 0.30006,-0.0167 0.51436,-0.0167 z"
     id="path4223" />
</svg>
