<?xml version="1.0" encoding="UTF-8" standalone="no"?>
<!-- Created with Inkscape (http://www.inkscape.org/) -->

<svg
   xmlns:dc="http://purl.org/dc/elements/1.1/"
   xmlns:cc="http://creativecommons.org/ns#"
   xmlns:rdf="http://www.w3.org/1999/02/22-rdf-syntax-ns#"
   xmlns:svg="http://www.w3.org/2000/svg"
   xmlns="http://www.w3.org/2000/svg"
   xmlns:sodipodi="http://sodipodi.sourceforge.net/DTD/sodipodi-0.dtd"
   xmlns:inkscape="http://www.inkscape.org/namespaces/inkscape"
   width="107.29992mm"
   height="103.97985mm"
   viewBox="0 0 107.29992 103.97985"
   version="1.1"
   id="svg970"
   inkscape:version="0.92.4 (5da689c313, 2019-01-14)"
   sodipodi:docname="logo_new.svg">
  <defs
     id="defs964" />
  <sodipodi:namedview
     id="base"
     pagecolor="#ffffff"
     bordercolor="#666666"
     borderopacity="1.0"
     inkscape:pageopacity="0.0"
     inkscape:pageshadow="2"
     inkscape:zoom="0.35355339"
     inkscape:cx="-289.37914"
     inkscape:cy="164.04122"
     inkscape:document-units="mm"
     inkscape:current-layer="layer1"
     showgrid="false"
     inkscape:snap-bbox="true"
     inkscape:snap-global="true"
     inkscape:window-width="1366"
     inkscape:window-height="705"
     inkscape:window-x="-8"
     inkscape:window-y="-8"
     inkscape:window-maximized="1" />
  <metadata
     id="metadata967">
    <rdf:RDF>
      <cc:Work
         rdf:about="">
        <dc:format>image/svg+xml</dc:format>
        <dc:type
           rdf:resource="http://purl.org/dc/dcmitype/StillImage" />
        <dc:title />
      </cc:Work>
    </rdf:RDF>
  </metadata>
  <g
     inkscape:label="Layer 1"
     inkscape:groupmode="layer"
     id="layer1"
     transform="translate(172.71245,-92.610081)">
    <path
       style="opacity:1;fill:#5fbcd3;fill-opacity:1;stroke:#102320;stroke-width:0;stroke-linecap:round;stroke-linejoin:round;stroke-miterlimit:4;stroke-dasharray:none;stroke-dashoffset:0;stroke-opacity:1;paint-order:markers fill stroke"
       d="m -103.94766,92.611264 c -0.008,0.0021 -0.0144,0.0074 -0.0186,0.01447 -5.50806,14.725836 -10.49243,29.184566 -14.44873,40.853836 -4.3262,-11.41865 -9.7374,-25.58786 -15.72824,-40.479697 -0.004,-0.0061 -0.01,-0.0094 -0.0155,-0.01189 v -0.01447 h -38.55372 V 196.58993 h 38.55372 v -59.01811 c 1.71672,1.38559 7.69763,6.22164 11.27838,9.11934 -2.22843,6.59934 -3.71699,10.92029 -4.08451,11.37037 3.45944,-2.79513 6.3932,-5.17782 9.05681,-7.34839 3.42992,2.77452 4.05098,3.2798 9.07903,7.34219 -0.39641,-0.47225 -2.00014,-4.57212 -4.48189,-11.10062 4.15414,-3.40932 7.21778,-5.96093 9.34465,-7.77161 v 57.01305 c 0,0.0256 0.0204,0.0465 0.046,0.0465 h 38.461216 c 0.02558,0 0.04651,-0.0209 0.04651,-0.0465 V 92.672239 c 0,-0.02558 -0.02093,-0.04651 -0.04651,-0.04651 h -38.445716 l -0.0196,-0.01137 c -0.007,-0.0045 -0.0157,-0.0053 -0.0233,-0.0031 z m -4.88136,65.444066 c 0.0258,0.0307 0.0485,0.0518 0.0641,0.0517 -0.0355,-0.0287 -0.0286,-0.023 -0.0641,-0.0517 z m -18.13584,0.006 c -0.0212,0.0171 -0.0351,0.0283 -0.0563,0.0455 0.0143,1.1e-4 0.0342,-0.0183 0.0563,-0.0455 z"
       id="rect1515"
       inkscape:connector-curvature="0" />
  </g>
</svg>
