<?xml version="1.0" encoding="UTF-8" standalone="no"?>
<!-- Created with Inkscape (http://www.inkscape.org/) -->

<svg
   xmlns:dc="http://purl.org/dc/elements/1.1/"
   xmlns:cc="http://creativecommons.org/ns#"
   xmlns:rdf="http://www.w3.org/1999/02/22-rdf-syntax-ns#"
   xmlns:svg="http://www.w3.org/2000/svg"
   xmlns="http://www.w3.org/2000/svg"
   xmlns:sodipodi="http://sodipodi.sourceforge.net/DTD/sodipodi-0.dtd"
   xmlns:inkscape="http://www.inkscape.org/namespaces/inkscape"
   width="10.583323mm"
   height="10.583345mm"
   viewBox="0 0 10.583322 10.583346"
   version="1.1"
   id="svg1156"
   inkscape:version="0.92.4 (5da689c313, 2019-01-14)"
   sodipodi:docname="quick-learning.svg">
  <defs
     id="defs1150">
    <inkscape:path-effect
       effect="bspline"
       id="path-effect1763"
       is_visible="true"
       weight="33.333333"
       steps="2"
       helper_size="0"
       apply_no_weight="true"
       apply_with_weight="true"
       only_selected="false" />
    <inkscape:path-effect
       only_selected="false"
       apply_with_weight="true"
       apply_no_weight="true"
       helper_size="0"
       steps="2"
       weight="33.333333"
       is_visible="true"
       id="path-effect1739"
       effect="bspline" />
    <inkscape:path-effect
       only_selected="false"
       apply_with_weight="true"
       apply_no_weight="true"
       helper_size="0"
       steps="2"
       weight="33.333333"
       is_visible="true"
       id="path-effect1735"
       effect="bspline" />
    <inkscape:path-effect
       effect="bspline"
       id="path-effect1731"
       is_visible="true"
       weight="33.333333"
       steps="2"
       helper_size="0"
       apply_no_weight="true"
       apply_with_weight="true"
       only_selected="false" />
    <inkscape:path-effect
       effect="bspline"
       id="path-effect1727"
       is_visible="true"
       weight="33.333333"
       steps="2"
       helper_size="0"
       apply_no_weight="true"
       apply_with_weight="true"
       only_selected="false" />
  </defs>
  <sodipodi:namedview
     id="base"
     pagecolor="#ffffff"
     bordercolor="#666666"
     borderopacity="1.0"
     inkscape:pageopacity="0.0"
     inkscape:pageshadow="2"
     inkscape:zoom="5.6000001"
     inkscape:cx="10.932929"
     inkscape:cy="2.0473289"
     inkscape:document-units="mm"
     inkscape:current-layer="layer1"
     showgrid="false"
     inkscape:snap-global="false"
     inkscape:window-width="1366"
     inkscape:window-height="705"
     inkscape:window-x="-8"
     inkscape:window-y="-8"
     inkscape:window-maximized="1" />
  <metadata
     id="metadata1153">
    <rdf:RDF>
      <cc:Work
         rdf:about="">
        <dc:format>image/svg+xml</dc:format>
        <dc:type
           rdf:resource="http://purl.org/dc/dcmitype/StillImage" />
        <dc:title />
      </cc:Work>
    </rdf:RDF>
  </metadata>
  <g
     inkscape:label="Layer 1"
     inkscape:groupmode="layer"
     id="layer1"
     transform="translate(57.266042,-205.88536)">
    <ellipse
       style="opacity:1;fill:#939dac;fill-opacity:1;stroke:#6a6a6a;stroke-width:0.49999997;stroke-linecap:round;stroke-linejoin:round;stroke-miterlimit:4;stroke-dasharray:none;stroke-dashoffset:0;stroke-opacity:1;paint-order:markers fill stroke"
       id="path895"
       cx="-67.432259"
       cy="206.76065"
       transform="rotate(-4.2363618)"
       rx="5.0414648"
       ry="5.0414767" />
    <path
       style="fill:#d6d6f3;fill-opacity:1;stroke:#6a6a6a;stroke-width:0.5;stroke-linecap:round;stroke-linejoin:round;stroke-miterlimit:4;stroke-dasharray:none;stroke-opacity:1;paint-order:markers fill stroke"
       d="m -50.587544,207.36466 c -0.658083,0.001 -1.266625,0.38644 -1.599784,1.01353 -0.09114,-0.29518 -0.263492,-0.55149 -0.492941,-0.73313 -0.22946,-0.18163 -0.504546,-0.27949 -0.786815,-0.2799 -0.359115,0 -0.703507,0.15762 -0.957429,0.43821 -0.253931,0.28057 -0.396588,0.66113 -0.396588,1.05791 3.82e-4,0.0571 0.004,0.11411 0.01054,0.17076 -0.02067,-0.002 -0.04145,-0.002 -0.06212,-0.002 -0.148005,0.0101 -0.285674,0.11298 -0.382739,0.28433 -0.09704,0.17131 -0.145556,0.39763 -0.134838,0.62916 0.007,0.14863 0.03844,0.29296 0.09082,0.41929 -0.203773,0.0511 -0.386913,0.22547 -0.514085,0.48945 -0.127181,0.264 -0.189402,0.59892 -0.17467,0.94022 0.01606,0.36632 0.119484,0.7109 0.287531,0.95791 0.168056,0.247 0.386954,0.37623 0.60855,0.35924 0.08851,-0.007 0.175313,-0.0379 0.257263,-0.0905 -0.02097,0.27994 0.06784,0.56424 0.246957,0.79054 0.179136,0.22631 0.433951,0.3761 0.708566,0.41656 0.230719,0.0338 0.460846,-0.0117 0.653969,-0.12951 0.201971,0.41419 0.616577,0.67617 1.07041,0.67639 0.396008,-7e-5 0.766309,-0.19992 0.988909,-0.53371 0.07479,0.27842 0.305304,0.46933 0.566972,0.46957 0.193323,-1.1e-4 0.374424,-0.10509 0.485131,-0.28101 l 0.364196,-0.0627 0.339899,-0.0699 c 0.05063,0.0187 0.103948,0.0286 0.157677,0.0286 0.126262,0 0.247342,-0.0523 0.33662,-0.14561 0.08928,-0.0932 0.139433,-0.21968 0.139433,-0.35153 -1.86e-4,-0.1866 -0.222197,-0.27889 -0.259569,-0.44221 -0.0279,-0.12193 0.267071,-0.0818 0.361764,-0.20237 0.0947,-0.12053 0.147472,-0.28009 0.147528,-0.44593 0,-0.1723 -0.05689,-0.33753 -0.158165,-0.45935 -0.101265,-0.12182 -0.238614,-0.19027 -0.381831,-0.19027 -0.03893,2.8e-4 -0.07774,0.006 -0.0078,-0.009 0.06997,-0.0142 0.231878,-0.12744 0.348846,-0.29871 0.116963,-0.17127 0.181301,-0.38928 0.181424,-0.61474 -1.42e-4,-0.34252 -0.147912,-0.65816 -0.386349,-0.82534 0.13116,-0.28604 0.199854,-0.60204 0.200569,-0.9227 0,-0.54441 -0.19573,-1.06653 -0.544129,-1.4515 -0.348395,-0.38497 -0.820922,-0.60124 -1.313635,-0.60124 z"
       id="path5158"
       inkscape:connector-curvature="0"
       sodipodi:nodetypes="ccscscccsccscsccscccccccccscsscsccscccscc" />
    <path
       style="fill:none;stroke:#6a6a6a;stroke-width:0.5;stroke-linecap:round;stroke-linejoin:miter;stroke-miterlimit:4;stroke-dasharray:none;stroke-opacity:1;paint-order:markers fill stroke"
       d="m -52.187328,208.37819 c -0.10175,0.16525 -0.360514,1.12625 -0.109383,1.4715"
       id="path5198"
       inkscape:connector-curvature="0"
       sodipodi:nodetypes="cc" />
    <path
       style="fill:none;stroke:#6a6a6a;stroke-width:0.5;stroke-linecap:round;stroke-linejoin:miter;stroke-miterlimit:4;stroke-dasharray:none;stroke-opacity:1;paint-order:markers fill stroke"
       d="m -52.187328,208.37819 c -0.08035,0.18748 -0.631458,1.13386 -1.126672,1.00357"
       id="path5200"
       inkscape:connector-curvature="0"
       sodipodi:nodetypes="cc" />
    <path
       style="fill:none;stroke:#6a6a6a;stroke-width:0.5;stroke-linecap:round;stroke-linejoin:miter;stroke-miterlimit:4;stroke-dasharray:none;stroke-opacity:1;paint-order:markers fill stroke"
       d="m -53.225441,214.09735 c -0.0911,-1.33924 0.387908,-1.76918 1.3493,-1.55973"
       id="path5202"
       inkscape:connector-curvature="0"
       sodipodi:nodetypes="cc" />
    <path
       style="fill:none;stroke:#6a6a6a;stroke-width:0.5;stroke-linecap:round;stroke-linejoin:miter;stroke-miterlimit:4;stroke-dasharray:none;stroke-opacity:1;paint-order:markers fill stroke"
       d="m -54.089022,212.52484 c 1.003293,-0.3244 0.881613,0.78212 0.876315,0.88411"
       id="path5204"
       inkscape:connector-curvature="0"
       sodipodi:nodetypes="cc" />
    <path
       style="fill:none;stroke:#6a6a6a;stroke-width:0.5;stroke-linecap:round;stroke-linejoin:miter;stroke-miterlimit:4;stroke-dasharray:none;stroke-opacity:1;paint-order:markers fill stroke"
       d="m -49.055043,212.07805 c -0.168897,0.0191 -1.336458,0.30843 -1.171973,-1.3408"
       id="path5206"
       inkscape:connector-curvature="0"
       sodipodi:nodetypes="cc" />
    <path
       style="fill:none;stroke:#6a6a6a;stroke-width:0.5;stroke-linecap:round;stroke-linejoin:miter;stroke-miterlimit:4;stroke-dasharray:none;stroke-opacity:1;paint-order:markers fill stroke"
       d="m -51.166123,214.24003 c 0.02056,-0.11363 0.528948,-1.28648 1.000707,-0.82973"
       id="path5208"
       inkscape:connector-curvature="0"
       sodipodi:nodetypes="cc" />
    <path
       style="fill:none;stroke:#6a6a6a;stroke-width:0.5;stroke-linecap:round;stroke-linejoin:miter;stroke-miterlimit:4;stroke-dasharray:none;stroke-opacity:1;paint-order:markers fill stroke"
       d="m -55.32802,210.31402 c 0,0 0.22552,0.53377 0.66476,0.27863"
       id="path5212"
       inkscape:connector-curvature="0"
       sodipodi:nodetypes="cc" />
    <path
       style="fill:#ffffff;stroke:#6a6a6a;stroke-width:0.5;stroke-linecap:round;stroke-linejoin:round;stroke-miterlimit:4;stroke-dasharray:none;stroke-opacity:1;paint-order:markers fill stroke"
       d="m -48.930344,210.3401 c 0,0 -0.182594,0.37629 -0.345148,0.36827"
       id="path5214"
       inkscape:connector-curvature="0" />
  </g>
</svg>
